%TF.GenerationSoftware,KiCad,Pcbnew,9.0.7*%
%TF.CreationDate,2026-02-03T18:23:32-05:00*%
%TF.ProjectId,pcb_sma_solarcell_full,7063625f-736d-4615-9f73-6f6c61726365,rev?*%
%TF.SameCoordinates,Original*%
%TF.FileFunction,Legend,Top*%
%TF.FilePolarity,Positive*%
%FSLAX46Y46*%
G04 Gerber Fmt 4.6, Leading zero omitted, Abs format (unit mm)*
G04 Created by KiCad (PCBNEW 9.0.7) date 2026-02-03 18:23:32*
%MOMM*%
%LPD*%
G01*
G04 APERTURE LIST*
%ADD10C,0.100000*%
%ADD11C,0.200000*%
G04 APERTURE END LIST*
D10*
X83172000Y-35476000D02*
X83172000Y-140476000D01*
X63172000Y-140476000D02*
X63172000Y-35476000D01*
D11*
X87707275Y-99153333D02*
X86707275Y-99153333D01*
X86707275Y-99153333D02*
X87707275Y-98581905D01*
X87707275Y-98581905D02*
X86707275Y-98581905D01*
X87707275Y-97962857D02*
X87659656Y-98058095D01*
X87659656Y-98058095D02*
X87612036Y-98105714D01*
X87612036Y-98105714D02*
X87516798Y-98153333D01*
X87516798Y-98153333D02*
X87231084Y-98153333D01*
X87231084Y-98153333D02*
X87135846Y-98105714D01*
X87135846Y-98105714D02*
X87088227Y-98058095D01*
X87088227Y-98058095D02*
X87040608Y-97962857D01*
X87040608Y-97962857D02*
X87040608Y-97820000D01*
X87040608Y-97820000D02*
X87088227Y-97724762D01*
X87088227Y-97724762D02*
X87135846Y-97677143D01*
X87135846Y-97677143D02*
X87231084Y-97629524D01*
X87231084Y-97629524D02*
X87516798Y-97629524D01*
X87516798Y-97629524D02*
X87612036Y-97677143D01*
X87612036Y-97677143D02*
X87659656Y-97724762D01*
X87659656Y-97724762D02*
X87707275Y-97820000D01*
X87707275Y-97820000D02*
X87707275Y-97962857D01*
X87707275Y-97200952D02*
X87040608Y-97200952D01*
X87135846Y-97200952D02*
X87088227Y-97153333D01*
X87088227Y-97153333D02*
X87040608Y-97058095D01*
X87040608Y-97058095D02*
X87040608Y-96915238D01*
X87040608Y-96915238D02*
X87088227Y-96820000D01*
X87088227Y-96820000D02*
X87183465Y-96772381D01*
X87183465Y-96772381D02*
X87707275Y-96772381D01*
X87183465Y-96772381D02*
X87088227Y-96724762D01*
X87088227Y-96724762D02*
X87040608Y-96629524D01*
X87040608Y-96629524D02*
X87040608Y-96486667D01*
X87040608Y-96486667D02*
X87088227Y-96391428D01*
X87088227Y-96391428D02*
X87183465Y-96343809D01*
X87183465Y-96343809D02*
X87707275Y-96343809D01*
X87612036Y-95867619D02*
X87659656Y-95820000D01*
X87659656Y-95820000D02*
X87707275Y-95867619D01*
X87707275Y-95867619D02*
X87659656Y-95915238D01*
X87659656Y-95915238D02*
X87612036Y-95867619D01*
X87612036Y-95867619D02*
X87707275Y-95867619D01*
X87088227Y-95867619D02*
X87135846Y-95820000D01*
X87135846Y-95820000D02*
X87183465Y-95867619D01*
X87183465Y-95867619D02*
X87135846Y-95915238D01*
X87135846Y-95915238D02*
X87088227Y-95867619D01*
X87088227Y-95867619D02*
X87183465Y-95867619D01*
X87612036Y-94058096D02*
X87659656Y-94105715D01*
X87659656Y-94105715D02*
X87707275Y-94248572D01*
X87707275Y-94248572D02*
X87707275Y-94343810D01*
X87707275Y-94343810D02*
X87659656Y-94486667D01*
X87659656Y-94486667D02*
X87564417Y-94581905D01*
X87564417Y-94581905D02*
X87469179Y-94629524D01*
X87469179Y-94629524D02*
X87278703Y-94677143D01*
X87278703Y-94677143D02*
X87135846Y-94677143D01*
X87135846Y-94677143D02*
X86945370Y-94629524D01*
X86945370Y-94629524D02*
X86850132Y-94581905D01*
X86850132Y-94581905D02*
X86754894Y-94486667D01*
X86754894Y-94486667D02*
X86707275Y-94343810D01*
X86707275Y-94343810D02*
X86707275Y-94248572D01*
X86707275Y-94248572D02*
X86754894Y-94105715D01*
X86754894Y-94105715D02*
X86802513Y-94058096D01*
X87707275Y-93200953D02*
X87183465Y-93200953D01*
X87183465Y-93200953D02*
X87088227Y-93248572D01*
X87088227Y-93248572D02*
X87040608Y-93343810D01*
X87040608Y-93343810D02*
X87040608Y-93534286D01*
X87040608Y-93534286D02*
X87088227Y-93629524D01*
X87659656Y-93200953D02*
X87707275Y-93296191D01*
X87707275Y-93296191D02*
X87707275Y-93534286D01*
X87707275Y-93534286D02*
X87659656Y-93629524D01*
X87659656Y-93629524D02*
X87564417Y-93677143D01*
X87564417Y-93677143D02*
X87469179Y-93677143D01*
X87469179Y-93677143D02*
X87373941Y-93629524D01*
X87373941Y-93629524D02*
X87326322Y-93534286D01*
X87326322Y-93534286D02*
X87326322Y-93296191D01*
X87326322Y-93296191D02*
X87278703Y-93200953D01*
X87040608Y-92867619D02*
X87040608Y-92486667D01*
X86707275Y-92724762D02*
X87564417Y-92724762D01*
X87564417Y-92724762D02*
X87659656Y-92677143D01*
X87659656Y-92677143D02*
X87707275Y-92581905D01*
X87707275Y-92581905D02*
X87707275Y-92486667D01*
X87707275Y-92153333D02*
X86707275Y-92153333D01*
X87707275Y-91724762D02*
X87183465Y-91724762D01*
X87183465Y-91724762D02*
X87088227Y-91772381D01*
X87088227Y-91772381D02*
X87040608Y-91867619D01*
X87040608Y-91867619D02*
X87040608Y-92010476D01*
X87040608Y-92010476D02*
X87088227Y-92105714D01*
X87088227Y-92105714D02*
X87135846Y-92153333D01*
X87659656Y-90867619D02*
X87707275Y-90962857D01*
X87707275Y-90962857D02*
X87707275Y-91153333D01*
X87707275Y-91153333D02*
X87659656Y-91248571D01*
X87659656Y-91248571D02*
X87564417Y-91296190D01*
X87564417Y-91296190D02*
X87183465Y-91296190D01*
X87183465Y-91296190D02*
X87088227Y-91248571D01*
X87088227Y-91248571D02*
X87040608Y-91153333D01*
X87040608Y-91153333D02*
X87040608Y-90962857D01*
X87040608Y-90962857D02*
X87088227Y-90867619D01*
X87088227Y-90867619D02*
X87183465Y-90820000D01*
X87183465Y-90820000D02*
X87278703Y-90820000D01*
X87278703Y-90820000D02*
X87373941Y-91296190D01*
X87707275Y-90391428D02*
X87040608Y-90391428D01*
X87231084Y-90391428D02*
X87135846Y-90343809D01*
X87135846Y-90343809D02*
X87088227Y-90296190D01*
X87088227Y-90296190D02*
X87040608Y-90200952D01*
X87040608Y-90200952D02*
X87040608Y-90105714D01*
X87707275Y-89772380D02*
X87040608Y-89772380D01*
X86707275Y-89772380D02*
X86754894Y-89819999D01*
X86754894Y-89819999D02*
X86802513Y-89772380D01*
X86802513Y-89772380D02*
X86754894Y-89724761D01*
X86754894Y-89724761D02*
X86707275Y-89772380D01*
X86707275Y-89772380D02*
X86802513Y-89772380D01*
X87040608Y-89296190D02*
X87707275Y-89296190D01*
X87135846Y-89296190D02*
X87088227Y-89248571D01*
X87088227Y-89248571D02*
X87040608Y-89153333D01*
X87040608Y-89153333D02*
X87040608Y-89010476D01*
X87040608Y-89010476D02*
X87088227Y-88915238D01*
X87088227Y-88915238D02*
X87183465Y-88867619D01*
X87183465Y-88867619D02*
X87707275Y-88867619D01*
X87659656Y-88010476D02*
X87707275Y-88105714D01*
X87707275Y-88105714D02*
X87707275Y-88296190D01*
X87707275Y-88296190D02*
X87659656Y-88391428D01*
X87659656Y-88391428D02*
X87564417Y-88439047D01*
X87564417Y-88439047D02*
X87183465Y-88439047D01*
X87183465Y-88439047D02*
X87088227Y-88391428D01*
X87088227Y-88391428D02*
X87040608Y-88296190D01*
X87040608Y-88296190D02*
X87040608Y-88105714D01*
X87040608Y-88105714D02*
X87088227Y-88010476D01*
X87088227Y-88010476D02*
X87183465Y-87962857D01*
X87183465Y-87962857D02*
X87278703Y-87962857D01*
X87278703Y-87962857D02*
X87373941Y-88439047D01*
X87183465Y-86439047D02*
X87231084Y-86296190D01*
X87231084Y-86296190D02*
X87278703Y-86248571D01*
X87278703Y-86248571D02*
X87373941Y-86200952D01*
X87373941Y-86200952D02*
X87516798Y-86200952D01*
X87516798Y-86200952D02*
X87612036Y-86248571D01*
X87612036Y-86248571D02*
X87659656Y-86296190D01*
X87659656Y-86296190D02*
X87707275Y-86391428D01*
X87707275Y-86391428D02*
X87707275Y-86772380D01*
X87707275Y-86772380D02*
X86707275Y-86772380D01*
X86707275Y-86772380D02*
X86707275Y-86439047D01*
X86707275Y-86439047D02*
X86754894Y-86343809D01*
X86754894Y-86343809D02*
X86802513Y-86296190D01*
X86802513Y-86296190D02*
X86897751Y-86248571D01*
X86897751Y-86248571D02*
X86992989Y-86248571D01*
X86992989Y-86248571D02*
X87088227Y-86296190D01*
X87088227Y-86296190D02*
X87135846Y-86343809D01*
X87135846Y-86343809D02*
X87183465Y-86439047D01*
X87183465Y-86439047D02*
X87183465Y-86772380D01*
X87707275Y-85629523D02*
X87659656Y-85724761D01*
X87659656Y-85724761D02*
X87612036Y-85772380D01*
X87612036Y-85772380D02*
X87516798Y-85819999D01*
X87516798Y-85819999D02*
X87231084Y-85819999D01*
X87231084Y-85819999D02*
X87135846Y-85772380D01*
X87135846Y-85772380D02*
X87088227Y-85724761D01*
X87088227Y-85724761D02*
X87040608Y-85629523D01*
X87040608Y-85629523D02*
X87040608Y-85486666D01*
X87040608Y-85486666D02*
X87088227Y-85391428D01*
X87088227Y-85391428D02*
X87135846Y-85343809D01*
X87135846Y-85343809D02*
X87231084Y-85296190D01*
X87231084Y-85296190D02*
X87516798Y-85296190D01*
X87516798Y-85296190D02*
X87612036Y-85343809D01*
X87612036Y-85343809D02*
X87659656Y-85391428D01*
X87659656Y-85391428D02*
X87707275Y-85486666D01*
X87707275Y-85486666D02*
X87707275Y-85629523D01*
X87040608Y-84439047D02*
X87707275Y-84439047D01*
X87040608Y-84867618D02*
X87564417Y-84867618D01*
X87564417Y-84867618D02*
X87659656Y-84819999D01*
X87659656Y-84819999D02*
X87707275Y-84724761D01*
X87707275Y-84724761D02*
X87707275Y-84581904D01*
X87707275Y-84581904D02*
X87659656Y-84486666D01*
X87659656Y-84486666D02*
X87612036Y-84439047D01*
X87707275Y-83962856D02*
X87040608Y-83962856D01*
X87231084Y-83962856D02*
X87135846Y-83915237D01*
X87135846Y-83915237D02*
X87088227Y-83867618D01*
X87088227Y-83867618D02*
X87040608Y-83772380D01*
X87040608Y-83772380D02*
X87040608Y-83677142D01*
X87040608Y-82915237D02*
X87850132Y-82915237D01*
X87850132Y-82915237D02*
X87945370Y-82962856D01*
X87945370Y-82962856D02*
X87992989Y-83010475D01*
X87992989Y-83010475D02*
X88040608Y-83105713D01*
X88040608Y-83105713D02*
X88040608Y-83248570D01*
X88040608Y-83248570D02*
X87992989Y-83343808D01*
X87659656Y-82915237D02*
X87707275Y-83010475D01*
X87707275Y-83010475D02*
X87707275Y-83200951D01*
X87707275Y-83200951D02*
X87659656Y-83296189D01*
X87659656Y-83296189D02*
X87612036Y-83343808D01*
X87612036Y-83343808D02*
X87516798Y-83391427D01*
X87516798Y-83391427D02*
X87231084Y-83391427D01*
X87231084Y-83391427D02*
X87135846Y-83343808D01*
X87135846Y-83343808D02*
X87088227Y-83296189D01*
X87088227Y-83296189D02*
X87040608Y-83200951D01*
X87040608Y-83200951D02*
X87040608Y-83010475D01*
X87040608Y-83010475D02*
X87088227Y-82915237D01*
X87659656Y-82058094D02*
X87707275Y-82153332D01*
X87707275Y-82153332D02*
X87707275Y-82343808D01*
X87707275Y-82343808D02*
X87659656Y-82439046D01*
X87659656Y-82439046D02*
X87564417Y-82486665D01*
X87564417Y-82486665D02*
X87183465Y-82486665D01*
X87183465Y-82486665D02*
X87088227Y-82439046D01*
X87088227Y-82439046D02*
X87040608Y-82343808D01*
X87040608Y-82343808D02*
X87040608Y-82153332D01*
X87040608Y-82153332D02*
X87088227Y-82058094D01*
X87088227Y-82058094D02*
X87183465Y-82010475D01*
X87183465Y-82010475D02*
X87278703Y-82010475D01*
X87278703Y-82010475D02*
X87373941Y-82486665D01*
X87040608Y-81724760D02*
X87040608Y-81343808D01*
X86707275Y-81581903D02*
X87564417Y-81581903D01*
X87564417Y-81581903D02*
X87659656Y-81534284D01*
X87659656Y-81534284D02*
X87707275Y-81439046D01*
X87707275Y-81439046D02*
X87707275Y-81343808D01*
X88317219Y-98415237D02*
X89317219Y-98081904D01*
X89317219Y-98081904D02*
X88317219Y-97748571D01*
X89269600Y-97034285D02*
X89317219Y-97129523D01*
X89317219Y-97129523D02*
X89317219Y-97319999D01*
X89317219Y-97319999D02*
X89269600Y-97415237D01*
X89269600Y-97415237D02*
X89174361Y-97462856D01*
X89174361Y-97462856D02*
X88793409Y-97462856D01*
X88793409Y-97462856D02*
X88698171Y-97415237D01*
X88698171Y-97415237D02*
X88650552Y-97319999D01*
X88650552Y-97319999D02*
X88650552Y-97129523D01*
X88650552Y-97129523D02*
X88698171Y-97034285D01*
X88698171Y-97034285D02*
X88793409Y-96986666D01*
X88793409Y-96986666D02*
X88888647Y-96986666D01*
X88888647Y-96986666D02*
X88983885Y-97462856D01*
X89317219Y-96558094D02*
X88650552Y-96558094D01*
X88841028Y-96558094D02*
X88745790Y-96510475D01*
X88745790Y-96510475D02*
X88698171Y-96462856D01*
X88698171Y-96462856D02*
X88650552Y-96367618D01*
X88650552Y-96367618D02*
X88650552Y-96272380D01*
X89269600Y-95986665D02*
X89317219Y-95891427D01*
X89317219Y-95891427D02*
X89317219Y-95700951D01*
X89317219Y-95700951D02*
X89269600Y-95605713D01*
X89269600Y-95605713D02*
X89174361Y-95558094D01*
X89174361Y-95558094D02*
X89126742Y-95558094D01*
X89126742Y-95558094D02*
X89031504Y-95605713D01*
X89031504Y-95605713D02*
X88983885Y-95700951D01*
X88983885Y-95700951D02*
X88983885Y-95843808D01*
X88983885Y-95843808D02*
X88936266Y-95939046D01*
X88936266Y-95939046D02*
X88841028Y-95986665D01*
X88841028Y-95986665D02*
X88793409Y-95986665D01*
X88793409Y-95986665D02*
X88698171Y-95939046D01*
X88698171Y-95939046D02*
X88650552Y-95843808D01*
X88650552Y-95843808D02*
X88650552Y-95700951D01*
X88650552Y-95700951D02*
X88698171Y-95605713D01*
X89317219Y-95129522D02*
X88650552Y-95129522D01*
X88317219Y-95129522D02*
X88364838Y-95177141D01*
X88364838Y-95177141D02*
X88412457Y-95129522D01*
X88412457Y-95129522D02*
X88364838Y-95081903D01*
X88364838Y-95081903D02*
X88317219Y-95129522D01*
X88317219Y-95129522D02*
X88412457Y-95129522D01*
X89317219Y-94510475D02*
X89269600Y-94605713D01*
X89269600Y-94605713D02*
X89221980Y-94653332D01*
X89221980Y-94653332D02*
X89126742Y-94700951D01*
X89126742Y-94700951D02*
X88841028Y-94700951D01*
X88841028Y-94700951D02*
X88745790Y-94653332D01*
X88745790Y-94653332D02*
X88698171Y-94605713D01*
X88698171Y-94605713D02*
X88650552Y-94510475D01*
X88650552Y-94510475D02*
X88650552Y-94367618D01*
X88650552Y-94367618D02*
X88698171Y-94272380D01*
X88698171Y-94272380D02*
X88745790Y-94224761D01*
X88745790Y-94224761D02*
X88841028Y-94177142D01*
X88841028Y-94177142D02*
X89126742Y-94177142D01*
X89126742Y-94177142D02*
X89221980Y-94224761D01*
X89221980Y-94224761D02*
X89269600Y-94272380D01*
X89269600Y-94272380D02*
X89317219Y-94367618D01*
X89317219Y-94367618D02*
X89317219Y-94510475D01*
X88650552Y-93748570D02*
X89317219Y-93748570D01*
X88745790Y-93748570D02*
X88698171Y-93700951D01*
X88698171Y-93700951D02*
X88650552Y-93605713D01*
X88650552Y-93605713D02*
X88650552Y-93462856D01*
X88650552Y-93462856D02*
X88698171Y-93367618D01*
X88698171Y-93367618D02*
X88793409Y-93319999D01*
X88793409Y-93319999D02*
X89317219Y-93319999D01*
X89221980Y-92843808D02*
X89269600Y-92796189D01*
X89269600Y-92796189D02*
X89317219Y-92843808D01*
X89317219Y-92843808D02*
X89269600Y-92891427D01*
X89269600Y-92891427D02*
X89221980Y-92843808D01*
X89221980Y-92843808D02*
X89317219Y-92843808D01*
X88698171Y-92843808D02*
X88745790Y-92796189D01*
X88745790Y-92796189D02*
X88793409Y-92843808D01*
X88793409Y-92843808D02*
X88745790Y-92891427D01*
X88745790Y-92891427D02*
X88698171Y-92843808D01*
X88698171Y-92843808D02*
X88793409Y-92843808D01*
X88317219Y-91415237D02*
X88317219Y-91319999D01*
X88317219Y-91319999D02*
X88364838Y-91224761D01*
X88364838Y-91224761D02*
X88412457Y-91177142D01*
X88412457Y-91177142D02*
X88507695Y-91129523D01*
X88507695Y-91129523D02*
X88698171Y-91081904D01*
X88698171Y-91081904D02*
X88936266Y-91081904D01*
X88936266Y-91081904D02*
X89126742Y-91129523D01*
X89126742Y-91129523D02*
X89221980Y-91177142D01*
X89221980Y-91177142D02*
X89269600Y-91224761D01*
X89269600Y-91224761D02*
X89317219Y-91319999D01*
X89317219Y-91319999D02*
X89317219Y-91415237D01*
X89317219Y-91415237D02*
X89269600Y-91510475D01*
X89269600Y-91510475D02*
X89221980Y-91558094D01*
X89221980Y-91558094D02*
X89126742Y-91605713D01*
X89126742Y-91605713D02*
X88936266Y-91653332D01*
X88936266Y-91653332D02*
X88698171Y-91653332D01*
X88698171Y-91653332D02*
X88507695Y-91605713D01*
X88507695Y-91605713D02*
X88412457Y-91558094D01*
X88412457Y-91558094D02*
X88364838Y-91510475D01*
X88364838Y-91510475D02*
X88317219Y-91415237D01*
X88317219Y-90748570D02*
X88317219Y-90129523D01*
X88317219Y-90129523D02*
X88698171Y-90462856D01*
X88698171Y-90462856D02*
X88698171Y-90319999D01*
X88698171Y-90319999D02*
X88745790Y-90224761D01*
X88745790Y-90224761D02*
X88793409Y-90177142D01*
X88793409Y-90177142D02*
X88888647Y-90129523D01*
X88888647Y-90129523D02*
X89126742Y-90129523D01*
X89126742Y-90129523D02*
X89221980Y-90177142D01*
X89221980Y-90177142D02*
X89269600Y-90224761D01*
X89269600Y-90224761D02*
X89317219Y-90319999D01*
X89317219Y-90319999D02*
X89317219Y-90605713D01*
X89317219Y-90605713D02*
X89269600Y-90700951D01*
X89269600Y-90700951D02*
X89221980Y-90748570D01*
X88269600Y-88986666D02*
X89555314Y-89843808D01*
X88317219Y-88462856D02*
X88317219Y-88367618D01*
X88317219Y-88367618D02*
X88364838Y-88272380D01*
X88364838Y-88272380D02*
X88412457Y-88224761D01*
X88412457Y-88224761D02*
X88507695Y-88177142D01*
X88507695Y-88177142D02*
X88698171Y-88129523D01*
X88698171Y-88129523D02*
X88936266Y-88129523D01*
X88936266Y-88129523D02*
X89126742Y-88177142D01*
X89126742Y-88177142D02*
X89221980Y-88224761D01*
X89221980Y-88224761D02*
X89269600Y-88272380D01*
X89269600Y-88272380D02*
X89317219Y-88367618D01*
X89317219Y-88367618D02*
X89317219Y-88462856D01*
X89317219Y-88462856D02*
X89269600Y-88558094D01*
X89269600Y-88558094D02*
X89221980Y-88605713D01*
X89221980Y-88605713D02*
X89126742Y-88653332D01*
X89126742Y-88653332D02*
X88936266Y-88700951D01*
X88936266Y-88700951D02*
X88698171Y-88700951D01*
X88698171Y-88700951D02*
X88507695Y-88653332D01*
X88507695Y-88653332D02*
X88412457Y-88605713D01*
X88412457Y-88605713D02*
X88364838Y-88558094D01*
X88364838Y-88558094D02*
X88317219Y-88462856D01*
X88412457Y-87748570D02*
X88364838Y-87700951D01*
X88364838Y-87700951D02*
X88317219Y-87605713D01*
X88317219Y-87605713D02*
X88317219Y-87367618D01*
X88317219Y-87367618D02*
X88364838Y-87272380D01*
X88364838Y-87272380D02*
X88412457Y-87224761D01*
X88412457Y-87224761D02*
X88507695Y-87177142D01*
X88507695Y-87177142D02*
X88602933Y-87177142D01*
X88602933Y-87177142D02*
X88745790Y-87224761D01*
X88745790Y-87224761D02*
X89317219Y-87796189D01*
X89317219Y-87796189D02*
X89317219Y-87177142D01*
X88269600Y-86034285D02*
X89555314Y-86891427D01*
X88412457Y-85748570D02*
X88364838Y-85700951D01*
X88364838Y-85700951D02*
X88317219Y-85605713D01*
X88317219Y-85605713D02*
X88317219Y-85367618D01*
X88317219Y-85367618D02*
X88364838Y-85272380D01*
X88364838Y-85272380D02*
X88412457Y-85224761D01*
X88412457Y-85224761D02*
X88507695Y-85177142D01*
X88507695Y-85177142D02*
X88602933Y-85177142D01*
X88602933Y-85177142D02*
X88745790Y-85224761D01*
X88745790Y-85224761D02*
X89317219Y-85796189D01*
X89317219Y-85796189D02*
X89317219Y-85177142D01*
X88317219Y-84558094D02*
X88317219Y-84462856D01*
X88317219Y-84462856D02*
X88364838Y-84367618D01*
X88364838Y-84367618D02*
X88412457Y-84319999D01*
X88412457Y-84319999D02*
X88507695Y-84272380D01*
X88507695Y-84272380D02*
X88698171Y-84224761D01*
X88698171Y-84224761D02*
X88936266Y-84224761D01*
X88936266Y-84224761D02*
X89126742Y-84272380D01*
X89126742Y-84272380D02*
X89221980Y-84319999D01*
X89221980Y-84319999D02*
X89269600Y-84367618D01*
X89269600Y-84367618D02*
X89317219Y-84462856D01*
X89317219Y-84462856D02*
X89317219Y-84558094D01*
X89317219Y-84558094D02*
X89269600Y-84653332D01*
X89269600Y-84653332D02*
X89221980Y-84700951D01*
X89221980Y-84700951D02*
X89126742Y-84748570D01*
X89126742Y-84748570D02*
X88936266Y-84796189D01*
X88936266Y-84796189D02*
X88698171Y-84796189D01*
X88698171Y-84796189D02*
X88507695Y-84748570D01*
X88507695Y-84748570D02*
X88412457Y-84700951D01*
X88412457Y-84700951D02*
X88364838Y-84653332D01*
X88364838Y-84653332D02*
X88317219Y-84558094D01*
X88412457Y-83843808D02*
X88364838Y-83796189D01*
X88364838Y-83796189D02*
X88317219Y-83700951D01*
X88317219Y-83700951D02*
X88317219Y-83462856D01*
X88317219Y-83462856D02*
X88364838Y-83367618D01*
X88364838Y-83367618D02*
X88412457Y-83319999D01*
X88412457Y-83319999D02*
X88507695Y-83272380D01*
X88507695Y-83272380D02*
X88602933Y-83272380D01*
X88602933Y-83272380D02*
X88745790Y-83319999D01*
X88745790Y-83319999D02*
X89317219Y-83891427D01*
X89317219Y-83891427D02*
X89317219Y-83272380D01*
X88317219Y-82415237D02*
X88317219Y-82605713D01*
X88317219Y-82605713D02*
X88364838Y-82700951D01*
X88364838Y-82700951D02*
X88412457Y-82748570D01*
X88412457Y-82748570D02*
X88555314Y-82843808D01*
X88555314Y-82843808D02*
X88745790Y-82891427D01*
X88745790Y-82891427D02*
X89126742Y-82891427D01*
X89126742Y-82891427D02*
X89221980Y-82843808D01*
X89221980Y-82843808D02*
X89269600Y-82796189D01*
X89269600Y-82796189D02*
X89317219Y-82700951D01*
X89317219Y-82700951D02*
X89317219Y-82510475D01*
X89317219Y-82510475D02*
X89269600Y-82415237D01*
X89269600Y-82415237D02*
X89221980Y-82367618D01*
X89221980Y-82367618D02*
X89126742Y-82319999D01*
X89126742Y-82319999D02*
X88888647Y-82319999D01*
X88888647Y-82319999D02*
X88793409Y-82367618D01*
X88793409Y-82367618D02*
X88745790Y-82415237D01*
X88745790Y-82415237D02*
X88698171Y-82510475D01*
X88698171Y-82510475D02*
X88698171Y-82700951D01*
X88698171Y-82700951D02*
X88745790Y-82796189D01*
X88745790Y-82796189D02*
X88793409Y-82843808D01*
X88793409Y-82843808D02*
X88888647Y-82891427D01*
M02*
