%TF.GenerationSoftware,KiCad,Pcbnew,9.0.7*%
%TF.CreationDate,2026-02-03T18:23:32-05:00*%
%TF.ProjectId,pcb_sma_solarcell_full,7063625f-736d-4615-9f73-6f6c61726365,rev?*%
%TF.SameCoordinates,Original*%
%TF.FileFunction,Soldermask,Top*%
%TF.FilePolarity,Negative*%
%FSLAX46Y46*%
G04 Gerber Fmt 4.6, Leading zero omitted, Abs format (unit mm)*
G04 Created by KiCad (PCBNEW 9.0.7) date 2026-02-03 18:23:32*
%MOMM*%
%LPD*%
G01*
G04 APERTURE LIST*
G04 Aperture macros list*
%AMRoundRect*
0 Rectangle with rounded corners*
0 $1 Rounding radius*
0 $2 $3 $4 $5 $6 $7 $8 $9 X,Y pos of 4 corners*
0 Add a 4 corners polygon primitive as box body*
4,1,4,$2,$3,$4,$5,$6,$7,$8,$9,$2,$3,0*
0 Add four circle primitives for the rounded corners*
1,1,$1+$1,$2,$3*
1,1,$1+$1,$4,$5*
1,1,$1+$1,$6,$7*
1,1,$1+$1,$8,$9*
0 Add four rect primitives between the rounded corners*
20,1,$1+$1,$2,$3,$4,$5,0*
20,1,$1+$1,$4,$5,$6,$7,0*
20,1,$1+$1,$6,$7,$8,$9,0*
20,1,$1+$1,$8,$9,$2,$3,0*%
%AMOutline4P*
0 Free polygon, 4 corners , with rotation*
0 The origin of the aperture is its center*
0 number of corners: always 4*
0 $1 to $8 corner X, Y*
0 $9 Rotation angle, in degrees counterclockwise*
0 create outline with 4 corners*
4,1,4,$1,$2,$3,$4,$5,$6,$7,$8,$1,$2,$9*%
G04 Aperture macros list end*
%ADD10Outline4P,-1.830250X-2.522500X1.830250X-2.522500X1.825750X2.522500X-1.825750X2.522500X0.000000*%
%ADD11Outline4P,-1.607125X-2.500000X1.607125X-2.500000X1.602625X2.500000X-1.602625X2.500000X180.000000*%
%ADD12Outline4P,-5.727750X-2.500000X5.727750X-2.500000X5.723250X2.500000X-5.723250X2.500000X180.000000*%
%ADD13Outline4P,-5.716625X-2.502500X5.716625X-2.502500X5.712125X2.502500X-5.712125X2.502500X0.000000*%
%ADD14Outline4P,-1.342750X-2.500000X1.342750X-2.500000X1.338250X2.500000X-1.338250X2.500000X0.000000*%
%ADD15Outline4P,-1.604875X-2.500000X1.604875X-2.500000X1.600375X2.500000X-1.600375X2.500000X0.000000*%
%ADD16Outline4P,-0.117250X-2.500000X0.117250X-2.500000X0.112750X2.500000X-0.112750X2.500000X0.000000*%
%ADD17Outline4P,-0.146000X-2.500000X0.146000X-2.500000X0.141500X2.500000X-0.141500X2.500000X180.000000*%
%ADD18Outline4P,-0.146000X-2.500000X0.146000X-2.500000X0.141500X2.500000X-0.141500X2.500000X0.000000*%
%ADD19RoundRect,0.102000X-0.750000X1.750000X-0.750000X-1.750000X0.750000X-1.750000X0.750000X1.750000X0*%
%ADD20RoundRect,0.102000X0.750000X-1.750000X0.750000X1.750000X-0.750000X1.750000X-0.750000X-1.750000X0*%
G04 APERTURE END LIST*
D10*
%TO.C,REF\u002A\u002A*%
X65142000Y-144107500D03*
D11*
X65398875Y-31900000D03*
D12*
X73411750Y-31900000D03*
D13*
X73431625Y-144087500D03*
D14*
X81215500Y-31900000D03*
D15*
X81428875Y-144090000D03*
D16*
X67340000Y-31920000D03*
D17*
X79500000Y-31900000D03*
D18*
X67330000Y-144090000D03*
D16*
X79490000Y-144080000D03*
%TD*%
D19*
%TO.C,J1*%
X67370000Y-24980000D03*
X70070000Y-24980000D03*
X64670000Y-24980000D03*
%TD*%
D20*
%TO.C,J3*%
X67307202Y-151208628D03*
X64607202Y-151208628D03*
X70007202Y-151208628D03*
%TD*%
%TO.C,J4*%
X79470000Y-151195000D03*
X76770000Y-151195000D03*
X82170000Y-151195000D03*
%TD*%
D19*
%TO.C,J2*%
X79480000Y-24895000D03*
X82180000Y-24895000D03*
X76780000Y-24895000D03*
%TD*%
G36*
X82816020Y-35566219D02*
G01*
X82883015Y-35586055D01*
X82928651Y-35638963D01*
X82939740Y-35690479D01*
X82720259Y-140430218D01*
X82700434Y-140497216D01*
X82647534Y-140542860D01*
X82596217Y-140553958D01*
X63502072Y-140547541D01*
X63435039Y-140527834D01*
X63389302Y-140475015D01*
X63378114Y-140423426D01*
X63384859Y-133120000D01*
X65010000Y-133120000D01*
X81542000Y-133120000D01*
X81542000Y-42960000D01*
X65010000Y-42960000D01*
X65010000Y-133120000D01*
X63384859Y-133120000D01*
X63474874Y-35646665D01*
X63494621Y-35579644D01*
X63547467Y-35533938D01*
X63599154Y-35522780D01*
X82816020Y-35566219D01*
G37*
M02*
