0
SECTION
2
HEADER
9
$ACADVER
1
AC1006
0
ENDSEC
0
SECTION
2
TABLES
0
TABLE
2
LAYER
70
1
0
LAYER
70
0
62
1
6
CONTINUOUS
2
L82D0
0
ENDTAB
0
ENDSEC
0
SECTION
2
BLOCKS
0
ENDSEC
0
SECTION
2
ENTITIES
0
POLYLINE
8
L82D0
70
1
40
0
41
0
66
1
0
VERTEX
8
L82D0
10
0.697
20
20
0
VERTEX
8
L82D0
10
0.654
20
118.063
0
VERTEX
8
L82D0
10
0.958
20
118.063
0
VERTEX
8
L82D0
10
0.915
20
20
0
SEQEND
0
POLYLINE
8
L82D0
70
1
40
0
41
0
66
1
0
VERTEX
8
L82D0
10
1.146
20
20
0
VERTEX
8
L82D0
10
1.192
20
124.495
0
VERTEX
8
L82D0
10
1.392
20
124.495
0
VERTEX
8
L82D0
10
1.438
20
20
0
SEQEND
0
POLYLINE
8
L82D0
70
1
40
0
41
0
66
1
0
VERTEX
8
L82D0
10
1.669
20
20
0
VERTEX
8
L82D0
10
1.623
20
124.495
0
VERTEX
8
L82D0
10
1.933
20
124.495
0
VERTEX
8
L82D0
10
1.887
20
20
0
SEQEND
0
POLYLINE
8
L82D0
70
1
40
0
41
0
66
1
0
VERTEX
8
L82D0
10
2.117
20
20
0
VERTEX
8
L82D0
10
2.164
20
124.495
0
VERTEX
8
L82D0
10
2.364
20
124.495
0
VERTEX
8
L82D0
10
2.411
20
20
0
SEQEND
0
POLYLINE
8
L82D0
70
1
40
0
41
0
66
1
0
VERTEX
8
L82D0
10
2.641
20
20
0
VERTEX
8
L82D0
10
2.595
20
124.495
0
VERTEX
8
L82D0
10
2.905
20
124.495
0
VERTEX
8
L82D0
10
2.859
20
20
0
SEQEND
0
POLYLINE
8
L82D0
70
1
40
0
41
0
66
1
0
VERTEX
8
L82D0
10
3.09
20
20
0
VERTEX
8
L82D0
10
3.136
20
124.495
0
VERTEX
8
L82D0
10
3.336
20
124.495
0
VERTEX
8
L82D0
10
3.382
20
20
0
SEQEND
0
POLYLINE
8
L82D0
70
1
40
0
41
0
66
1
0
VERTEX
8
L82D0
10
3.613
20
20
0
VERTEX
8
L82D0
10
3.567
20
124.495
0
VERTEX
8
L82D0
10
3.877
20
124.495
0
VERTEX
8
L82D0
10
3.831
20
20
0
SEQEND
0
POLYLINE
8
L82D0
70
1
40
0
41
0
66
1
0
VERTEX
8
L82D0
10
4.062
20
20
0
VERTEX
8
L82D0
10
4.108
20
124.495
0
VERTEX
8
L82D0
10
4.308
20
124.495
0
VERTEX
8
L82D0
10
4.354
20
20
0
SEQEND
0
POLYLINE
8
L82D0
70
1
40
0
41
0
66
1
0
VERTEX
8
L82D0
10
4.586
20
20
0
VERTEX
8
L82D0
10
4.539
20
124.495
0
VERTEX
8
L82D0
10
4.849
20
124.495
0
VERTEX
8
L82D0
10
4.802
20
20
0
SEQEND
0
POLYLINE
8
L82D0
70
1
40
0
41
0
66
1
0
VERTEX
8
L82D0
10
5.034
20
20
0
VERTEX
8
L82D0
10
5.08
20
124.495
0
VERTEX
8
L82D0
10
5.28
20
124.495
0
VERTEX
8
L82D0
10
5.326
20
20
0
SEQEND
0
POLYLINE
8
L82D0
70
1
40
0
41
0
66
1
0
VERTEX
8
L82D0
10
5.557
20
20
0
VERTEX
8
L82D0
10
5.511
20
124.495
0
VERTEX
8
L82D0
10
5.821
20
124.495
0
VERTEX
8
L82D0
10
5.775
20
20
0
SEQEND
0
POLYLINE
8
L82D0
70
1
40
0
41
0
66
1
0
VERTEX
8
L82D0
10
6.006
20
20
0
VERTEX
8
L82D0
10
6.052
20
124.495
0
VERTEX
8
L82D0
10
6.252
20
124.495
0
VERTEX
8
L82D0
10
6.298
20
20
0
SEQEND
0
POLYLINE
8
L82D0
70
1
40
0
41
0
66
1
0
VERTEX
8
L82D0
10
6.529
20
20
0
VERTEX
8
L82D0
10
6.483
20
124.495
0
VERTEX
8
L82D0
10
6.793
20
124.495
0
VERTEX
8
L82D0
10
6.747
20
20
0
SEQEND
0
POLYLINE
8
L82D0
70
1
40
0
41
0
66
1
0
VERTEX
8
L82D0
10
6.977
20
20
0
VERTEX
8
L82D0
10
7.024
20
124.495
0
VERTEX
8
L82D0
10
7.224
20
124.495
0
VERTEX
8
L82D0
10
7.271
20
20
0
SEQEND
0
POLYLINE
8
L82D0
70
1
40
0
41
0
66
1
0
VERTEX
8
L82D0
10
7.501
20
20
0
VERTEX
8
L82D0
10
7.455
20
124.495
0
VERTEX
8
L82D0
10
7.765
20
124.495
0
VERTEX
8
L82D0
10
7.719
20
20
0
SEQEND
0
POLYLINE
8
L82D0
70
1
40
0
41
0
66
1
0
VERTEX
8
L82D0
10
7.95
20
20
0
VERTEX
8
L82D0
10
7.996
20
124.495
0
VERTEX
8
L82D0
10
8.196
20
124.495
0
VERTEX
8
L82D0
10
8.242
20
20
0
SEQEND
0
POLYLINE
8
L82D0
70
1
40
0
41
0
66
1
0
VERTEX
8
L82D0
10
8.473
20
20
0
VERTEX
8
L82D0
10
8.427
20
124.495
0
VERTEX
8
L82D0
10
8.737
20
124.495
0
VERTEX
8
L82D0
10
8.691
20
20
0
SEQEND
0
POLYLINE
8
L82D0
70
1
40
0
41
0
66
1
0
VERTEX
8
L82D0
10
8.922
20
20
0
VERTEX
8
L82D0
10
8.968
20
124.495
0
VERTEX
8
L82D0
10
9.168
20
124.495
0
VERTEX
8
L82D0
10
9.214
20
20
0
SEQEND
0
POLYLINE
8
L82D0
70
1
40
0
41
0
66
1
0
VERTEX
8
L82D0
10
9.445
20
20
0
VERTEX
8
L82D0
10
9.399
20
124.495
0
VERTEX
8
L82D0
10
9.709
20
124.495
0
VERTEX
8
L82D0
10
9.663
20
20
0
SEQEND
0
POLYLINE
8
L82D0
70
1
40
0
41
0
66
1
0
VERTEX
8
L82D0
10
9.894
20
20
0
VERTEX
8
L82D0
10
9.94
20
124.495
0
VERTEX
8
L82D0
10
10.14
20
124.495
0
VERTEX
8
L82D0
10
10.186
20
20
0
SEQEND
0
POLYLINE
8
L82D0
70
1
40
0
41
0
66
1
0
VERTEX
8
L82D0
10
10.417
20
20
0
VERTEX
8
L82D0
10
10.371
20
124.495
0
VERTEX
8
L82D0
10
10.681
20
124.495
0
VERTEX
8
L82D0
10
10.635
20
20
0
SEQEND
0
POLYLINE
8
L82D0
70
1
40
0
41
0
66
1
0
VERTEX
8
L82D0
10
10.866
20
20
0
VERTEX
8
L82D0
10
10.912
20
124.495
0
VERTEX
8
L82D0
10
11.112
20
124.495
0
VERTEX
8
L82D0
10
11.158
20
20
0
SEQEND
0
POLYLINE
8
L82D0
70
1
40
0
41
0
66
1
0
VERTEX
8
L82D0
10
11.389
20
20
0
VERTEX
8
L82D0
10
11.343
20
124.495
0
VERTEX
8
L82D0
10
11.653
20
124.495
0
VERTEX
8
L82D0
10
11.607
20
20
0
SEQEND
0
POLYLINE
8
L82D0
70
1
40
0
41
0
66
1
0
VERTEX
8
L82D0
10
11.838
20
20
0
VERTEX
8
L82D0
10
11.884
20
124.495
0
VERTEX
8
L82D0
10
12.084
20
124.495
0
VERTEX
8
L82D0
10
12.13
20
20
0
SEQEND
0
POLYLINE
8
L82D0
70
1
40
0
41
0
66
1
0
VERTEX
8
L82D0
10
12.361
20
20
0
VERTEX
8
L82D0
10
12.315
20
124.495
0
VERTEX
8
L82D0
10
12.625
20
124.495
0
VERTEX
8
L82D0
10
12.579
20
20
0
SEQEND
0
POLYLINE
8
L82D0
70
1
40
0
41
0
66
1
0
VERTEX
8
L82D0
10
12.81
20
20
0
VERTEX
8
L82D0
10
12.856
20
124.495
0
VERTEX
8
L82D0
10
13.056
20
124.495
0
VERTEX
8
L82D0
10
13.102
20
20
0
SEQEND
0
POLYLINE
8
L82D0
70
1
40
0
41
0
66
1
0
VERTEX
8
L82D0
10
13.333
20
20
0
VERTEX
8
L82D0
10
13.287
20
124.495
0
VERTEX
8
L82D0
10
13.597
20
124.495
0
VERTEX
8
L82D0
10
13.551
20
20
0
SEQEND
0
POLYLINE
8
L82D0
70
1
40
0
41
0
66
1
0
VERTEX
8
L82D0
10
13.782
20
20
0
VERTEX
8
L82D0
10
13.828
20
124.495
0
VERTEX
8
L82D0
10
14.028
20
124.495
0
VERTEX
8
L82D0
10
14.074
20
20
0
SEQEND
0
POLYLINE
8
L82D0
70
1
40
0
41
0
66
1
0
VERTEX
8
L82D0
10
14.305
20
20
0
VERTEX
8
L82D0
10
14.259
20
124.495
0
VERTEX
8
L82D0
10
14.569
20
124.495
0
VERTEX
8
L82D0
10
14.523
20
20
0
SEQEND
0
POLYLINE
8
L82D0
70
1
40
0
41
0
66
1
0
VERTEX
8
L82D0
10
14.754
20
20
0
VERTEX
8
L82D0
10
14.8
20
124.495
0
VERTEX
8
L82D0
10
15
20
124.495
0
VERTEX
8
L82D0
10
15.046
20
20
0
SEQEND
0
POLYLINE
8
L82D0
70
1
40
0
41
0
66
1
0
VERTEX
8
L82D0
10
15.277
20
20
0
VERTEX
8
L82D0
10
15.231
20
124.495
0
VERTEX
8
L82D0
10
15.541
20
124.495
0
VERTEX
8
L82D0
10
15.495
20
20
0
SEQEND
0
POLYLINE
8
L82D0
70
1
40
0
41
0
66
1
0
VERTEX
8
L82D0
10
15.726
20
20
0
VERTEX
8
L82D0
10
15.772
20
124.495
0
VERTEX
8
L82D0
10
15.972
20
124.495
0
VERTEX
8
L82D0
10
16.018
20
20
0
SEQEND
0
POLYLINE
8
L82D0
70
1
40
0
41
0
66
1
0
VERTEX
8
L82D0
10
16.249
20
20
0
VERTEX
8
L82D0
10
16.203
20
124.495
0
VERTEX
8
L82D0
10
16.513
20
124.495
0
VERTEX
8
L82D0
10
16.467
20
20
0
SEQEND
0
POLYLINE
8
L82D0
70
1
40
0
41
0
66
1
0
VERTEX
8
L82D0
10
16.698
20
20
0
VERTEX
8
L82D0
10
16.744
20
124.495
0
VERTEX
8
L82D0
10
16.944
20
124.495
0
VERTEX
8
L82D0
10
16.99
20
20
0
SEQEND
0
POLYLINE
8
L82D0
70
1
40
0
41
0
66
1
0
VERTEX
8
L82D0
10
17.221
20
20
0
VERTEX
8
L82D0
10
17.175
20
124.495
0
VERTEX
8
L82D0
10
17.485
20
124.495
0
VERTEX
8
L82D0
10
17.439
20
20
0
SEQEND
0
POLYLINE
8
L82D0
70
1
40
0
41
0
66
1
0
VERTEX
8
L82D0
10
17.67
20
20
0
VERTEX
8
L82D0
10
17.716
20
124.495
0
VERTEX
8
L82D0
10
17.916
20
124.495
0
VERTEX
8
L82D0
10
17.962
20
20
0
SEQEND
0
POLYLINE
8
L82D0
70
1
40
0
41
0
66
1
0
VERTEX
8
L82D0
10
18.193
20
20
0
VERTEX
8
L82D0
10
18.147
20
124.495
0
VERTEX
8
L82D0
10
18.457
20
124.495
0
VERTEX
8
L82D0
10
18.411
20
20
0
SEQEND
0
POLYLINE
8
L82D0
70
1
40
0
41
0
66
1
0
VERTEX
8
L82D0
10
18.642
20
20
0
VERTEX
8
L82D0
10
18.688
20
124.495
0
VERTEX
8
L82D0
10
18.888
20
124.495
0
VERTEX
8
L82D0
10
18.934
20
20
0
SEQEND
0
POLYLINE
8
L82D0
70
1
40
0
41
0
66
1
0
VERTEX
8
L82D0
10
19.165
20
20
0
VERTEX
8
L82D0
10
19.119
20
124.495
0
VERTEX
8
L82D0
10
19.429
20
124.495
0
VERTEX
8
L82D0
10
19.383
20
20
0
SEQEND
0
POLYLINE
8
L82D0
70
1
40
0
41
0
66
1
0
VERTEX
8
L82D0
10
19.614
20
20
0
VERTEX
8
L82D0
10
19.66
20
124.495
0
VERTEX
8
L82D0
10
19.86
20
124.495
0
VERTEX
8
L82D0
10
19.906
20
20
0
SEQEND
0
POLYLINE
8
L82D0
70
1
40
0
41
0
66
1
0
VERTEX
8
L82D0
10
20.137
20
20
0
VERTEX
8
L82D0
10
20.091
20
124.495
0
VERTEX
8
L82D0
10
20.401
20
124.495
0
VERTEX
8
L82D0
10
20.355
20
20
0
SEQEND
0
POLYLINE
8
L82D0
70
1
40
0
41
0
66
1
0
VERTEX
8
L82D0
10
20.586
20
20
0
VERTEX
8
L82D0
10
20.632
20
124.495
0
VERTEX
8
L82D0
10
20.832
20
124.495
0
VERTEX
8
L82D0
10
20.878
20
20
0
SEQEND
0
POLYLINE
8
L82D0
70
1
40
0
41
0
66
1
0
VERTEX
8
L82D0
10
21.109
20
20
0
VERTEX
8
L82D0
10
21.063
20
124.495
0
VERTEX
8
L82D0
10
21.373
20
124.495
0
VERTEX
8
L82D0
10
21.327
20
20
0
SEQEND
0
POLYLINE
8
L82D0
70
1
40
0
41
0
66
1
0
VERTEX
8
L82D0
10
21.558
20
20
0
VERTEX
8
L82D0
10
21.604
20
124.495
0
VERTEX
8
L82D0
10
21.804
20
124.495
0
VERTEX
8
L82D0
10
21.85
20
20
0
SEQEND
0
POLYLINE
8
L82D0
70
1
40
0
41
0
66
1
0
VERTEX
8
L82D0
10
22.081
20
20
0
VERTEX
8
L82D0
10
22.035
20
124.495
0
VERTEX
8
L82D0
10
22.345
20
124.495
0
VERTEX
8
L82D0
10
22.299
20
20
0
SEQEND
0
POLYLINE
8
L82D0
70
1
40
0
41
0
66
1
0
VERTEX
8
L82D0
10
22.53
20
20
0
VERTEX
8
L82D0
10
22.576
20
124.495
0
VERTEX
8
L82D0
10
22.776
20
124.495
0
VERTEX
8
L82D0
10
22.822
20
20
0
SEQEND
0
POLYLINE
8
L82D0
70
1
40
0
41
0
66
1
0
VERTEX
8
L82D0
10
23.053
20
20
0
VERTEX
8
L82D0
10
23.007
20
124.495
0
VERTEX
8
L82D0
10
23.317
20
124.495
0
VERTEX
8
L82D0
10
23.271
20
20
0
SEQEND
0
POLYLINE
8
L82D0
70
1
40
0
41
0
66
1
0
VERTEX
8
L82D0
10
23.502
20
20
0
VERTEX
8
L82D0
10
23.548
20
124.495
0
VERTEX
8
L82D0
10
23.748
20
124.495
0
VERTEX
8
L82D0
10
23.794
20
20
0
SEQEND
0
POLYLINE
8
L82D0
70
1
40
0
41
0
66
1
0
VERTEX
8
L82D0
10
24.025
20
20
0
VERTEX
8
L82D0
10
23.979
20
124.495
0
VERTEX
8
L82D0
10
24.289
20
124.495
0
VERTEX
8
L82D0
10
24.243
20
20
0
SEQEND
0
POLYLINE
8
L82D0
70
1
40
0
41
0
66
1
0
VERTEX
8
L82D0
10
24.474
20
20
0
VERTEX
8
L82D0
10
24.52
20
124.495
0
VERTEX
8
L82D0
10
24.72
20
124.495
0
VERTEX
8
L82D0
10
24.766
20
20
0
SEQEND
0
POLYLINE
8
L82D0
70
1
40
0
41
0
66
1
0
VERTEX
8
L82D0
10
24.997
20
20
0
VERTEX
8
L82D0
10
24.951
20
124.495
0
VERTEX
8
L82D0
10
25.261
20
124.495
0
VERTEX
8
L82D0
10
25.215
20
20
0
SEQEND
0
POLYLINE
8
L82D0
70
1
40
0
41
0
66
1
0
VERTEX
8
L82D0
10
25.446
20
20
0
VERTEX
8
L82D0
10
25.492
20
124.495
0
VERTEX
8
L82D0
10
25.692
20
124.495
0
VERTEX
8
L82D0
10
25.738
20
20
0
SEQEND
0
POLYLINE
8
L82D0
70
1
40
0
41
0
66
1
0
VERTEX
8
L82D0
10
25.969
20
20
0
VERTEX
8
L82D0
10
25.923
20
124.495
0
VERTEX
8
L82D0
10
26.233
20
124.495
0
VERTEX
8
L82D0
10
26.187
20
20
0
SEQEND
0
POLYLINE
8
L82D0
70
1
40
0
41
0
66
1
0
VERTEX
8
L82D0
10
26.418
20
20
0
VERTEX
8
L82D0
10
26.464
20
124.495
0
VERTEX
8
L82D0
10
26.664
20
124.495
0
VERTEX
8
L82D0
10
26.71
20
20
0
SEQEND
0
POLYLINE
8
L82D0
70
1
40
0
41
0
66
1
0
VERTEX
8
L82D0
10
26.941
20
20
0
VERTEX
8
L82D0
10
26.895
20
124.495
0
VERTEX
8
L82D0
10
27.205
20
124.495
0
VERTEX
8
L82D0
10
27.159
20
20
0
SEQEND
0
POLYLINE
8
L82D0
70
1
40
0
41
0
66
1
0
VERTEX
8
L82D0
10
27.39
20
20
0
VERTEX
8
L82D0
10
27.436
20
124.495
0
VERTEX
8
L82D0
10
27.636
20
124.495
0
VERTEX
8
L82D0
10
27.682
20
20
0
SEQEND
0
POLYLINE
8
L82D0
70
1
40
0
41
0
66
1
0
VERTEX
8
L82D0
10
27.913
20
20
0
VERTEX
8
L82D0
10
27.867
20
124.495
0
VERTEX
8
L82D0
10
28.177
20
124.495
0
VERTEX
8
L82D0
10
28.131
20
20
0
SEQEND
0
POLYLINE
8
L82D0
70
1
40
0
41
0
66
1
0
VERTEX
8
L82D0
10
28.362
20
20
0
VERTEX
8
L82D0
10
28.408
20
124.495
0
VERTEX
8
L82D0
10
28.608
20
124.495
0
VERTEX
8
L82D0
10
28.654
20
20
0
SEQEND
0
POLYLINE
8
L82D0
70
1
40
0
41
0
66
1
0
VERTEX
8
L82D0
10
28.885
20
20
0
VERTEX
8
L82D0
10
28.839
20
124.495
0
VERTEX
8
L82D0
10
29.149
20
124.495
0
VERTEX
8
L82D0
10
29.103
20
20
0
SEQEND
0
POLYLINE
8
L82D0
70
1
40
0
41
0
66
1
0
VERTEX
8
L82D0
10
29.334
20
20
0
VERTEX
8
L82D0
10
29.38
20
124.495
0
VERTEX
8
L82D0
10
29.58
20
124.495
0
VERTEX
8
L82D0
10
29.626
20
20
0
SEQEND
0
POLYLINE
8
L82D0
70
1
40
0
41
0
66
1
0
VERTEX
8
L82D0
10
29.857
20
20
0
VERTEX
8
L82D0
10
29.811
20
124.495
0
VERTEX
8
L82D0
10
30.121
20
124.495
0
VERTEX
8
L82D0
10
30.075
20
20
0
SEQEND
0
POLYLINE
8
L82D0
70
1
40
0
41
0
66
1
0
VERTEX
8
L82D0
10
30.306
20
20
0
VERTEX
8
L82D0
10
30.352
20
124.495
0
VERTEX
8
L82D0
10
30.552
20
124.495
0
VERTEX
8
L82D0
10
30.598
20
20
0
SEQEND
0
POLYLINE
8
L82D0
70
1
40
0
41
0
66
1
0
VERTEX
8
L82D0
10
30.829
20
20
0
VERTEX
8
L82D0
10
30.783
20
124.495
0
VERTEX
8
L82D0
10
31.093
20
124.495
0
VERTEX
8
L82D0
10
31.047
20
20
0
SEQEND
0
POLYLINE
8
L82D0
70
1
40
0
41
0
66
1
0
VERTEX
8
L82D0
10
31.278
20
20
0
VERTEX
8
L82D0
10
31.324
20
124.495
0
VERTEX
8
L82D0
10
31.524
20
124.495
0
VERTEX
8
L82D0
10
31.57
20
20
0
SEQEND
0
POLYLINE
8
L82D0
70
1
40
0
41
0
66
1
0
VERTEX
8
L82D0
10
31.801
20
20
0
VERTEX
8
L82D0
10
31.755
20
124.495
0
VERTEX
8
L82D0
10
32.065
20
124.495
0
VERTEX
8
L82D0
10
32.019
20
20
0
SEQEND
0
POLYLINE
8
L82D0
70
1
40
0
41
0
66
1
0
VERTEX
8
L82D0
10
32.25
20
20
0
VERTEX
8
L82D0
10
32.296
20
124.495
0
VERTEX
8
L82D0
10
32.496
20
124.495
0
VERTEX
8
L82D0
10
32.542
20
20
0
SEQEND
0
POLYLINE
8
L82D0
70
1
40
0
41
0
66
1
0
VERTEX
8
L82D0
10
32.773
20
20
0
VERTEX
8
L82D0
10
32.727
20
124.495
0
VERTEX
8
L82D0
10
33.037
20
124.495
0
VERTEX
8
L82D0
10
32.991
20
20
0
SEQEND
0
POLYLINE
8
L82D0
70
1
40
0
41
0
66
1
0
VERTEX
8
L82D0
10
33.222
20
20
0
VERTEX
8
L82D0
10
33.268
20
124.495
0
VERTEX
8
L82D0
10
33.468
20
124.495
0
VERTEX
8
L82D0
10
33.514
20
20
0
SEQEND
0
POLYLINE
8
L82D0
70
1
40
0
41
0
66
1
0
VERTEX
8
L82D0
10
33.745
20
20
0
VERTEX
8
L82D0
10
33.699
20
124.495
0
VERTEX
8
L82D0
10
34.009
20
124.495
0
VERTEX
8
L82D0
10
33.963
20
20
0
SEQEND
0
POLYLINE
8
L82D0
70
1
40
0
41
0
66
1
0
VERTEX
8
L82D0
10
34.194
20
20
0
VERTEX
8
L82D0
10
34.24
20
124.495
0
VERTEX
8
L82D0
10
34.44
20
124.495
0
VERTEX
8
L82D0
10
34.486
20
20
0
SEQEND
0
POLYLINE
8
L82D0
70
1
40
0
41
0
66
1
0
VERTEX
8
L82D0
10
34.717
20
20
0
VERTEX
8
L82D0
10
34.671
20
124.495
0
VERTEX
8
L82D0
10
34.981
20
124.495
0
VERTEX
8
L82D0
10
34.935
20
20
0
SEQEND
0
POLYLINE
8
L82D0
70
1
40
0
41
0
66
1
0
VERTEX
8
L82D0
10
35.166
20
20
0
VERTEX
8
L82D0
10
35.212
20
124.495
0
VERTEX
8
L82D0
10
35.412
20
124.495
0
VERTEX
8
L82D0
10
35.458
20
20
0
SEQEND
0
POLYLINE
8
L82D0
70
1
40
0
41
0
66
1
0
VERTEX
8
L82D0
10
35.689
20
20
0
VERTEX
8
L82D0
10
35.643
20
124.495
0
VERTEX
8
L82D0
10
35.953
20
124.495
0
VERTEX
8
L82D0
10
35.907
20
20
0
SEQEND
0
POLYLINE
8
L82D0
70
1
40
0
41
0
66
1
0
VERTEX
8
L82D0
10
36.138
20
20
0
VERTEX
8
L82D0
10
36.184
20
124.495
0
VERTEX
8
L82D0
10
36.384
20
124.495
0
VERTEX
8
L82D0
10
36.43
20
20
0
SEQEND
0
POLYLINE
8
L82D0
70
1
40
0
41
0
66
1
0
VERTEX
8
L82D0
10
36.661
20
20
0
VERTEX
8
L82D0
10
36.615
20
124.495
0
VERTEX
8
L82D0
10
36.925
20
124.495
0
VERTEX
8
L82D0
10
36.879
20
20
0
SEQEND
0
POLYLINE
8
L82D0
70
1
40
0
41
0
66
1
0
VERTEX
8
L82D0
10
37.11
20
20
0
VERTEX
8
L82D0
10
37.156
20
124.495
0
VERTEX
8
L82D0
10
37.356
20
124.495
0
VERTEX
8
L82D0
10
37.402
20
20
0
SEQEND
0
POLYLINE
8
L82D0
70
1
40
0
41
0
66
1
0
VERTEX
8
L82D0
10
37.633
20
20
0
VERTEX
8
L82D0
10
37.587
20
124.495
0
VERTEX
8
L82D0
10
37.897
20
124.495
0
VERTEX
8
L82D0
10
37.851
20
20
0
SEQEND
0
POLYLINE
8
L82D0
70
1
40
0
41
0
66
1
0
VERTEX
8
L82D0
10
38.082
20
20
0
VERTEX
8
L82D0
10
38.128
20
124.495
0
VERTEX
8
L82D0
10
38.328
20
124.495
0
VERTEX
8
L82D0
10
38.374
20
20
0
SEQEND
0
POLYLINE
8
L82D0
70
1
40
0
41
0
66
1
0
VERTEX
8
L82D0
10
38.605
20
20
0
VERTEX
8
L82D0
10
38.559
20
124.495
0
VERTEX
8
L82D0
10
38.869
20
124.495
0
VERTEX
8
L82D0
10
38.823
20
20
0
SEQEND
0
POLYLINE
8
L82D0
70
1
40
0
41
0
66
1
0
VERTEX
8
L82D0
10
39.054
20
20
0
VERTEX
8
L82D0
10
39.1
20
124.495
0
VERTEX
8
L82D0
10
39.3
20
124.495
0
VERTEX
8
L82D0
10
39.346
20
20
0
SEQEND
0
POLYLINE
8
L82D0
70
1
40
0
41
0
66
1
0
VERTEX
8
L82D0
10
39.577
20
20
0
VERTEX
8
L82D0
10
39.531
20
124.495
0
VERTEX
8
L82D0
10
39.841
20
124.495
0
VERTEX
8
L82D0
10
39.795
20
20
0
SEQEND
0
POLYLINE
8
L82D0
70
1
40
0
41
0
66
1
0
VERTEX
8
L82D0
10
40.026
20
20
0
VERTEX
8
L82D0
10
40.072
20
124.495
0
VERTEX
8
L82D0
10
40.272
20
124.495
0
VERTEX
8
L82D0
10
40.318
20
20
0
SEQEND
0
POLYLINE
8
L82D0
70
1
40
0
41
0
66
1
0
VERTEX
8
L82D0
10
40.549
20
20
0
VERTEX
8
L82D0
10
40.503
20
124.495
0
VERTEX
8
L82D0
10
40.813
20
124.495
0
VERTEX
8
L82D0
10
40.767
20
20
0
SEQEND
0
POLYLINE
8
L82D0
70
1
40
0
41
0
66
1
0
VERTEX
8
L82D0
10
40.998
20
20
0
VERTEX
8
L82D0
10
41.044
20
124.495
0
VERTEX
8
L82D0
10
41.244
20
124.495
0
VERTEX
8
L82D0
10
41.29
20
20
0
SEQEND
0
POLYLINE
8
L82D0
70
1
40
0
41
0
66
1
0
VERTEX
8
L82D0
10
41.521
20
20
0
VERTEX
8
L82D0
10
41.475
20
124.495
0
VERTEX
8
L82D0
10
41.785
20
124.495
0
VERTEX
8
L82D0
10
41.739
20
20
0
SEQEND
0
POLYLINE
8
L82D0
70
1
40
0
41
0
66
1
0
VERTEX
8
L82D0
10
41.97
20
20
0
VERTEX
8
L82D0
10
42.016
20
124.495
0
VERTEX
8
L82D0
10
42.216
20
124.495
0
VERTEX
8
L82D0
10
42.262
20
20
0
SEQEND
0
POLYLINE
8
L82D0
70
1
40
0
41
0
66
1
0
VERTEX
8
L82D0
10
42.493
20
20
0
VERTEX
8
L82D0
10
42.447
20
124.495
0
VERTEX
8
L82D0
10
42.757
20
124.495
0
VERTEX
8
L82D0
10
42.711
20
20
0
SEQEND
0
POLYLINE
8
L82D0
70
1
40
0
41
0
66
1
0
VERTEX
8
L82D0
10
42.942
20
20
0
VERTEX
8
L82D0
10
42.988
20
124.495
0
VERTEX
8
L82D0
10
43.188
20
124.495
0
VERTEX
8
L82D0
10
43.234
20
20
0
SEQEND
0
POLYLINE
8
L82D0
70
1
40
0
41
0
66
1
0
VERTEX
8
L82D0
10
43.465
20
20
0
VERTEX
8
L82D0
10
43.419
20
124.495
0
VERTEX
8
L82D0
10
43.729
20
124.495
0
VERTEX
8
L82D0
10
43.683
20
20
0
SEQEND
0
POLYLINE
8
L82D0
70
1
40
0
41
0
66
1
0
VERTEX
8
L82D0
10
43.914
20
20
0
VERTEX
8
L82D0
10
43.96
20
124.495
0
VERTEX
8
L82D0
10
44.16
20
124.495
0
VERTEX
8
L82D0
10
44.206
20
20
0
SEQEND
0
POLYLINE
8
L82D0
70
1
40
0
41
0
66
1
0
VERTEX
8
L82D0
10
44.437
20
20
0
VERTEX
8
L82D0
10
44.391
20
124.495
0
VERTEX
8
L82D0
10
44.701
20
124.495
0
VERTEX
8
L82D0
10
44.655
20
20
0
SEQEND
0
POLYLINE
8
L82D0
70
1
40
0
41
0
66
1
0
VERTEX
8
L82D0
10
44.886
20
20
0
VERTEX
8
L82D0
10
44.932
20
124.495
0
VERTEX
8
L82D0
10
45.132
20
124.495
0
VERTEX
8
L82D0
10
45.178
20
20
0
SEQEND
0
POLYLINE
8
L82D0
70
1
40
0
41
0
66
1
0
VERTEX
8
L82D0
10
45.409
20
20
0
VERTEX
8
L82D0
10
45.363
20
124.495
0
VERTEX
8
L82D0
10
45.673
20
124.495
0
VERTEX
8
L82D0
10
45.627
20
20
0
SEQEND
0
POLYLINE
8
L82D0
70
1
40
0
41
0
66
1
0
VERTEX
8
L82D0
10
45.858
20
20
0
VERTEX
8
L82D0
10
45.904
20
124.495
0
VERTEX
8
L82D0
10
46.104
20
124.495
0
VERTEX
8
L82D0
10
46.15
20
20
0
SEQEND
0
POLYLINE
8
L82D0
70
1
40
0
41
0
66
1
0
VERTEX
8
L82D0
10
46.381
20
20
0
VERTEX
8
L82D0
10
46.335
20
124.495
0
VERTEX
8
L82D0
10
46.645
20
124.495
0
VERTEX
8
L82D0
10
46.599
20
20
0
SEQEND
0
POLYLINE
8
L82D0
70
1
40
0
41
0
66
1
0
VERTEX
8
L82D0
10
46.83
20
20
0
VERTEX
8
L82D0
10
46.876
20
124.495
0
VERTEX
8
L82D0
10
47.076
20
124.495
0
VERTEX
8
L82D0
10
47.122
20
20
0
SEQEND
0
POLYLINE
8
L82D0
70
1
40
0
41
0
66
1
0
VERTEX
8
L82D0
10
47.353
20
20
0
VERTEX
8
L82D0
10
47.307
20
124.495
0
VERTEX
8
L82D0
10
47.617
20
124.495
0
VERTEX
8
L82D0
10
47.571
20
20
0
SEQEND
0
POLYLINE
8
L82D0
70
1
40
0
41
0
66
1
0
VERTEX
8
L82D0
10
47.802
20
20
0
VERTEX
8
L82D0
10
47.848
20
124.495
0
VERTEX
8
L82D0
10
48.048
20
124.495
0
VERTEX
8
L82D0
10
48.094
20
20
0
SEQEND
0
POLYLINE
8
L82D0
70
1
40
0
41
0
66
1
0
VERTEX
8
L82D0
10
48.325
20
20
0
VERTEX
8
L82D0
10
48.279
20
124.495
0
VERTEX
8
L82D0
10
48.589
20
124.495
0
VERTEX
8
L82D0
10
48.543
20
20
0
SEQEND
0
POLYLINE
8
L82D0
70
1
40
0
41
0
66
1
0
VERTEX
8
L82D0
10
48.774
20
20
0
VERTEX
8
L82D0
10
48.82
20
124.495
0
VERTEX
8
L82D0
10
49.02
20
124.495
0
VERTEX
8
L82D0
10
49.066
20
20
0
SEQEND
0
POLYLINE
8
L82D0
70
1
40
0
41
0
66
1
0
VERTEX
8
L82D0
10
49.297
20
20
0
VERTEX
8
L82D0
10
49.251
20
124.495
0
VERTEX
8
L82D0
10
49.561
20
124.495
0
VERTEX
8
L82D0
10
49.515
20
20
0
SEQEND
0
POLYLINE
8
L82D0
70
1
40
0
41
0
66
1
0
VERTEX
8
L82D0
10
49.746
20
20
0
VERTEX
8
L82D0
10
49.792
20
124.495
0
VERTEX
8
L82D0
10
49.992
20
124.495
0
VERTEX
8
L82D0
10
50.038
20
20
0
SEQEND
0
POLYLINE
8
L82D0
70
1
40
0
41
0
66
1
0
VERTEX
8
L82D0
10
50.269
20
20
0
VERTEX
8
L82D0
10
50.223
20
124.495
0
VERTEX
8
L82D0
10
50.533
20
124.495
0
VERTEX
8
L82D0
10
50.487
20
20
0
SEQEND
0
POLYLINE
8
L82D0
70
1
40
0
41
0
66
1
0
VERTEX
8
L82D0
10
50.718
20
20
0
VERTEX
8
L82D0
10
50.764
20
124.495
0
VERTEX
8
L82D0
10
50.964
20
124.495
0
VERTEX
8
L82D0
10
51.01
20
20
0
SEQEND
0
POLYLINE
8
L82D0
70
1
40
0
41
0
66
1
0
VERTEX
8
L82D0
10
51.241
20
20
0
VERTEX
8
L82D0
10
51.195
20
124.495
0
VERTEX
8
L82D0
10
51.505
20
124.495
0
VERTEX
8
L82D0
10
51.459
20
20
0
SEQEND
0
POLYLINE
8
L82D0
70
1
40
0
41
0
66
1
0
VERTEX
8
L82D0
10
51.69
20
20
0
VERTEX
8
L82D0
10
51.736
20
124.495
0
VERTEX
8
L82D0
10
51.936
20
124.495
0
VERTEX
8
L82D0
10
51.982
20
20
0
SEQEND
0
POLYLINE
8
L82D0
70
1
40
0
41
0
66
1
0
VERTEX
8
L82D0
10
52.213
20
20
0
VERTEX
8
L82D0
10
52.167
20
124.495
0
VERTEX
8
L82D0
10
52.477
20
124.495
0
VERTEX
8
L82D0
10
52.431
20
20
0
SEQEND
0
POLYLINE
8
L82D0
70
1
40
0
41
0
66
1
0
VERTEX
8
L82D0
10
52.662
20
20
0
VERTEX
8
L82D0
10
52.708
20
124.495
0
VERTEX
8
L82D0
10
52.908
20
124.495
0
VERTEX
8
L82D0
10
52.954
20
20
0
SEQEND
0
POLYLINE
8
L82D0
70
1
40
0
41
0
66
1
0
VERTEX
8
L82D0
10
53.185
20
20
0
VERTEX
8
L82D0
10
53.139
20
124.495
0
VERTEX
8
L82D0
10
53.449
20
124.495
0
VERTEX
8
L82D0
10
53.403
20
20
0
SEQEND
0
POLYLINE
8
L82D0
70
1
40
0
41
0
66
1
0
VERTEX
8
L82D0
10
53.634
20
20
0
VERTEX
8
L82D0
10
53.68
20
124.495
0
VERTEX
8
L82D0
10
53.88
20
124.495
0
VERTEX
8
L82D0
10
53.926
20
20
0
SEQEND
0
POLYLINE
8
L82D0
70
1
40
0
41
0
66
1
0
VERTEX
8
L82D0
10
54.157
20
20
0
VERTEX
8
L82D0
10
54.111
20
124.495
0
VERTEX
8
L82D0
10
54.421
20
124.495
0
VERTEX
8
L82D0
10
54.375
20
20
0
SEQEND
0
POLYLINE
8
L82D0
70
1
40
0
41
0
66
1
0
VERTEX
8
L82D0
10
54.606
20
20
0
VERTEX
8
L82D0
10
54.652
20
124.495
0
VERTEX
8
L82D0
10
54.852
20
124.495
0
VERTEX
8
L82D0
10
54.898
20
20
0
SEQEND
0
POLYLINE
8
L82D0
70
1
40
0
41
0
66
1
0
VERTEX
8
L82D0
10
55.129
20
20
0
VERTEX
8
L82D0
10
55.083
20
124.495
0
VERTEX
8
L82D0
10
55.393
20
124.495
0
VERTEX
8
L82D0
10
55.347
20
20
0
SEQEND
0
POLYLINE
8
L82D0
70
1
40
0
41
0
66
1
0
VERTEX
8
L82D0
10
55.578
20
20
0
VERTEX
8
L82D0
10
55.624
20
124.495
0
VERTEX
8
L82D0
10
55.824
20
124.495
0
VERTEX
8
L82D0
10
55.87
20
20
0
SEQEND
0
POLYLINE
8
L82D0
70
1
40
0
41
0
66
1
0
VERTEX
8
L82D0
10
56.101
20
20
0
VERTEX
8
L82D0
10
56.055
20
124.495
0
VERTEX
8
L82D0
10
56.365
20
124.495
0
VERTEX
8
L82D0
10
56.319
20
20
0
SEQEND
0
POLYLINE
8
L82D0
70
1
40
0
41
0
66
1
0
VERTEX
8
L82D0
10
56.55
20
20
0
VERTEX
8
L82D0
10
56.596
20
124.495
0
VERTEX
8
L82D0
10
56.796
20
124.495
0
VERTEX
8
L82D0
10
56.842
20
20
0
SEQEND
0
POLYLINE
8
L82D0
70
1
40
0
41
0
66
1
0
VERTEX
8
L82D0
10
57.073
20
20
0
VERTEX
8
L82D0
10
57.027
20
124.495
0
VERTEX
8
L82D0
10
57.337
20
124.495
0
VERTEX
8
L82D0
10
57.291
20
20
0
SEQEND
0
POLYLINE
8
L82D0
70
1
40
0
41
0
66
1
0
VERTEX
8
L82D0
10
57.522
20
20
0
VERTEX
8
L82D0
10
57.568
20
124.495
0
VERTEX
8
L82D0
10
57.768
20
124.495
0
VERTEX
8
L82D0
10
57.814
20
20
0
SEQEND
0
POLYLINE
8
L82D0
70
1
40
0
41
0
66
1
0
VERTEX
8
L82D0
10
58.045
20
20
0
VERTEX
8
L82D0
10
57.999
20
124.495
0
VERTEX
8
L82D0
10
58.309
20
124.495
0
VERTEX
8
L82D0
10
58.263
20
20
0
SEQEND
0
POLYLINE
8
L82D0
70
1
40
0
41
0
66
1
0
VERTEX
8
L82D0
10
58.494
20
20
0
VERTEX
8
L82D0
10
58.54
20
124.495
0
VERTEX
8
L82D0
10
58.74
20
124.495
0
VERTEX
8
L82D0
10
58.786
20
20
0
SEQEND
0
POLYLINE
8
L82D0
70
1
40
0
41
0
66
1
0
VERTEX
8
L82D0
10
59.017
20
20
0
VERTEX
8
L82D0
10
58.971
20
124.495
0
VERTEX
8
L82D0
10
59.281
20
124.495
0
VERTEX
8
L82D0
10
59.235
20
20
0
SEQEND
0
POLYLINE
8
L82D0
70
1
40
0
41
0
66
1
0
VERTEX
8
L82D0
10
59.466
20
20
0
VERTEX
8
L82D0
10
59.512
20
124.495
0
VERTEX
8
L82D0
10
59.712
20
124.495
0
VERTEX
8
L82D0
10
59.758
20
20
0
SEQEND
0
POLYLINE
8
L82D0
70
1
40
0
41
0
66
1
0
VERTEX
8
L82D0
10
59.989
20
20
0
VERTEX
8
L82D0
10
59.943
20
124.495
0
VERTEX
8
L82D0
10
60.253
20
124.495
0
VERTEX
8
L82D0
10
60.207
20
20
0
SEQEND
0
POLYLINE
8
L82D0
70
1
40
0
41
0
66
1
0
VERTEX
8
L82D0
10
60.438
20
20
0
VERTEX
8
L82D0
10
60.484
20
124.495
0
VERTEX
8
L82D0
10
60.684
20
124.495
0
VERTEX
8
L82D0
10
60.73
20
20
0
SEQEND
0
POLYLINE
8
L82D0
70
1
40
0
41
0
66
1
0
VERTEX
8
L82D0
10
60.961
20
20
0
VERTEX
8
L82D0
10
60.915
20
124.495
0
VERTEX
8
L82D0
10
61.225
20
124.495
0
VERTEX
8
L82D0
10
61.179
20
20
0
SEQEND
0
POLYLINE
8
L82D0
70
1
40
0
41
0
66
1
0
VERTEX
8
L82D0
10
61.41
20
20
0
VERTEX
8
L82D0
10
61.456
20
124.495
0
VERTEX
8
L82D0
10
61.656
20
124.495
0
VERTEX
8
L82D0
10
61.702
20
20
0
SEQEND
0
POLYLINE
8
L82D0
70
1
40
0
41
0
66
1
0
VERTEX
8
L82D0
10
61.933
20
20
0
VERTEX
8
L82D0
10
61.887
20
124.495
0
VERTEX
8
L82D0
10
62.197
20
124.495
0
VERTEX
8
L82D0
10
62.151
20
20
0
SEQEND
0
POLYLINE
8
L82D0
70
1
40
0
41
0
66
1
0
VERTEX
8
L82D0
10
62.382
20
20
0
VERTEX
8
L82D0
10
62.428
20
124.495
0
VERTEX
8
L82D0
10
62.628
20
124.495
0
VERTEX
8
L82D0
10
62.674
20
20
0
SEQEND
0
POLYLINE
8
L82D0
70
1
40
0
41
0
66
1
0
VERTEX
8
L82D0
10
62.905
20
20
0
VERTEX
8
L82D0
10
62.859
20
124.495
0
VERTEX
8
L82D0
10
63.169
20
124.495
0
VERTEX
8
L82D0
10
63.123
20
20
0
SEQEND
0
POLYLINE
8
L82D0
70
1
40
0
41
0
66
1
0
VERTEX
8
L82D0
10
63.354
20
20
0
VERTEX
8
L82D0
10
63.4
20
124.495
0
VERTEX
8
L82D0
10
63.6
20
124.495
0
VERTEX
8
L82D0
10
63.646
20
20
0
SEQEND
0
POLYLINE
8
L82D0
70
1
40
0
41
0
66
1
0
VERTEX
8
L82D0
10
63.877
20
20
0
VERTEX
8
L82D0
10
63.831
20
124.495
0
VERTEX
8
L82D0
10
64.141
20
124.495
0
VERTEX
8
L82D0
10
64.095
20
20
0
SEQEND
0
POLYLINE
8
L82D0
70
1
40
0
41
0
66
1
0
VERTEX
8
L82D0
10
64.326
20
20
0
VERTEX
8
L82D0
10
64.372
20
124.495
0
VERTEX
8
L82D0
10
64.572
20
124.495
0
VERTEX
8
L82D0
10
64.618
20
20
0
SEQEND
0
POLYLINE
8
L82D0
70
1
40
0
41
0
66
1
0
VERTEX
8
L82D0
10
64.849
20
20
0
VERTEX
8
L82D0
10
64.803
20
124.495
0
VERTEX
8
L82D0
10
65.113
20
124.495
0
VERTEX
8
L82D0
10
65.067
20
20
0
SEQEND
0
POLYLINE
8
L82D0
70
1
40
0
41
0
66
1
0
VERTEX
8
L82D0
10
65.298
20
20
0
VERTEX
8
L82D0
10
65.344
20
124.495
0
VERTEX
8
L82D0
10
65.544
20
124.495
0
VERTEX
8
L82D0
10
65.59
20
20
0
SEQEND
0
POLYLINE
8
L82D0
70
1
40
0
41
0
66
1
0
VERTEX
8
L82D0
10
65.821
20
20
0
VERTEX
8
L82D0
10
65.775
20
124.495
0
VERTEX
8
L82D0
10
66.085
20
124.495
0
VERTEX
8
L82D0
10
66.039
20
20
0
SEQEND
0
POLYLINE
8
L82D0
70
1
40
0
41
0
66
1
0
VERTEX
8
L82D0
10
66.27
20
20
0
VERTEX
8
L82D0
10
66.316
20
124.495
0
VERTEX
8
L82D0
10
66.516
20
124.495
0
VERTEX
8
L82D0
10
66.562
20
20
0
SEQEND
0
POLYLINE
8
L82D0
70
1
40
0
41
0
66
1
0
VERTEX
8
L82D0
10
66.793
20
20
0
VERTEX
8
L82D0
10
66.747
20
124.495
0
VERTEX
8
L82D0
10
67.057
20
124.495
0
VERTEX
8
L82D0
10
67.011
20
20
0
SEQEND
0
POLYLINE
8
L82D0
70
1
40
0
41
0
66
1
0
VERTEX
8
L82D0
10
67.242
20
20
0
VERTEX
8
L82D0
10
67.288
20
124.495
0
VERTEX
8
L82D0
10
67.488
20
124.495
0
VERTEX
8
L82D0
10
67.534
20
20
0
SEQEND
0
POLYLINE
8
L82D0
70
1
40
0
41
0
66
1
0
VERTEX
8
L82D0
10
67.765
20
20
0
VERTEX
8
L82D0
10
67.719
20
124.495
0
VERTEX
8
L82D0
10
68.029
20
124.495
0
VERTEX
8
L82D0
10
67.983
20
20
0
SEQEND
0
POLYLINE
8
L82D0
70
1
40
0
41
0
66
1
0
VERTEX
8
L82D0
10
68.214
20
20
0
VERTEX
8
L82D0
10
68.26
20
124.495
0
VERTEX
8
L82D0
10
68.46
20
124.495
0
VERTEX
8
L82D0
10
68.506
20
20
0
SEQEND
0
POLYLINE
8
L82D0
70
1
40
0
41
0
66
1
0
VERTEX
8
L82D0
10
68.737
20
20
0
VERTEX
8
L82D0
10
68.691
20
124.495
0
VERTEX
8
L82D0
10
69.001
20
124.495
0
VERTEX
8
L82D0
10
68.955
20
20
0
SEQEND
0
POLYLINE
8
L82D0
70
1
40
0
41
0
66
1
0
VERTEX
8
L82D0
10
69.186
20
20
0
VERTEX
8
L82D0
10
69.232
20
124.495
0
VERTEX
8
L82D0
10
69.432
20
124.495
0
VERTEX
8
L82D0
10
69.478
20
20
0
SEQEND
0
POLYLINE
8
L82D0
70
1
40
0
41
0
66
1
0
VERTEX
8
L82D0
10
69.709
20
20
0
VERTEX
8
L82D0
10
69.663
20
124.495
0
VERTEX
8
L82D0
10
69.973
20
124.495
0
VERTEX
8
L82D0
10
69.927
20
20
0
SEQEND
0
POLYLINE
8
L82D0
70
1
40
0
41
0
66
1
0
VERTEX
8
L82D0
10
70.158
20
20
0
VERTEX
8
L82D0
10
70.204
20
124.495
0
VERTEX
8
L82D0
10
70.404
20
124.495
0
VERTEX
8
L82D0
10
70.45
20
20
0
SEQEND
0
POLYLINE
8
L82D0
70
1
40
0
41
0
66
1
0
VERTEX
8
L82D0
10
70.681
20
20
0
VERTEX
8
L82D0
10
70.635
20
124.495
0
VERTEX
8
L82D0
10
70.945
20
124.495
0
VERTEX
8
L82D0
10
70.899
20
20
0
SEQEND
0
POLYLINE
8
L82D0
70
1
40
0
41
0
66
1
0
VERTEX
8
L82D0
10
71.13
20
20
0
VERTEX
8
L82D0
10
71.176
20
124.495
0
VERTEX
8
L82D0
10
71.376
20
124.495
0
VERTEX
8
L82D0
10
71.422
20
20
0
SEQEND
0
POLYLINE
8
L82D0
70
1
40
0
41
0
66
1
0
VERTEX
8
L82D0
10
71.653
20
20
0
VERTEX
8
L82D0
10
71.607
20
124.495
0
VERTEX
8
L82D0
10
71.917
20
124.495
0
VERTEX
8
L82D0
10
71.871
20
20
0
SEQEND
0
POLYLINE
8
L82D0
70
1
40
0
41
0
66
1
0
VERTEX
8
L82D0
10
72.102
20
20
0
VERTEX
8
L82D0
10
72.148
20
124.495
0
VERTEX
8
L82D0
10
72.348
20
124.495
0
VERTEX
8
L82D0
10
72.394
20
20
0
SEQEND
0
POLYLINE
8
L82D0
70
1
40
0
41
0
66
1
0
VERTEX
8
L82D0
10
72.625
20
20
0
VERTEX
8
L82D0
10
72.579
20
124.495
0
VERTEX
8
L82D0
10
72.889
20
124.495
0
VERTEX
8
L82D0
10
72.843
20
20
0
SEQEND
0
POLYLINE
8
L82D0
70
1
40
0
41
0
66
1
0
VERTEX
8
L82D0
10
73.074
20
20
0
VERTEX
8
L82D0
10
73.12
20
124.495
0
VERTEX
8
L82D0
10
73.32
20
124.495
0
VERTEX
8
L82D0
10
73.366
20
20
0
SEQEND
0
POLYLINE
8
L82D0
70
1
40
0
41
0
66
1
0
VERTEX
8
L82D0
10
73.597
20
20
0
VERTEX
8
L82D0
10
73.551
20
124.495
0
VERTEX
8
L82D0
10
73.861
20
124.495
0
VERTEX
8
L82D0
10
73.815
20
20
0
SEQEND
0
POLYLINE
8
L82D0
70
1
40
0
41
0
66
1
0
VERTEX
8
L82D0
10
74.046
20
20
0
VERTEX
8
L82D0
10
74.092
20
124.495
0
VERTEX
8
L82D0
10
74.292
20
124.495
0
VERTEX
8
L82D0
10
74.338
20
20
0
SEQEND
0
POLYLINE
8
L82D0
70
1
40
0
41
0
66
1
0
VERTEX
8
L82D0
10
74.569
20
20
0
VERTEX
8
L82D0
10
74.523
20
124.495
0
VERTEX
8
L82D0
10
74.833
20
124.495
0
VERTEX
8
L82D0
10
74.787
20
20
0
SEQEND
0
POLYLINE
8
L82D0
70
1
40
0
41
0
66
1
0
VERTEX
8
L82D0
10
75.018
20
20
0
VERTEX
8
L82D0
10
75.064
20
124.495
0
VERTEX
8
L82D0
10
75.264
20
124.495
0
VERTEX
8
L82D0
10
75.31
20
20
0
SEQEND
0
POLYLINE
8
L82D0
70
1
40
0
41
0
66
1
0
VERTEX
8
L82D0
10
75.541
20
20
0
VERTEX
8
L82D0
10
75.495
20
124.495
0
VERTEX
8
L82D0
10
75.805
20
124.495
0
VERTEX
8
L82D0
10
75.759
20
20
0
SEQEND
0
POLYLINE
8
L82D0
70
1
40
0
41
0
66
1
0
VERTEX
8
L82D0
10
75.99
20
20
0
VERTEX
8
L82D0
10
76.036
20
124.495
0
VERTEX
8
L82D0
10
76.236
20
124.495
0
VERTEX
8
L82D0
10
76.282
20
20
0
SEQEND
0
POLYLINE
8
L82D0
70
1
40
0
41
0
66
1
0
VERTEX
8
L82D0
10
76.513
20
20
0
VERTEX
8
L82D0
10
76.467
20
124.495
0
VERTEX
8
L82D0
10
76.777
20
124.495
0
VERTEX
8
L82D0
10
76.731
20
20
0
SEQEND
0
POLYLINE
8
L82D0
70
1
40
0
41
0
66
1
0
VERTEX
8
L82D0
10
76.962
20
20
0
VERTEX
8
L82D0
10
77.008
20
124.495
0
VERTEX
8
L82D0
10
77.208
20
124.495
0
VERTEX
8
L82D0
10
77.254
20
20
0
SEQEND
0
POLYLINE
8
L82D0
70
1
40
0
41
0
66
1
0
VERTEX
8
L82D0
10
77.485
20
20
0
VERTEX
8
L82D0
10
77.439
20
124.495
0
VERTEX
8
L82D0
10
77.749
20
124.495
0
VERTEX
8
L82D0
10
77.703
20
20
0
SEQEND
0
POLYLINE
8
L82D0
70
1
40
0
41
0
66
1
0
VERTEX
8
L82D0
10
77.934
20
20
0
VERTEX
8
L82D0
10
77.98
20
124.495
0
VERTEX
8
L82D0
10
78.18
20
124.495
0
VERTEX
8
L82D0
10
78.226
20
20
0
SEQEND
0
POLYLINE
8
L82D0
70
1
40
0
41
0
66
1
0
VERTEX
8
L82D0
10
78.457
20
20
0
VERTEX
8
L82D0
10
78.411
20
124.495
0
VERTEX
8
L82D0
10
78.721
20
124.495
0
VERTEX
8
L82D0
10
78.675
20
20
0
SEQEND
0
POLYLINE
8
L82D0
70
1
40
0
41
0
66
1
0
VERTEX
8
L82D0
10
78.906
20
20
0
VERTEX
8
L82D0
10
78.952
20
124.495
0
VERTEX
8
L82D0
10
79.152
20
124.495
0
VERTEX
8
L82D0
10
79.198
20
20
0
SEQEND
0
POLYLINE
8
L82D0
70
1
40
0
41
0
66
1
0
VERTEX
8
L82D0
10
79.429
20
20
0
VERTEX
8
L82D0
10
79.383
20
124.495
0
VERTEX
8
L82D0
10
79.693
20
124.495
0
VERTEX
8
L82D0
10
79.647
20
20
0
SEQEND
0
POLYLINE
8
L82D0
70
1
40
0
41
0
66
1
0
VERTEX
8
L82D0
10
79.878
20
20
0
VERTEX
8
L82D0
10
79.924
20
124.495
0
VERTEX
8
L82D0
10
80.124
20
124.495
0
VERTEX
8
L82D0
10
80.17
20
20
0
SEQEND
0
POLYLINE
8
L82D0
70
1
40
0
41
0
66
1
0
VERTEX
8
L82D0
10
80.401
20
20
0
VERTEX
8
L82D0
10
80.355
20
124.495
0
VERTEX
8
L82D0
10
80.665
20
124.495
0
VERTEX
8
L82D0
10
80.619
20
20
0
SEQEND
0
POLYLINE
8
L82D0
70
1
40
0
41
0
66
1
0
VERTEX
8
L82D0
10
80.85
20
20
0
VERTEX
8
L82D0
10
80.896
20
124.495
0
VERTEX
8
L82D0
10
81.096
20
124.495
0
VERTEX
8
L82D0
10
81.142
20
20
0
SEQEND
0
POLYLINE
8
L82D0
70
1
40
0
41
0
66
1
0
VERTEX
8
L82D0
10
81.373
20
20
0
VERTEX
8
L82D0
10
81.327
20
124.495
0
VERTEX
8
L82D0
10
81.637
20
124.495
0
VERTEX
8
L82D0
10
81.591
20
20
0
SEQEND
0
POLYLINE
8
L82D0
70
1
40
0
41
0
66
1
0
VERTEX
8
L82D0
10
81.822
20
20
0
VERTEX
8
L82D0
10
81.868
20
124.495
0
VERTEX
8
L82D0
10
82.068
20
124.495
0
VERTEX
8
L82D0
10
82.114
20
20
0
SEQEND
0
POLYLINE
8
L82D0
70
1
40
0
41
0
66
1
0
VERTEX
8
L82D0
10
82.345
20
20
0
VERTEX
8
L82D0
10
82.299
20
124.495
0
VERTEX
8
L82D0
10
82.609
20
124.495
0
VERTEX
8
L82D0
10
82.563
20
20
0
SEQEND
0
POLYLINE
8
L82D0
70
1
40
0
41
0
66
1
0
VERTEX
8
L82D0
10
82.794
20
20
0
VERTEX
8
L82D0
10
82.84
20
124.495
0
VERTEX
8
L82D0
10
83.04
20
124.495
0
VERTEX
8
L82D0
10
83.086
20
20
0
SEQEND
0
POLYLINE
8
L82D0
70
1
40
0
41
0
66
1
0
VERTEX
8
L82D0
10
83.317
20
20
0
VERTEX
8
L82D0
10
83.271
20
124.495
0
VERTEX
8
L82D0
10
83.581
20
124.495
0
VERTEX
8
L82D0
10
83.535
20
20
0
SEQEND
0
POLYLINE
8
L82D0
70
1
40
0
41
0
66
1
0
VERTEX
8
L82D0
10
83.766
20
20
0
VERTEX
8
L82D0
10
83.812
20
124.495
0
VERTEX
8
L82D0
10
84.012
20
124.495
0
VERTEX
8
L82D0
10
84.058
20
20
0
SEQEND
0
POLYLINE
8
L82D0
70
1
40
0
41
0
66
1
0
VERTEX
8
L82D0
10
84.289
20
20
0
VERTEX
8
L82D0
10
84.243
20
124.495
0
VERTEX
8
L82D0
10
84.553
20
124.495
0
VERTEX
8
L82D0
10
84.507
20
20
0
SEQEND
0
POLYLINE
8
L82D0
70
1
40
0
41
0
66
1
0
VERTEX
8
L82D0
10
84.738
20
20
0
VERTEX
8
L82D0
10
84.784
20
124.495
0
VERTEX
8
L82D0
10
84.984
20
124.495
0
VERTEX
8
L82D0
10
85.03
20
20
0
SEQEND
0
POLYLINE
8
L82D0
70
1
40
0
41
0
66
1
0
VERTEX
8
L82D0
10
85.261
20
20
0
VERTEX
8
L82D0
10
85.215
20
124.495
0
VERTEX
8
L82D0
10
85.525
20
124.495
0
VERTEX
8
L82D0
10
85.479
20
20
0
SEQEND
0
POLYLINE
8
L82D0
70
1
40
0
41
0
66
1
0
VERTEX
8
L82D0
10
85.71
20
20
0
VERTEX
8
L82D0
10
85.756
20
124.495
0
VERTEX
8
L82D0
10
85.956
20
124.495
0
VERTEX
8
L82D0
10
86.002
20
20
0
SEQEND
0
POLYLINE
8
L82D0
70
1
40
0
41
0
66
1
0
VERTEX
8
L82D0
10
86.233
20
20
0
VERTEX
8
L82D0
10
86.187
20
124.495
0
VERTEX
8
L82D0
10
86.497
20
124.495
0
VERTEX
8
L82D0
10
86.451
20
20
0
SEQEND
0
POLYLINE
8
L82D0
70
1
40
0
41
0
66
1
0
VERTEX
8
L82D0
10
86.682
20
20
0
VERTEX
8
L82D0
10
86.728
20
124.495
0
VERTEX
8
L82D0
10
86.928
20
124.495
0
VERTEX
8
L82D0
10
86.974
20
20
0
SEQEND
0
POLYLINE
8
L82D0
70
1
40
0
41
0
66
1
0
VERTEX
8
L82D0
10
87.205
20
20
0
VERTEX
8
L82D0
10
87.159
20
124.495
0
VERTEX
8
L82D0
10
87.469
20
124.495
0
VERTEX
8
L82D0
10
87.423
20
20
0
SEQEND
0
POLYLINE
8
L82D0
70
1
40
0
41
0
66
1
0
VERTEX
8
L82D0
10
87.654
20
20
0
VERTEX
8
L82D0
10
87.7
20
124.495
0
VERTEX
8
L82D0
10
87.9
20
124.495
0
VERTEX
8
L82D0
10
87.946
20
20
0
SEQEND
0
POLYLINE
8
L82D0
70
1
40
0
41
0
66
1
0
VERTEX
8
L82D0
10
88.177
20
20
0
VERTEX
8
L82D0
10
88.131
20
124.495
0
VERTEX
8
L82D0
10
88.441
20
124.495
0
VERTEX
8
L82D0
10
88.395
20
20
0
SEQEND
0
POLYLINE
8
L82D0
70
1
40
0
41
0
66
1
0
VERTEX
8
L82D0
10
88.626
20
20
0
VERTEX
8
L82D0
10
88.672
20
124.495
0
VERTEX
8
L82D0
10
88.872
20
124.495
0
VERTEX
8
L82D0
10
88.918
20
20
0
SEQEND
0
POLYLINE
8
L82D0
70
1
40
0
41
0
66
1
0
VERTEX
8
L82D0
10
89.149
20
20
0
VERTEX
8
L82D0
10
89.103
20
124.495
0
VERTEX
8
L82D0
10
89.413
20
124.495
0
VERTEX
8
L82D0
10
89.367
20
20
0
SEQEND
0
POLYLINE
8
L82D0
70
1
40
0
41
0
66
1
0
VERTEX
8
L82D0
10
89.598
20
20
0
VERTEX
8
L82D0
10
89.644
20
124.495
0
VERTEX
8
L82D0
10
89.844
20
124.495
0
VERTEX
8
L82D0
10
89.89
20
20
0
SEQEND
0
POLYLINE
8
L82D0
70
1
40
0
41
0
66
1
0
VERTEX
8
L82D0
10
90.121
20
20
0
VERTEX
8
L82D0
10
90.075
20
124.495
0
VERTEX
8
L82D0
10
90.385
20
124.495
0
VERTEX
8
L82D0
10
90.339
20
20
0
SEQEND
0
POLYLINE
8
L82D0
70
1
40
0
41
0
66
1
0
VERTEX
8
L82D0
10
90.57
20
20
0
VERTEX
8
L82D0
10
90.616
20
124.495
0
VERTEX
8
L82D0
10
90.816
20
124.495
0
VERTEX
8
L82D0
10
90.862
20
20
0
SEQEND
0
POLYLINE
8
L82D0
70
1
40
0
41
0
66
1
0
VERTEX
8
L82D0
10
91.093
20
20
0
VERTEX
8
L82D0
10
91.047
20
124.495
0
VERTEX
8
L82D0
10
91.357
20
124.495
0
VERTEX
8
L82D0
10
91.311
20
20
0
SEQEND
0
POLYLINE
8
L82D0
70
1
40
0
41
0
66
1
0
VERTEX
8
L82D0
10
91.542
20
20
0
VERTEX
8
L82D0
10
91.588
20
124.495
0
VERTEX
8
L82D0
10
91.788
20
124.495
0
VERTEX
8
L82D0
10
91.834
20
20
0
SEQEND
0
POLYLINE
8
L82D0
70
1
40
0
41
0
66
1
0
VERTEX
8
L82D0
10
92.065
20
20
0
VERTEX
8
L82D0
10
92.019
20
124.495
0
VERTEX
8
L82D0
10
92.329
20
124.495
0
VERTEX
8
L82D0
10
92.283
20
20
0
SEQEND
0
POLYLINE
8
L82D0
70
1
40
0
41
0
66
1
0
VERTEX
8
L82D0
10
92.514
20
20
0
VERTEX
8
L82D0
10
92.56
20
124.495
0
VERTEX
8
L82D0
10
92.76
20
124.495
0
VERTEX
8
L82D0
10
92.806
20
20
0
SEQEND
0
POLYLINE
8
L82D0
70
1
40
0
41
0
66
1
0
VERTEX
8
L82D0
10
93.037
20
20
0
VERTEX
8
L82D0
10
92.991
20
124.495
0
VERTEX
8
L82D0
10
93.301
20
124.495
0
VERTEX
8
L82D0
10
93.255
20
20
0
SEQEND
0
POLYLINE
8
L82D0
70
1
40
0
41
0
66
1
0
VERTEX
8
L82D0
10
93.486
20
20
0
VERTEX
8
L82D0
10
93.532
20
124.495
0
VERTEX
8
L82D0
10
93.732
20
124.495
0
VERTEX
8
L82D0
10
93.778
20
20
0
SEQEND
0
POLYLINE
8
L82D0
70
1
40
0
41
0
66
1
0
VERTEX
8
L82D0
10
94.009
20
20
0
VERTEX
8
L82D0
10
93.963
20
124.495
0
VERTEX
8
L82D0
10
94.273
20
124.495
0
VERTEX
8
L82D0
10
94.227
20
20
0
SEQEND
0
POLYLINE
8
L82D0
70
1
40
0
41
0
66
1
0
VERTEX
8
L82D0
10
94.458
20
20
0
VERTEX
8
L82D0
10
94.504
20
124.495
0
VERTEX
8
L82D0
10
94.704
20
124.495
0
VERTEX
8
L82D0
10
94.75
20
20
0
SEQEND
0
POLYLINE
8
L82D0
70
1
40
0
41
0
66
1
0
VERTEX
8
L82D0
10
94.981
20
20
0
VERTEX
8
L82D0
10
94.935
20
124.495
0
VERTEX
8
L82D0
10
95.245
20
124.495
0
VERTEX
8
L82D0
10
95.199
20
20
0
SEQEND
0
POLYLINE
8
L82D0
70
1
40
0
41
0
66
1
0
VERTEX
8
L82D0
10
95.43
20
20
0
VERTEX
8
L82D0
10
95.476
20
124.495
0
VERTEX
8
L82D0
10
95.676
20
124.495
0
VERTEX
8
L82D0
10
95.722
20
20
0
SEQEND
0
POLYLINE
8
L82D0
70
1
40
0
41
0
66
1
0
VERTEX
8
L82D0
10
95.953
20
20
0
VERTEX
8
L82D0
10
95.907
20
124.495
0
VERTEX
8
L82D0
10
96.217
20
124.495
0
VERTEX
8
L82D0
10
96.171
20
20
0
SEQEND
0
POLYLINE
8
L82D0
70
1
40
0
41
0
66
1
0
VERTEX
8
L82D0
10
96.402
20
20
0
VERTEX
8
L82D0
10
96.448
20
124.495
0
VERTEX
8
L82D0
10
96.648
20
124.495
0
VERTEX
8
L82D0
10
96.694
20
20
0
SEQEND
0
POLYLINE
8
L82D0
70
1
40
0
41
0
66
1
0
VERTEX
8
L82D0
10
96.925
20
20
0
VERTEX
8
L82D0
10
96.879
20
124.495
0
VERTEX
8
L82D0
10
97.189
20
124.495
0
VERTEX
8
L82D0
10
97.143
20
20
0
SEQEND
0
POLYLINE
8
L82D0
70
1
40
0
41
0
66
1
0
VERTEX
8
L82D0
10
97.374
20
20
0
VERTEX
8
L82D0
10
97.42
20
124.495
0
VERTEX
8
L82D0
10
97.62
20
124.495
0
VERTEX
8
L82D0
10
97.666
20
20
0
SEQEND
0
POLYLINE
8
L82D0
70
1
40
0
41
0
66
1
0
VERTEX
8
L82D0
10
97.897
20
20
0
VERTEX
8
L82D0
10
97.851
20
124.495
0
VERTEX
8
L82D0
10
98.161
20
124.495
0
VERTEX
8
L82D0
10
98.115
20
20
0
SEQEND
0
POLYLINE
8
L82D0
70
1
40
0
41
0
66
1
0
VERTEX
8
L82D0
10
98.346
20
20
0
VERTEX
8
L82D0
10
98.392
20
124.495
0
VERTEX
8
L82D0
10
98.592
20
124.495
0
VERTEX
8
L82D0
10
98.638
20
20
0
SEQEND
0
POLYLINE
8
L82D0
70
1
40
0
41
0
66
1
0
VERTEX
8
L82D0
10
98.869
20
20
0
VERTEX
8
L82D0
10
98.823
20
124.495
0
VERTEX
8
L82D0
10
99.133
20
124.495
0
VERTEX
8
L82D0
10
99.087
20
20
0
SEQEND
0
POLYLINE
8
L82D0
70
1
40
0
41
0
66
1
0
VERTEX
8
L82D0
10
99.318
20
20
0
VERTEX
8
L82D0
10
99.364
20
124.495
0
VERTEX
8
L82D0
10
99.564
20
124.495
0
VERTEX
8
L82D0
10
99.61
20
20
0
SEQEND
0
POLYLINE
8
L82D0
70
1
40
0
41
0
66
1
0
VERTEX
8
L82D0
10
99.841
20
20
0
VERTEX
8
L82D0
10
99.795
20
124.495
0
VERTEX
8
L82D0
10
100.105
20
124.495
0
VERTEX
8
L82D0
10
100.059
20
20
0
SEQEND
0
POLYLINE
8
L82D0
70
1
40
0
41
0
66
1
0
VERTEX
8
L82D0
10
100.29
20
20
0
VERTEX
8
L82D0
10
100.336
20
124.495
0
VERTEX
8
L82D0
10
100.536
20
124.495
0
VERTEX
8
L82D0
10
100.582
20
20
0
SEQEND
0
POLYLINE
8
L82D0
70
1
40
0
41
0
66
1
0
VERTEX
8
L82D0
10
100.813
20
20
0
VERTEX
8
L82D0
10
100.767
20
124.495
0
VERTEX
8
L82D0
10
101.077
20
124.495
0
VERTEX
8
L82D0
10
101.031
20
20
0
SEQEND
0
POLYLINE
8
L82D0
70
1
40
0
41
0
66
1
0
VERTEX
8
L82D0
10
101.262
20
20
0
VERTEX
8
L82D0
10
101.308
20
124.495
0
VERTEX
8
L82D0
10
101.508
20
124.495
0
VERTEX
8
L82D0
10
101.554
20
20
0
SEQEND
0
POLYLINE
8
L82D0
70
1
40
0
41
0
66
1
0
VERTEX
8
L82D0
10
101.785
20
20
0
VERTEX
8
L82D0
10
101.739
20
124.495
0
VERTEX
8
L82D0
10
102.049
20
124.495
0
VERTEX
8
L82D0
10
102.003
20
20
0
SEQEND
0
POLYLINE
8
L82D0
70
1
40
0
41
0
66
1
0
VERTEX
8
L82D0
10
102.234
20
20
0
VERTEX
8
L82D0
10
102.28
20
124.495
0
VERTEX
8
L82D0
10
102.48
20
124.495
0
VERTEX
8
L82D0
10
102.526
20
20
0
SEQEND
0
POLYLINE
8
L82D0
70
1
40
0
41
0
66
1
0
VERTEX
8
L82D0
10
102.757
20
20
0
VERTEX
8
L82D0
10
102.711
20
124.495
0
VERTEX
8
L82D0
10
103.021
20
124.495
0
VERTEX
8
L82D0
10
102.975
20
20
0
SEQEND
0
POLYLINE
8
L82D0
70
1
40
0
41
0
66
1
0
VERTEX
8
L82D0
10
103.206
20
20
0
VERTEX
8
L82D0
10
103.252
20
124.495
0
VERTEX
8
L82D0
10
103.452
20
124.495
0
VERTEX
8
L82D0
10
103.498
20
20
0
SEQEND
0
POLYLINE
8
L82D0
70
1
40
0
41
0
66
1
0
VERTEX
8
L82D0
10
103.729
20
20
0
VERTEX
8
L82D0
10
103.683
20
124.495
0
VERTEX
8
L82D0
10
103.993
20
124.495
0
VERTEX
8
L82D0
10
103.947
20
20
0
SEQEND
0
POLYLINE
8
L82D0
70
1
40
0
41
0
66
1
0
VERTEX
8
L82D0
10
104.178
20
20
0
VERTEX
8
L82D0
10
104.224
20
124.495
0
VERTEX
8
L82D0
10
104.424
20
124.495
0
VERTEX
8
L82D0
10
104.47
20
20
0
SEQEND
0
POLYLINE
8
L82D0
70
1
40
0
41
0
66
1
0
VERTEX
8
L82D0
10
104.701
20
20
0
VERTEX
8
L82D0
10
104.655
20
124.495
0
VERTEX
8
L82D0
10
104.965
20
124.495
0
VERTEX
8
L82D0
10
104.919
20
20
0
SEQEND
0
POLYLINE
8
L82D0
70
1
40
0
41
0
66
1
0
VERTEX
8
L82D0
10
105.15
20
20
0
VERTEX
8
L82D0
10
105.196
20
124.495
0
VERTEX
8
L82D0
10
105.396
20
124.495
0
VERTEX
8
L82D0
10
105.442
20
20
0
SEQEND
0
POLYLINE
8
L82D0
70
1
40
0
41
0
66
1
0
VERTEX
8
L82D0
10
105.673
20
20
0
VERTEX
8
L82D0
10
105.627
20
124.495
0
VERTEX
8
L82D0
10
105.937
20
124.495
0
VERTEX
8
L82D0
10
105.891
20
20
0
SEQEND
0
POLYLINE
8
L82D0
70
1
40
0
41
0
66
1
0
VERTEX
8
L82D0
10
106.122
20
20
0
VERTEX
8
L82D0
10
106.168
20
124.495
0
VERTEX
8
L82D0
10
106.368
20
124.495
0
VERTEX
8
L82D0
10
106.414
20
20
0
SEQEND
0
POLYLINE
8
L82D0
70
1
40
0
41
0
66
1
0
VERTEX
8
L82D0
10
106.645
20
20
0
VERTEX
8
L82D0
10
106.599
20
124.495
0
VERTEX
8
L82D0
10
106.909
20
124.495
0
VERTEX
8
L82D0
10
106.863
20
20
0
SEQEND
0
POLYLINE
8
L82D0
70
1
40
0
41
0
66
1
0
VERTEX
8
L82D0
10
107.094
20
20
0
VERTEX
8
L82D0
10
107.14
20
124.495
0
VERTEX
8
L82D0
10
107.34
20
124.495
0
VERTEX
8
L82D0
10
107.386
20
20
0
SEQEND
0
POLYLINE
8
L82D0
70
1
40
0
41
0
66
1
0
VERTEX
8
L82D0
10
107.617
20
20
0
VERTEX
8
L82D0
10
107.571
20
124.495
0
VERTEX
8
L82D0
10
107.881
20
124.495
0
VERTEX
8
L82D0
10
107.835
20
20
0
SEQEND
0
POLYLINE
8
L82D0
70
1
40
0
41
0
66
1
0
VERTEX
8
L82D0
10
108.066
20
20
0
VERTEX
8
L82D0
10
108.112
20
124.495
0
VERTEX
8
L82D0
10
108.312
20
124.495
0
VERTEX
8
L82D0
10
108.358
20
20
0
SEQEND
0
POLYLINE
8
L82D0
70
1
40
0
41
0
66
1
0
VERTEX
8
L82D0
10
108.589
20
20
0
VERTEX
8
L82D0
10
108.543
20
124.495
0
VERTEX
8
L82D0
10
108.853
20
124.495
0
VERTEX
8
L82D0
10
108.807
20
20
0
SEQEND
0
POLYLINE
8
L82D0
70
1
40
0
41
0
66
1
0
VERTEX
8
L82D0
10
109.038
20
20
0
VERTEX
8
L82D0
10
109.084
20
124.495
0
VERTEX
8
L82D0
10
109.284
20
124.495
0
VERTEX
8
L82D0
10
109.33
20
20
0
SEQEND
0
POLYLINE
8
L82D0
70
1
40
0
41
0
66
1
0
VERTEX
8
L82D0
10
109.561
20
20
0
VERTEX
8
L82D0
10
109.515
20
124.495
0
VERTEX
8
L82D0
10
109.825
20
124.495
0
VERTEX
8
L82D0
10
109.779
20
20
0
SEQEND
0
POLYLINE
8
L82D0
70
1
40
0
41
0
66
1
0
VERTEX
8
L82D0
10
110.01
20
20
0
VERTEX
8
L82D0
10
110.056
20
124.495
0
VERTEX
8
L82D0
10
110.256
20
124.495
0
VERTEX
8
L82D0
10
110.302
20
20
0
SEQEND
0
POLYLINE
8
L82D0
70
1
40
0
41
0
66
1
0
VERTEX
8
L82D0
10
110.533
20
20
0
VERTEX
8
L82D0
10
110.487
20
124.495
0
VERTEX
8
L82D0
10
110.797
20
124.495
0
VERTEX
8
L82D0
10
110.751
20
20
0
SEQEND
0
POLYLINE
8
L82D0
70
1
40
0
41
0
66
1
0
VERTEX
8
L82D0
10
110.982
20
20
0
VERTEX
8
L82D0
10
111.028
20
124.495
0
VERTEX
8
L82D0
10
111.228
20
124.495
0
VERTEX
8
L82D0
10
111.274
20
20
0
SEQEND
0
POLYLINE
8
L82D0
70
1
40
0
41
0
66
1
0
VERTEX
8
L82D0
10
111.505
20
20
0
VERTEX
8
L82D0
10
111.459
20
124.495
0
VERTEX
8
L82D0
10
111.769
20
124.495
0
VERTEX
8
L82D0
10
111.723
20
20
0
SEQEND
0
POLYLINE
8
L82D0
70
1
40
0
41
0
66
1
0
VERTEX
8
L82D0
10
111.954
20
20
0
VERTEX
8
L82D0
10
112
20
124.495
0
VERTEX
8
L82D0
10
112.2
20
124.495
0
VERTEX
8
L82D0
10
112.246
20
20
0
SEQEND
0
POLYLINE
8
L82D0
70
1
40
0
41
0
66
1
0
VERTEX
8
L82D0
10
112.477
20
20
0
VERTEX
8
L82D0
10
112.431
20
124.495
0
VERTEX
8
L82D0
10
112.741
20
124.495
0
VERTEX
8
L82D0
10
112.695
20
20
0
SEQEND
0
POLYLINE
8
L82D0
70
1
40
0
41
0
66
1
0
VERTEX
8
L82D0
10
112.926
20
20
0
VERTEX
8
L82D0
10
112.972
20
124.495
0
VERTEX
8
L82D0
10
113.172
20
124.495
0
VERTEX
8
L82D0
10
113.218
20
20
0
SEQEND
0
POLYLINE
8
L82D0
70
1
40
0
41
0
66
1
0
VERTEX
8
L82D0
10
113.449
20
20
0
VERTEX
8
L82D0
10
113.403
20
124.495
0
VERTEX
8
L82D0
10
113.713
20
124.495
0
VERTEX
8
L82D0
10
113.667
20
20
0
SEQEND
0
POLYLINE
8
L82D0
70
1
40
0
41
0
66
1
0
VERTEX
8
L82D0
10
113.898
20
20
0
VERTEX
8
L82D0
10
113.944
20
124.495
0
VERTEX
8
L82D0
10
114.144
20
124.495
0
VERTEX
8
L82D0
10
114.19
20
20
0
SEQEND
0
POLYLINE
8
L82D0
70
1
40
0
41
0
66
1
0
VERTEX
8
L82D0
10
114.421
20
20
0
VERTEX
8
L82D0
10
114.375
20
124.495
0
VERTEX
8
L82D0
10
114.685
20
124.495
0
VERTEX
8
L82D0
10
114.639
20
20
0
SEQEND
0
POLYLINE
8
L82D0
70
1
40
0
41
0
66
1
0
VERTEX
8
L82D0
10
114.87
20
20
0
VERTEX
8
L82D0
10
114.916
20
124.495
0
VERTEX
8
L82D0
10
115.116
20
124.495
0
VERTEX
8
L82D0
10
115.162
20
20
0
SEQEND
0
POLYLINE
8
L82D0
70
1
40
0
41
0
66
1
0
VERTEX
8
L82D0
10
115.393
20
20
0
VERTEX
8
L82D0
10
115.347
20
124.495
0
VERTEX
8
L82D0
10
115.657
20
124.495
0
VERTEX
8
L82D0
10
115.611
20
20
0
SEQEND
0
POLYLINE
8
L82D0
70
1
40
0
41
0
66
1
0
VERTEX
8
L82D0
10
115.842
20
20
0
VERTEX
8
L82D0
10
115.888
20
124.495
0
VERTEX
8
L82D0
10
116.088
20
124.495
0
VERTEX
8
L82D0
10
116.134
20
20
0
SEQEND
0
POLYLINE
8
L82D0
70
1
40
0
41
0
66
1
0
VERTEX
8
L82D0
10
116.365
20
20
0
VERTEX
8
L82D0
10
116.319
20
124.495
0
VERTEX
8
L82D0
10
116.629
20
124.495
0
VERTEX
8
L82D0
10
116.583
20
20
0
SEQEND
0
POLYLINE
8
L82D0
70
1
40
0
41
0
66
1
0
VERTEX
8
L82D0
10
116.814
20
20
0
VERTEX
8
L82D0
10
116.86
20
124.495
0
VERTEX
8
L82D0
10
117.06
20
124.495
0
VERTEX
8
L82D0
10
117.106
20
20
0
SEQEND
0
POLYLINE
8
L82D0
70
1
40
0
41
0
66
1
0
VERTEX
8
L82D0
10
117.337
20
20
0
VERTEX
8
L82D0
10
117.291
20
124.495
0
VERTEX
8
L82D0
10
117.601
20
124.495
0
VERTEX
8
L82D0
10
117.555
20
20
0
SEQEND
0
POLYLINE
8
L82D0
70
1
40
0
41
0
66
1
0
VERTEX
8
L82D0
10
117.786
20
20
0
VERTEX
8
L82D0
10
117.832
20
124.495
0
VERTEX
8
L82D0
10
118.032
20
124.495
0
VERTEX
8
L82D0
10
118.078
20
20
0
SEQEND
0
POLYLINE
8
L82D0
70
1
40
0
41
0
66
1
0
VERTEX
8
L82D0
10
118.309
20
20
0
VERTEX
8
L82D0
10
118.263
20
124.495
0
VERTEX
8
L82D0
10
118.573
20
124.495
0
VERTEX
8
L82D0
10
118.527
20
20
0
SEQEND
0
POLYLINE
8
L82D0
70
1
40
0
41
0
66
1
0
VERTEX
8
L82D0
10
118.758
20
20
0
VERTEX
8
L82D0
10
118.804
20
124.495
0
VERTEX
8
L82D0
10
119.004
20
124.495
0
VERTEX
8
L82D0
10
119.05
20
20
0
SEQEND
0
POLYLINE
8
L82D0
70
1
40
0
41
0
66
1
0
VERTEX
8
L82D0
10
119.281
20
20
0
VERTEX
8
L82D0
10
119.235
20
124.495
0
VERTEX
8
L82D0
10
119.545
20
124.495
0
VERTEX
8
L82D0
10
119.499
20
20
0
SEQEND
0
POLYLINE
8
L82D0
70
1
40
0
41
0
66
1
0
VERTEX
8
L82D0
10
119.73
20
20
0
VERTEX
8
L82D0
10
119.776
20
124.495
0
VERTEX
8
L82D0
10
119.976
20
124.495
0
VERTEX
8
L82D0
10
120.022
20
20
0
SEQEND
0
POLYLINE
8
L82D0
70
1
40
0
41
0
66
1
0
VERTEX
8
L82D0
10
120.253
20
20
0
VERTEX
8
L82D0
10
120.207
20
124.495
0
VERTEX
8
L82D0
10
120.517
20
124.495
0
VERTEX
8
L82D0
10
120.471
20
20
0
SEQEND
0
POLYLINE
8
L82D0
70
1
40
0
41
0
66
1
0
VERTEX
8
L82D0
10
120.702
20
20
0
VERTEX
8
L82D0
10
120.748
20
124.495
0
VERTEX
8
L82D0
10
120.948
20
124.495
0
VERTEX
8
L82D0
10
120.994
20
20
0
SEQEND
0
POLYLINE
8
L82D0
70
1
40
0
41
0
66
1
0
VERTEX
8
L82D0
10
121.225
20
20
0
VERTEX
8
L82D0
10
121.179
20
124.495
0
VERTEX
8
L82D0
10
121.489
20
124.495
0
VERTEX
8
L82D0
10
121.443
20
20
0
SEQEND
0
POLYLINE
8
L82D0
70
1
40
0
41
0
66
1
0
VERTEX
8
L82D0
10
121.674
20
20
0
VERTEX
8
L82D0
10
121.72
20
124.495
0
VERTEX
8
L82D0
10
121.92
20
124.495
0
VERTEX
8
L82D0
10
121.966
20
20
0
SEQEND
0
POLYLINE
8
L82D0
70
1
40
0
41
0
66
1
0
VERTEX
8
L82D0
10
122.197
20
20
0
VERTEX
8
L82D0
10
122.151
20
124.495
0
VERTEX
8
L82D0
10
122.461
20
124.495
0
VERTEX
8
L82D0
10
122.415
20
20
0
SEQEND
0
POLYLINE
8
L82D0
70
1
40
0
41
0
66
1
0
VERTEX
8
L82D0
10
122.646
20
20
0
VERTEX
8
L82D0
10
122.692
20
124.495
0
VERTEX
8
L82D0
10
122.892
20
124.495
0
VERTEX
8
L82D0
10
122.938
20
20
0
SEQEND
0
POLYLINE
8
L82D0
70
1
40
0
41
0
66
1
0
VERTEX
8
L82D0
10
123.169
20
20
0
VERTEX
8
L82D0
10
123.123
20
124.495
0
VERTEX
8
L82D0
10
123.433
20
124.495
0
VERTEX
8
L82D0
10
123.387
20
20
0
SEQEND
0
POLYLINE
8
L82D0
70
1
40
0
41
0
66
1
0
VERTEX
8
L82D0
10
123.618
20
20
0
VERTEX
8
L82D0
10
123.664
20
124.495
0
VERTEX
8
L82D0
10
123.864
20
124.495
0
VERTEX
8
L82D0
10
123.91
20
20
0
SEQEND
0
POLYLINE
8
L82D0
70
1
40
0
41
0
66
1
0
VERTEX
8
L82D0
10
124.141
20
20
0
VERTEX
8
L82D0
10
124.095
20
124.495
0
VERTEX
8
L82D0
10
124.405
20
124.495
0
VERTEX
8
L82D0
10
124.359
20
20
0
SEQEND
0
POLYLINE
8
L82D0
70
1
40
0
41
0
66
1
0
VERTEX
8
L82D0
10
124.59
20
20
0
VERTEX
8
L82D0
10
124.636
20
124.495
0
VERTEX
8
L82D0
10
124.836
20
124.495
0
VERTEX
8
L82D0
10
124.882
20
20
0
SEQEND
0
ENDSEC
0
EOF
