%TF.GenerationSoftware,KiCad,Pcbnew,9.0.7*%
%TF.CreationDate,2026-02-03T18:24:32-05:00*%
%TF.ProjectId,pcb_sma_solarcell,7063625f-736d-4615-9f73-6f6c61726365,rev?*%
%TF.SameCoordinates,Original*%
%TF.FileFunction,Legend,Top*%
%TF.FilePolarity,Positive*%
%FSLAX46Y46*%
G04 Gerber Fmt 4.6, Leading zero omitted, Abs format (unit mm)*
G04 Created by KiCad (PCBNEW 9.0.7) date 2026-02-03 18:24:32*
%MOMM*%
%LPD*%
G01*
G04 APERTURE LIST*
%ADD10C,0.100000*%
G04 APERTURE END LIST*
D10*
X83172000Y-35476000D02*
X83172000Y-42690000D01*
X63180000Y-42460000D02*
X63172000Y-35476000D01*
X72256791Y-67425419D02*
X71923458Y-66949228D01*
X71685363Y-67425419D02*
X71685363Y-66425419D01*
X71685363Y-66425419D02*
X72066315Y-66425419D01*
X72066315Y-66425419D02*
X72161553Y-66473038D01*
X72161553Y-66473038D02*
X72209172Y-66520657D01*
X72209172Y-66520657D02*
X72256791Y-66615895D01*
X72256791Y-66615895D02*
X72256791Y-66758752D01*
X72256791Y-66758752D02*
X72209172Y-66853990D01*
X72209172Y-66853990D02*
X72161553Y-66901609D01*
X72161553Y-66901609D02*
X72066315Y-66949228D01*
X72066315Y-66949228D02*
X71685363Y-66949228D01*
X72685363Y-66901609D02*
X73018696Y-66901609D01*
X73161553Y-67425419D02*
X72685363Y-67425419D01*
X72685363Y-67425419D02*
X72685363Y-66425419D01*
X72685363Y-66425419D02*
X73161553Y-66425419D01*
X73923458Y-66901609D02*
X73590125Y-66901609D01*
X73590125Y-67425419D02*
X73590125Y-66425419D01*
X73590125Y-66425419D02*
X74066315Y-66425419D01*
X74590125Y-66425419D02*
X74590125Y-66663514D01*
X74352030Y-66568276D02*
X74590125Y-66663514D01*
X74590125Y-66663514D02*
X74828220Y-66568276D01*
X74447268Y-66853990D02*
X74590125Y-66663514D01*
X74590125Y-66663514D02*
X74732982Y-66853990D01*
X75352030Y-66425419D02*
X75352030Y-66663514D01*
X75113935Y-66568276D02*
X75352030Y-66663514D01*
X75352030Y-66663514D02*
X75590125Y-66568276D01*
X75209173Y-66853990D02*
X75352030Y-66663514D01*
X75352030Y-66663514D02*
X75494887Y-66853990D01*
M02*
