%TF.GenerationSoftware,KiCad,Pcbnew,9.0.7*%
%TF.CreationDate,2026-02-03T18:24:32-05:00*%
%TF.ProjectId,pcb_sma_solarcell,7063625f-736d-4615-9f73-6f6c61726365,rev?*%
%TF.SameCoordinates,Original*%
%TF.FileFunction,Legend,Bot*%
%TF.FilePolarity,Positive*%
%FSLAX46Y46*%
G04 Gerber Fmt 4.6, Leading zero omitted, Abs format (unit mm)*
G04 Created by KiCad (PCBNEW 9.0.7) date 2026-02-03 18:24:32*
%MOMM*%
%LPD*%
G01*
G04 APERTURE LIST*
%ADD10C,0.200000*%
G04 APERTURE END LIST*
D10*
X81973333Y-39217275D02*
X81973333Y-38217275D01*
X81973333Y-38217275D02*
X81401905Y-39217275D01*
X81401905Y-39217275D02*
X81401905Y-38217275D01*
X80782857Y-39217275D02*
X80878095Y-39169656D01*
X80878095Y-39169656D02*
X80925714Y-39122036D01*
X80925714Y-39122036D02*
X80973333Y-39026798D01*
X80973333Y-39026798D02*
X80973333Y-38741084D01*
X80973333Y-38741084D02*
X80925714Y-38645846D01*
X80925714Y-38645846D02*
X80878095Y-38598227D01*
X80878095Y-38598227D02*
X80782857Y-38550608D01*
X80782857Y-38550608D02*
X80640000Y-38550608D01*
X80640000Y-38550608D02*
X80544762Y-38598227D01*
X80544762Y-38598227D02*
X80497143Y-38645846D01*
X80497143Y-38645846D02*
X80449524Y-38741084D01*
X80449524Y-38741084D02*
X80449524Y-39026798D01*
X80449524Y-39026798D02*
X80497143Y-39122036D01*
X80497143Y-39122036D02*
X80544762Y-39169656D01*
X80544762Y-39169656D02*
X80640000Y-39217275D01*
X80640000Y-39217275D02*
X80782857Y-39217275D01*
X80020952Y-39217275D02*
X80020952Y-38550608D01*
X80020952Y-38645846D02*
X79973333Y-38598227D01*
X79973333Y-38598227D02*
X79878095Y-38550608D01*
X79878095Y-38550608D02*
X79735238Y-38550608D01*
X79735238Y-38550608D02*
X79640000Y-38598227D01*
X79640000Y-38598227D02*
X79592381Y-38693465D01*
X79592381Y-38693465D02*
X79592381Y-39217275D01*
X79592381Y-38693465D02*
X79544762Y-38598227D01*
X79544762Y-38598227D02*
X79449524Y-38550608D01*
X79449524Y-38550608D02*
X79306667Y-38550608D01*
X79306667Y-38550608D02*
X79211428Y-38598227D01*
X79211428Y-38598227D02*
X79163809Y-38693465D01*
X79163809Y-38693465D02*
X79163809Y-39217275D01*
X78687619Y-39122036D02*
X78640000Y-39169656D01*
X78640000Y-39169656D02*
X78687619Y-39217275D01*
X78687619Y-39217275D02*
X78735238Y-39169656D01*
X78735238Y-39169656D02*
X78687619Y-39122036D01*
X78687619Y-39122036D02*
X78687619Y-39217275D01*
X78687619Y-38598227D02*
X78640000Y-38645846D01*
X78640000Y-38645846D02*
X78687619Y-38693465D01*
X78687619Y-38693465D02*
X78735238Y-38645846D01*
X78735238Y-38645846D02*
X78687619Y-38598227D01*
X78687619Y-38598227D02*
X78687619Y-38693465D01*
X76878096Y-39122036D02*
X76925715Y-39169656D01*
X76925715Y-39169656D02*
X77068572Y-39217275D01*
X77068572Y-39217275D02*
X77163810Y-39217275D01*
X77163810Y-39217275D02*
X77306667Y-39169656D01*
X77306667Y-39169656D02*
X77401905Y-39074417D01*
X77401905Y-39074417D02*
X77449524Y-38979179D01*
X77449524Y-38979179D02*
X77497143Y-38788703D01*
X77497143Y-38788703D02*
X77497143Y-38645846D01*
X77497143Y-38645846D02*
X77449524Y-38455370D01*
X77449524Y-38455370D02*
X77401905Y-38360132D01*
X77401905Y-38360132D02*
X77306667Y-38264894D01*
X77306667Y-38264894D02*
X77163810Y-38217275D01*
X77163810Y-38217275D02*
X77068572Y-38217275D01*
X77068572Y-38217275D02*
X76925715Y-38264894D01*
X76925715Y-38264894D02*
X76878096Y-38312513D01*
X76020953Y-39217275D02*
X76020953Y-38693465D01*
X76020953Y-38693465D02*
X76068572Y-38598227D01*
X76068572Y-38598227D02*
X76163810Y-38550608D01*
X76163810Y-38550608D02*
X76354286Y-38550608D01*
X76354286Y-38550608D02*
X76449524Y-38598227D01*
X76020953Y-39169656D02*
X76116191Y-39217275D01*
X76116191Y-39217275D02*
X76354286Y-39217275D01*
X76354286Y-39217275D02*
X76449524Y-39169656D01*
X76449524Y-39169656D02*
X76497143Y-39074417D01*
X76497143Y-39074417D02*
X76497143Y-38979179D01*
X76497143Y-38979179D02*
X76449524Y-38883941D01*
X76449524Y-38883941D02*
X76354286Y-38836322D01*
X76354286Y-38836322D02*
X76116191Y-38836322D01*
X76116191Y-38836322D02*
X76020953Y-38788703D01*
X75687619Y-38550608D02*
X75306667Y-38550608D01*
X75544762Y-38217275D02*
X75544762Y-39074417D01*
X75544762Y-39074417D02*
X75497143Y-39169656D01*
X75497143Y-39169656D02*
X75401905Y-39217275D01*
X75401905Y-39217275D02*
X75306667Y-39217275D01*
X74973333Y-39217275D02*
X74973333Y-38217275D01*
X74544762Y-39217275D02*
X74544762Y-38693465D01*
X74544762Y-38693465D02*
X74592381Y-38598227D01*
X74592381Y-38598227D02*
X74687619Y-38550608D01*
X74687619Y-38550608D02*
X74830476Y-38550608D01*
X74830476Y-38550608D02*
X74925714Y-38598227D01*
X74925714Y-38598227D02*
X74973333Y-38645846D01*
X73687619Y-39169656D02*
X73782857Y-39217275D01*
X73782857Y-39217275D02*
X73973333Y-39217275D01*
X73973333Y-39217275D02*
X74068571Y-39169656D01*
X74068571Y-39169656D02*
X74116190Y-39074417D01*
X74116190Y-39074417D02*
X74116190Y-38693465D01*
X74116190Y-38693465D02*
X74068571Y-38598227D01*
X74068571Y-38598227D02*
X73973333Y-38550608D01*
X73973333Y-38550608D02*
X73782857Y-38550608D01*
X73782857Y-38550608D02*
X73687619Y-38598227D01*
X73687619Y-38598227D02*
X73640000Y-38693465D01*
X73640000Y-38693465D02*
X73640000Y-38788703D01*
X73640000Y-38788703D02*
X74116190Y-38883941D01*
X73211428Y-39217275D02*
X73211428Y-38550608D01*
X73211428Y-38741084D02*
X73163809Y-38645846D01*
X73163809Y-38645846D02*
X73116190Y-38598227D01*
X73116190Y-38598227D02*
X73020952Y-38550608D01*
X73020952Y-38550608D02*
X72925714Y-38550608D01*
X72592380Y-39217275D02*
X72592380Y-38550608D01*
X72592380Y-38217275D02*
X72639999Y-38264894D01*
X72639999Y-38264894D02*
X72592380Y-38312513D01*
X72592380Y-38312513D02*
X72544761Y-38264894D01*
X72544761Y-38264894D02*
X72592380Y-38217275D01*
X72592380Y-38217275D02*
X72592380Y-38312513D01*
X72116190Y-38550608D02*
X72116190Y-39217275D01*
X72116190Y-38645846D02*
X72068571Y-38598227D01*
X72068571Y-38598227D02*
X71973333Y-38550608D01*
X71973333Y-38550608D02*
X71830476Y-38550608D01*
X71830476Y-38550608D02*
X71735238Y-38598227D01*
X71735238Y-38598227D02*
X71687619Y-38693465D01*
X71687619Y-38693465D02*
X71687619Y-39217275D01*
X70830476Y-39169656D02*
X70925714Y-39217275D01*
X70925714Y-39217275D02*
X71116190Y-39217275D01*
X71116190Y-39217275D02*
X71211428Y-39169656D01*
X71211428Y-39169656D02*
X71259047Y-39074417D01*
X71259047Y-39074417D02*
X71259047Y-38693465D01*
X71259047Y-38693465D02*
X71211428Y-38598227D01*
X71211428Y-38598227D02*
X71116190Y-38550608D01*
X71116190Y-38550608D02*
X70925714Y-38550608D01*
X70925714Y-38550608D02*
X70830476Y-38598227D01*
X70830476Y-38598227D02*
X70782857Y-38693465D01*
X70782857Y-38693465D02*
X70782857Y-38788703D01*
X70782857Y-38788703D02*
X71259047Y-38883941D01*
X69259047Y-38693465D02*
X69116190Y-38741084D01*
X69116190Y-38741084D02*
X69068571Y-38788703D01*
X69068571Y-38788703D02*
X69020952Y-38883941D01*
X69020952Y-38883941D02*
X69020952Y-39026798D01*
X69020952Y-39026798D02*
X69068571Y-39122036D01*
X69068571Y-39122036D02*
X69116190Y-39169656D01*
X69116190Y-39169656D02*
X69211428Y-39217275D01*
X69211428Y-39217275D02*
X69592380Y-39217275D01*
X69592380Y-39217275D02*
X69592380Y-38217275D01*
X69592380Y-38217275D02*
X69259047Y-38217275D01*
X69259047Y-38217275D02*
X69163809Y-38264894D01*
X69163809Y-38264894D02*
X69116190Y-38312513D01*
X69116190Y-38312513D02*
X69068571Y-38407751D01*
X69068571Y-38407751D02*
X69068571Y-38502989D01*
X69068571Y-38502989D02*
X69116190Y-38598227D01*
X69116190Y-38598227D02*
X69163809Y-38645846D01*
X69163809Y-38645846D02*
X69259047Y-38693465D01*
X69259047Y-38693465D02*
X69592380Y-38693465D01*
X68449523Y-39217275D02*
X68544761Y-39169656D01*
X68544761Y-39169656D02*
X68592380Y-39122036D01*
X68592380Y-39122036D02*
X68639999Y-39026798D01*
X68639999Y-39026798D02*
X68639999Y-38741084D01*
X68639999Y-38741084D02*
X68592380Y-38645846D01*
X68592380Y-38645846D02*
X68544761Y-38598227D01*
X68544761Y-38598227D02*
X68449523Y-38550608D01*
X68449523Y-38550608D02*
X68306666Y-38550608D01*
X68306666Y-38550608D02*
X68211428Y-38598227D01*
X68211428Y-38598227D02*
X68163809Y-38645846D01*
X68163809Y-38645846D02*
X68116190Y-38741084D01*
X68116190Y-38741084D02*
X68116190Y-39026798D01*
X68116190Y-39026798D02*
X68163809Y-39122036D01*
X68163809Y-39122036D02*
X68211428Y-39169656D01*
X68211428Y-39169656D02*
X68306666Y-39217275D01*
X68306666Y-39217275D02*
X68449523Y-39217275D01*
X67259047Y-38550608D02*
X67259047Y-39217275D01*
X67687618Y-38550608D02*
X67687618Y-39074417D01*
X67687618Y-39074417D02*
X67639999Y-39169656D01*
X67639999Y-39169656D02*
X67544761Y-39217275D01*
X67544761Y-39217275D02*
X67401904Y-39217275D01*
X67401904Y-39217275D02*
X67306666Y-39169656D01*
X67306666Y-39169656D02*
X67259047Y-39122036D01*
X66782856Y-39217275D02*
X66782856Y-38550608D01*
X66782856Y-38741084D02*
X66735237Y-38645846D01*
X66735237Y-38645846D02*
X66687618Y-38598227D01*
X66687618Y-38598227D02*
X66592380Y-38550608D01*
X66592380Y-38550608D02*
X66497142Y-38550608D01*
X65735237Y-38550608D02*
X65735237Y-39360132D01*
X65735237Y-39360132D02*
X65782856Y-39455370D01*
X65782856Y-39455370D02*
X65830475Y-39502989D01*
X65830475Y-39502989D02*
X65925713Y-39550608D01*
X65925713Y-39550608D02*
X66068570Y-39550608D01*
X66068570Y-39550608D02*
X66163808Y-39502989D01*
X65735237Y-39169656D02*
X65830475Y-39217275D01*
X65830475Y-39217275D02*
X66020951Y-39217275D01*
X66020951Y-39217275D02*
X66116189Y-39169656D01*
X66116189Y-39169656D02*
X66163808Y-39122036D01*
X66163808Y-39122036D02*
X66211427Y-39026798D01*
X66211427Y-39026798D02*
X66211427Y-38741084D01*
X66211427Y-38741084D02*
X66163808Y-38645846D01*
X66163808Y-38645846D02*
X66116189Y-38598227D01*
X66116189Y-38598227D02*
X66020951Y-38550608D01*
X66020951Y-38550608D02*
X65830475Y-38550608D01*
X65830475Y-38550608D02*
X65735237Y-38598227D01*
X64878094Y-39169656D02*
X64973332Y-39217275D01*
X64973332Y-39217275D02*
X65163808Y-39217275D01*
X65163808Y-39217275D02*
X65259046Y-39169656D01*
X65259046Y-39169656D02*
X65306665Y-39074417D01*
X65306665Y-39074417D02*
X65306665Y-38693465D01*
X65306665Y-38693465D02*
X65259046Y-38598227D01*
X65259046Y-38598227D02*
X65163808Y-38550608D01*
X65163808Y-38550608D02*
X64973332Y-38550608D01*
X64973332Y-38550608D02*
X64878094Y-38598227D01*
X64878094Y-38598227D02*
X64830475Y-38693465D01*
X64830475Y-38693465D02*
X64830475Y-38788703D01*
X64830475Y-38788703D02*
X65306665Y-38883941D01*
X64544760Y-38550608D02*
X64163808Y-38550608D01*
X64401903Y-38217275D02*
X64401903Y-39074417D01*
X64401903Y-39074417D02*
X64354284Y-39169656D01*
X64354284Y-39169656D02*
X64259046Y-39217275D01*
X64259046Y-39217275D02*
X64163808Y-39217275D01*
X81235237Y-39827219D02*
X80901904Y-40827219D01*
X80901904Y-40827219D02*
X80568571Y-39827219D01*
X79854285Y-40779600D02*
X79949523Y-40827219D01*
X79949523Y-40827219D02*
X80139999Y-40827219D01*
X80139999Y-40827219D02*
X80235237Y-40779600D01*
X80235237Y-40779600D02*
X80282856Y-40684361D01*
X80282856Y-40684361D02*
X80282856Y-40303409D01*
X80282856Y-40303409D02*
X80235237Y-40208171D01*
X80235237Y-40208171D02*
X80139999Y-40160552D01*
X80139999Y-40160552D02*
X79949523Y-40160552D01*
X79949523Y-40160552D02*
X79854285Y-40208171D01*
X79854285Y-40208171D02*
X79806666Y-40303409D01*
X79806666Y-40303409D02*
X79806666Y-40398647D01*
X79806666Y-40398647D02*
X80282856Y-40493885D01*
X79378094Y-40827219D02*
X79378094Y-40160552D01*
X79378094Y-40351028D02*
X79330475Y-40255790D01*
X79330475Y-40255790D02*
X79282856Y-40208171D01*
X79282856Y-40208171D02*
X79187618Y-40160552D01*
X79187618Y-40160552D02*
X79092380Y-40160552D01*
X78806665Y-40779600D02*
X78711427Y-40827219D01*
X78711427Y-40827219D02*
X78520951Y-40827219D01*
X78520951Y-40827219D02*
X78425713Y-40779600D01*
X78425713Y-40779600D02*
X78378094Y-40684361D01*
X78378094Y-40684361D02*
X78378094Y-40636742D01*
X78378094Y-40636742D02*
X78425713Y-40541504D01*
X78425713Y-40541504D02*
X78520951Y-40493885D01*
X78520951Y-40493885D02*
X78663808Y-40493885D01*
X78663808Y-40493885D02*
X78759046Y-40446266D01*
X78759046Y-40446266D02*
X78806665Y-40351028D01*
X78806665Y-40351028D02*
X78806665Y-40303409D01*
X78806665Y-40303409D02*
X78759046Y-40208171D01*
X78759046Y-40208171D02*
X78663808Y-40160552D01*
X78663808Y-40160552D02*
X78520951Y-40160552D01*
X78520951Y-40160552D02*
X78425713Y-40208171D01*
X77949522Y-40827219D02*
X77949522Y-40160552D01*
X77949522Y-39827219D02*
X77997141Y-39874838D01*
X77997141Y-39874838D02*
X77949522Y-39922457D01*
X77949522Y-39922457D02*
X77901903Y-39874838D01*
X77901903Y-39874838D02*
X77949522Y-39827219D01*
X77949522Y-39827219D02*
X77949522Y-39922457D01*
X77330475Y-40827219D02*
X77425713Y-40779600D01*
X77425713Y-40779600D02*
X77473332Y-40731980D01*
X77473332Y-40731980D02*
X77520951Y-40636742D01*
X77520951Y-40636742D02*
X77520951Y-40351028D01*
X77520951Y-40351028D02*
X77473332Y-40255790D01*
X77473332Y-40255790D02*
X77425713Y-40208171D01*
X77425713Y-40208171D02*
X77330475Y-40160552D01*
X77330475Y-40160552D02*
X77187618Y-40160552D01*
X77187618Y-40160552D02*
X77092380Y-40208171D01*
X77092380Y-40208171D02*
X77044761Y-40255790D01*
X77044761Y-40255790D02*
X76997142Y-40351028D01*
X76997142Y-40351028D02*
X76997142Y-40636742D01*
X76997142Y-40636742D02*
X77044761Y-40731980D01*
X77044761Y-40731980D02*
X77092380Y-40779600D01*
X77092380Y-40779600D02*
X77187618Y-40827219D01*
X77187618Y-40827219D02*
X77330475Y-40827219D01*
X76568570Y-40160552D02*
X76568570Y-40827219D01*
X76568570Y-40255790D02*
X76520951Y-40208171D01*
X76520951Y-40208171D02*
X76425713Y-40160552D01*
X76425713Y-40160552D02*
X76282856Y-40160552D01*
X76282856Y-40160552D02*
X76187618Y-40208171D01*
X76187618Y-40208171D02*
X76139999Y-40303409D01*
X76139999Y-40303409D02*
X76139999Y-40827219D01*
X75663808Y-40731980D02*
X75616189Y-40779600D01*
X75616189Y-40779600D02*
X75663808Y-40827219D01*
X75663808Y-40827219D02*
X75711427Y-40779600D01*
X75711427Y-40779600D02*
X75663808Y-40731980D01*
X75663808Y-40731980D02*
X75663808Y-40827219D01*
X75663808Y-40208171D02*
X75616189Y-40255790D01*
X75616189Y-40255790D02*
X75663808Y-40303409D01*
X75663808Y-40303409D02*
X75711427Y-40255790D01*
X75711427Y-40255790D02*
X75663808Y-40208171D01*
X75663808Y-40208171D02*
X75663808Y-40303409D01*
X74235237Y-39827219D02*
X74139999Y-39827219D01*
X74139999Y-39827219D02*
X74044761Y-39874838D01*
X74044761Y-39874838D02*
X73997142Y-39922457D01*
X73997142Y-39922457D02*
X73949523Y-40017695D01*
X73949523Y-40017695D02*
X73901904Y-40208171D01*
X73901904Y-40208171D02*
X73901904Y-40446266D01*
X73901904Y-40446266D02*
X73949523Y-40636742D01*
X73949523Y-40636742D02*
X73997142Y-40731980D01*
X73997142Y-40731980D02*
X74044761Y-40779600D01*
X74044761Y-40779600D02*
X74139999Y-40827219D01*
X74139999Y-40827219D02*
X74235237Y-40827219D01*
X74235237Y-40827219D02*
X74330475Y-40779600D01*
X74330475Y-40779600D02*
X74378094Y-40731980D01*
X74378094Y-40731980D02*
X74425713Y-40636742D01*
X74425713Y-40636742D02*
X74473332Y-40446266D01*
X74473332Y-40446266D02*
X74473332Y-40208171D01*
X74473332Y-40208171D02*
X74425713Y-40017695D01*
X74425713Y-40017695D02*
X74378094Y-39922457D01*
X74378094Y-39922457D02*
X74330475Y-39874838D01*
X74330475Y-39874838D02*
X74235237Y-39827219D01*
X73568570Y-39827219D02*
X72949523Y-39827219D01*
X72949523Y-39827219D02*
X73282856Y-40208171D01*
X73282856Y-40208171D02*
X73139999Y-40208171D01*
X73139999Y-40208171D02*
X73044761Y-40255790D01*
X73044761Y-40255790D02*
X72997142Y-40303409D01*
X72997142Y-40303409D02*
X72949523Y-40398647D01*
X72949523Y-40398647D02*
X72949523Y-40636742D01*
X72949523Y-40636742D02*
X72997142Y-40731980D01*
X72997142Y-40731980D02*
X73044761Y-40779600D01*
X73044761Y-40779600D02*
X73139999Y-40827219D01*
X73139999Y-40827219D02*
X73425713Y-40827219D01*
X73425713Y-40827219D02*
X73520951Y-40779600D01*
X73520951Y-40779600D02*
X73568570Y-40731980D01*
X71806666Y-39779600D02*
X72663808Y-41065314D01*
X71282856Y-39827219D02*
X71187618Y-39827219D01*
X71187618Y-39827219D02*
X71092380Y-39874838D01*
X71092380Y-39874838D02*
X71044761Y-39922457D01*
X71044761Y-39922457D02*
X70997142Y-40017695D01*
X70997142Y-40017695D02*
X70949523Y-40208171D01*
X70949523Y-40208171D02*
X70949523Y-40446266D01*
X70949523Y-40446266D02*
X70997142Y-40636742D01*
X70997142Y-40636742D02*
X71044761Y-40731980D01*
X71044761Y-40731980D02*
X71092380Y-40779600D01*
X71092380Y-40779600D02*
X71187618Y-40827219D01*
X71187618Y-40827219D02*
X71282856Y-40827219D01*
X71282856Y-40827219D02*
X71378094Y-40779600D01*
X71378094Y-40779600D02*
X71425713Y-40731980D01*
X71425713Y-40731980D02*
X71473332Y-40636742D01*
X71473332Y-40636742D02*
X71520951Y-40446266D01*
X71520951Y-40446266D02*
X71520951Y-40208171D01*
X71520951Y-40208171D02*
X71473332Y-40017695D01*
X71473332Y-40017695D02*
X71425713Y-39922457D01*
X71425713Y-39922457D02*
X71378094Y-39874838D01*
X71378094Y-39874838D02*
X71282856Y-39827219D01*
X70568570Y-39922457D02*
X70520951Y-39874838D01*
X70520951Y-39874838D02*
X70425713Y-39827219D01*
X70425713Y-39827219D02*
X70187618Y-39827219D01*
X70187618Y-39827219D02*
X70092380Y-39874838D01*
X70092380Y-39874838D02*
X70044761Y-39922457D01*
X70044761Y-39922457D02*
X69997142Y-40017695D01*
X69997142Y-40017695D02*
X69997142Y-40112933D01*
X69997142Y-40112933D02*
X70044761Y-40255790D01*
X70044761Y-40255790D02*
X70616189Y-40827219D01*
X70616189Y-40827219D02*
X69997142Y-40827219D01*
X68854285Y-39779600D02*
X69711427Y-41065314D01*
X68568570Y-39922457D02*
X68520951Y-39874838D01*
X68520951Y-39874838D02*
X68425713Y-39827219D01*
X68425713Y-39827219D02*
X68187618Y-39827219D01*
X68187618Y-39827219D02*
X68092380Y-39874838D01*
X68092380Y-39874838D02*
X68044761Y-39922457D01*
X68044761Y-39922457D02*
X67997142Y-40017695D01*
X67997142Y-40017695D02*
X67997142Y-40112933D01*
X67997142Y-40112933D02*
X68044761Y-40255790D01*
X68044761Y-40255790D02*
X68616189Y-40827219D01*
X68616189Y-40827219D02*
X67997142Y-40827219D01*
X67378094Y-39827219D02*
X67282856Y-39827219D01*
X67282856Y-39827219D02*
X67187618Y-39874838D01*
X67187618Y-39874838D02*
X67139999Y-39922457D01*
X67139999Y-39922457D02*
X67092380Y-40017695D01*
X67092380Y-40017695D02*
X67044761Y-40208171D01*
X67044761Y-40208171D02*
X67044761Y-40446266D01*
X67044761Y-40446266D02*
X67092380Y-40636742D01*
X67092380Y-40636742D02*
X67139999Y-40731980D01*
X67139999Y-40731980D02*
X67187618Y-40779600D01*
X67187618Y-40779600D02*
X67282856Y-40827219D01*
X67282856Y-40827219D02*
X67378094Y-40827219D01*
X67378094Y-40827219D02*
X67473332Y-40779600D01*
X67473332Y-40779600D02*
X67520951Y-40731980D01*
X67520951Y-40731980D02*
X67568570Y-40636742D01*
X67568570Y-40636742D02*
X67616189Y-40446266D01*
X67616189Y-40446266D02*
X67616189Y-40208171D01*
X67616189Y-40208171D02*
X67568570Y-40017695D01*
X67568570Y-40017695D02*
X67520951Y-39922457D01*
X67520951Y-39922457D02*
X67473332Y-39874838D01*
X67473332Y-39874838D02*
X67378094Y-39827219D01*
X66663808Y-39922457D02*
X66616189Y-39874838D01*
X66616189Y-39874838D02*
X66520951Y-39827219D01*
X66520951Y-39827219D02*
X66282856Y-39827219D01*
X66282856Y-39827219D02*
X66187618Y-39874838D01*
X66187618Y-39874838D02*
X66139999Y-39922457D01*
X66139999Y-39922457D02*
X66092380Y-40017695D01*
X66092380Y-40017695D02*
X66092380Y-40112933D01*
X66092380Y-40112933D02*
X66139999Y-40255790D01*
X66139999Y-40255790D02*
X66711427Y-40827219D01*
X66711427Y-40827219D02*
X66092380Y-40827219D01*
X65235237Y-39827219D02*
X65425713Y-39827219D01*
X65425713Y-39827219D02*
X65520951Y-39874838D01*
X65520951Y-39874838D02*
X65568570Y-39922457D01*
X65568570Y-39922457D02*
X65663808Y-40065314D01*
X65663808Y-40065314D02*
X65711427Y-40255790D01*
X65711427Y-40255790D02*
X65711427Y-40636742D01*
X65711427Y-40636742D02*
X65663808Y-40731980D01*
X65663808Y-40731980D02*
X65616189Y-40779600D01*
X65616189Y-40779600D02*
X65520951Y-40827219D01*
X65520951Y-40827219D02*
X65330475Y-40827219D01*
X65330475Y-40827219D02*
X65235237Y-40779600D01*
X65235237Y-40779600D02*
X65187618Y-40731980D01*
X65187618Y-40731980D02*
X65139999Y-40636742D01*
X65139999Y-40636742D02*
X65139999Y-40398647D01*
X65139999Y-40398647D02*
X65187618Y-40303409D01*
X65187618Y-40303409D02*
X65235237Y-40255790D01*
X65235237Y-40255790D02*
X65330475Y-40208171D01*
X65330475Y-40208171D02*
X65520951Y-40208171D01*
X65520951Y-40208171D02*
X65616189Y-40255790D01*
X65616189Y-40255790D02*
X65663808Y-40303409D01*
X65663808Y-40303409D02*
X65711427Y-40398647D01*
M02*
