M48
; DRILL file {KiCad 9.0.7} date 2026-02-03T18:24:27-0500
; FORMAT={-:-/ absolute / metric / decimal}
; #@! TF.CreationDate,2026-02-03T18:24:27-05:00
; #@! TF.GenerationSoftware,Kicad,Pcbnew,9.0.7
; #@! TF.FileFunction,Plated,1,2,PTH
FMAT,2
METRIC
; #@! TA.AperFunction,Plated,PTH,ViaDrill
T1C0.300
%
G90
G05
T1
X57.66Y-27.99
X57.66Y-31.01
X57.68Y-32.55
X57.68Y-38.49
X57.681Y-25.0
X57.682Y-26.5
X57.683Y-29.5
X57.685Y-34.0
X57.686Y-35.5
X57.687Y-37.0
X57.689Y-41.5
X57.69Y-40.0
X59.169Y-27.99
X59.169Y-31.01
X59.189Y-32.55
X59.189Y-38.49
X59.19Y-25.0
X59.191Y-26.5
X59.192Y-29.5
X59.195Y-34.0
X59.195Y-35.5
X59.196Y-37.0
X59.198Y-41.5
X59.199Y-40.0
X60.67Y-27.99
X60.67Y-31.01
X60.69Y-32.55
X60.69Y-38.49
X60.691Y-25.0
X60.692Y-26.5
X60.693Y-29.5
X60.695Y-34.0
X60.696Y-35.5
X60.697Y-37.0
X60.699Y-41.5
X60.7Y-40.0
X62.179Y-27.99
X62.179Y-31.01
X62.199Y-32.55
X62.199Y-38.49
X62.2Y-25.0
X62.201Y-26.5
X62.202Y-29.5
X62.205Y-34.0
X62.205Y-35.5
X62.206Y-37.0
X62.208Y-41.5
X62.209Y-40.0
X64.54Y-28.42
X70.53Y-28.29
X72.48Y-24.38
X72.48Y-25.72
X72.48Y-27.06
X72.5Y-28.4
X74.12Y-24.44
X74.12Y-25.78
X74.12Y-27.12
X74.14Y-28.46
X76.67Y-28.38
X82.88Y-28.36
X85.18Y-40.06
X85.181Y-41.56
X85.183Y-37.06
X85.184Y-35.56
X85.185Y-34.06
X85.187Y-29.56
X85.188Y-26.56
X85.189Y-25.06
X85.19Y-32.61
X85.19Y-38.55
X85.21Y-28.05
X85.21Y-31.07
X86.689Y-40.06
X86.69Y-41.56
X86.692Y-37.06
X86.693Y-35.56
X86.694Y-34.06
X86.696Y-29.56
X86.698Y-26.56
X86.698Y-25.06
X86.699Y-32.61
X86.699Y-38.55
X86.719Y-28.05
X86.719Y-31.07
X88.19Y-40.06
X88.191Y-41.56
X88.193Y-37.06
X88.194Y-35.56
X88.195Y-34.06
X88.197Y-29.56
X88.198Y-26.56
X88.199Y-25.06
X88.2Y-32.61
X88.2Y-38.55
X88.22Y-28.05
X88.22Y-31.07
X89.699Y-40.06
X89.7Y-41.56
X89.702Y-37.06
X89.703Y-35.56
X89.704Y-34.06
X89.706Y-29.56
X89.708Y-26.56
X89.708Y-25.06
X89.709Y-32.61
X89.709Y-38.55
X89.729Y-28.05
X89.729Y-31.07
M30
