%TF.GenerationSoftware,KiCad,Pcbnew,9.0.7*%
%TF.CreationDate,2026-02-03T18:24:31-05:00*%
%TF.ProjectId,pcb_sma_solarcell,7063625f-736d-4615-9f73-6f6c61726365,rev?*%
%TF.SameCoordinates,Original*%
%TF.FileFunction,Copper,L1,Top*%
%TF.FilePolarity,Positive*%
%FSLAX46Y46*%
G04 Gerber Fmt 4.6, Leading zero omitted, Abs format (unit mm)*
G04 Created by KiCad (PCBNEW 9.0.7) date 2026-02-03 18:24:31*
%MOMM*%
%LPD*%
G01*
G04 APERTURE LIST*
G04 Aperture macros list*
%AMOutline4P*
0 Free polygon, 4 corners , with rotation*
0 The origin of the aperture is its center*
0 number of corners: always 4*
0 $1 to $8 corner X, Y*
0 $9 Rotation angle, in degrees counterclockwise*
0 create outline with 4 corners*
4,1,4,$1,$2,$3,$4,$5,$6,$7,$8,$1,$2,$9*%
G04 Aperture macros list end*
%TA.AperFunction,Conductor*%
%ADD10C,0.100000*%
%TD*%
%TA.AperFunction,SMDPad,CuDef*%
%ADD11R,1.500000X3.500000*%
%TD*%
%TA.AperFunction,SMDPad,CuDef*%
%ADD12Outline4P,-1.607125X-2.500000X1.607125X-2.500000X1.602625X2.500000X-1.602625X2.500000X180.000000*%
%TD*%
%TA.AperFunction,SMDPad,CuDef*%
%ADD13Outline4P,-5.727750X-2.500000X5.727750X-2.500000X5.723250X2.500000X-5.723250X2.500000X180.000000*%
%TD*%
%TA.AperFunction,SMDPad,CuDef*%
%ADD14Outline4P,-1.342750X-2.500000X1.342750X-2.500000X1.338250X2.500000X-1.338250X2.500000X0.000000*%
%TD*%
%TA.AperFunction,SMDPad,CuDef*%
%ADD15Outline4P,-0.117250X-2.500000X0.117250X-2.500000X0.112750X2.500000X-0.112750X2.500000X0.000000*%
%TD*%
%TA.AperFunction,SMDPad,CuDef*%
%ADD16Outline4P,-0.146000X-2.500000X0.146000X-2.500000X0.141500X2.500000X-0.141500X2.500000X180.000000*%
%TD*%
%TA.AperFunction,ViaPad*%
%ADD17C,0.600000*%
%TD*%
%TA.AperFunction,Conductor*%
%ADD18C,0.260000*%
%TD*%
G04 APERTURE END LIST*
D10*
%TO.N,/V2*%
X80246006Y-26534066D02*
X79586006Y-29434066D01*
X79576006Y-29884066D01*
X79386006Y-29884066D01*
X79386006Y-29434066D01*
X78746006Y-26534066D01*
X78746006Y-25784066D01*
X80246006Y-25784066D01*
X80246006Y-26534066D01*
%TA.AperFunction,Conductor*%
G36*
X80246006Y-26534066D02*
G01*
X79586006Y-29434066D01*
X79576006Y-29884066D01*
X79386006Y-29884066D01*
X79386006Y-29434066D01*
X78746006Y-26534066D01*
X78746006Y-25784066D01*
X80246006Y-25784066D01*
X80246006Y-26534066D01*
G37*
%TD.AperFunction*%
%TO.N,/V1*%
X68101876Y-26586936D02*
X67441876Y-29486936D01*
X67431876Y-29936936D01*
X67241876Y-29936936D01*
X67241876Y-29486936D01*
X66601876Y-26586936D01*
X66601876Y-25836936D01*
X68101876Y-25836936D01*
X68101876Y-26586936D01*
%TA.AperFunction,Conductor*%
G36*
X68101876Y-26586936D02*
G01*
X67441876Y-29486936D01*
X67431876Y-29936936D01*
X67241876Y-29936936D01*
X67241876Y-29486936D01*
X66601876Y-26586936D01*
X66601876Y-25836936D01*
X68101876Y-25836936D01*
X68101876Y-26586936D01*
G37*
%TD.AperFunction*%
%TD*%
D11*
%TO.P,J1,1*%
%TO.N,/V1*%
X67370000Y-24980000D03*
%TO.P,J1,G1*%
%TO.N,/GND*%
X70070000Y-24980000D03*
%TO.P,J1,G2*%
X64670000Y-24980000D03*
%TD*%
D12*
%TO.P,REF\u002A\u002A,GND*%
%TO.N,/GND*%
X65397125Y-31890000D03*
D13*
X73410000Y-31890000D03*
D14*
X81213750Y-31890000D03*
D15*
%TO.P,REF\u002A\u002A,V1*%
%TO.N,/V1*%
X67338250Y-31910000D03*
D16*
%TO.P,REF\u002A\u002A,V2*%
%TO.N,/V2*%
X79498250Y-31890000D03*
%TD*%
D11*
%TO.P,J2,1*%
%TO.N,/V2*%
X79480000Y-24895000D03*
%TO.P,J2,G1*%
%TO.N,/GND*%
X82180000Y-24895000D03*
%TO.P,J2,G2*%
X76780000Y-24895000D03*
%TD*%
D17*
%TO.N,/GND*%
X88194665Y-34060000D03*
X88220000Y-28050000D03*
X59189232Y-38490000D03*
X86699232Y-38550000D03*
X60696860Y-37000000D03*
X85188476Y-26560000D03*
X86698470Y-25060000D03*
X88196951Y-29560000D03*
X60695335Y-34000000D03*
X59196092Y-37000000D03*
X59189232Y-32550000D03*
X85189238Y-25060000D03*
X57685329Y-34000000D03*
X89702378Y-37060000D03*
X89703903Y-34060000D03*
X88200000Y-32610000D03*
X59195330Y-35500000D03*
X85184665Y-34060000D03*
X72480000Y-24380000D03*
X70530000Y-28290000D03*
X85190000Y-38550000D03*
X62200756Y-26500000D03*
X85210000Y-28050000D03*
X86692372Y-37060000D03*
X60690762Y-25000000D03*
X59189994Y-25000000D03*
X89708476Y-25060000D03*
X57681518Y-26500000D03*
X62209232Y-40000000D03*
X59190756Y-26500000D03*
X88198476Y-26560000D03*
X89729238Y-28050000D03*
X89706189Y-29560000D03*
X85183902Y-35560000D03*
X86697708Y-26560000D03*
X57680756Y-25000000D03*
X88193902Y-35560000D03*
X62179232Y-31010000D03*
X72480000Y-27060000D03*
X86719232Y-28050000D03*
X57689994Y-40000000D03*
X88190000Y-40060000D03*
X74120000Y-27120000D03*
X85190000Y-32610000D03*
X74120000Y-25780000D03*
X60699146Y-41500000D03*
X88193140Y-37060000D03*
X62199232Y-38490000D03*
X86696183Y-29560000D03*
X60690000Y-32550000D03*
X89709238Y-32610000D03*
X89700092Y-41560000D03*
X74120000Y-24440000D03*
X88190854Y-41560000D03*
X60670000Y-27990000D03*
X76670000Y-28380000D03*
X57679994Y-32550000D03*
X82880000Y-28360000D03*
X85180854Y-41560000D03*
X62206092Y-37000000D03*
X62204567Y-34000000D03*
X85210000Y-31070000D03*
X57686092Y-35500000D03*
X85180000Y-40060000D03*
X72500000Y-28400000D03*
X89703140Y-35560000D03*
X59192281Y-29500000D03*
X57689140Y-41500000D03*
X86690086Y-41560000D03*
X62202281Y-29500000D03*
X86693897Y-34060000D03*
X60670000Y-31010000D03*
X86693134Y-35560000D03*
X59198378Y-41500000D03*
X88200000Y-38550000D03*
X59169232Y-31010000D03*
X60696098Y-35500000D03*
X62179232Y-27990000D03*
X60700000Y-40000000D03*
X60693049Y-29500000D03*
X57659994Y-27990000D03*
X62205330Y-35500000D03*
X64540000Y-28420000D03*
X88220000Y-31070000D03*
X57683043Y-29500000D03*
X59169232Y-27990000D03*
X85186951Y-29560000D03*
X85183140Y-37060000D03*
X74140000Y-28460000D03*
X59194567Y-34000000D03*
X60690000Y-38490000D03*
X57679994Y-38490000D03*
X89699238Y-40060000D03*
X89729238Y-31070000D03*
X88199238Y-25060000D03*
X59199232Y-40000000D03*
X62199232Y-32550000D03*
X86719232Y-31070000D03*
X57686854Y-37000000D03*
X60691524Y-26500000D03*
X72480000Y-25720000D03*
X86689232Y-40060000D03*
X86699232Y-32610000D03*
X62208378Y-41500000D03*
X62199994Y-25000000D03*
X89707714Y-26560000D03*
X57659994Y-31010000D03*
X89709238Y-38550000D03*
%TD*%
D18*
%TO.N,/GND*%
X77320000Y-25475000D02*
X77250000Y-25405000D01*
X82520000Y-25535000D02*
X82650000Y-25405000D01*
X69830000Y-25560000D02*
X70050000Y-25340000D01*
X64760000Y-25450000D02*
X64650000Y-25340000D01*
%TD*%
%TA.AperFunction,Conductor*%
%TO.N,/GND*%
G36*
X63367450Y-23030185D02*
G01*
X63413205Y-23082989D01*
X63423700Y-23147758D01*
X63420000Y-23182160D01*
X63420000Y-24730000D01*
X64546000Y-24730000D01*
X64613039Y-24749685D01*
X64658794Y-24802489D01*
X64670000Y-24854000D01*
X64670000Y-24980000D01*
X64796000Y-24980000D01*
X64863039Y-24999685D01*
X64908794Y-25052489D01*
X64920000Y-25104000D01*
X64920000Y-27230000D01*
X65467828Y-27230000D01*
X65467844Y-27229999D01*
X65527372Y-27223598D01*
X65527376Y-27223597D01*
X65581482Y-27203417D01*
X65651174Y-27198433D01*
X65712497Y-27231917D01*
X65731531Y-27256449D01*
X66437841Y-28450024D01*
X66452212Y-28486451D01*
X66683462Y-29534297D01*
X66686376Y-29561020D01*
X66686376Y-29936942D01*
X66697995Y-30049957D01*
X66717177Y-30103932D01*
X66724336Y-30145567D01*
X66720620Y-34274862D01*
X66700875Y-34341883D01*
X66648030Y-34387591D01*
X66596236Y-34398749D01*
X63770000Y-34389999D01*
X63769999Y-34390000D01*
X63752110Y-35391786D01*
X63731232Y-35458463D01*
X63677619Y-35503268D01*
X63631819Y-35513517D01*
X63330000Y-35522499D01*
X63320402Y-42556541D01*
X63300626Y-42623554D01*
X63247759Y-42669237D01*
X63196402Y-42680372D01*
X56632500Y-42680372D01*
X56565461Y-42660687D01*
X56519706Y-42607883D01*
X56508500Y-42556372D01*
X56508500Y-26777844D01*
X63420000Y-26777844D01*
X63426401Y-26837372D01*
X63426403Y-26837379D01*
X63476645Y-26972086D01*
X63476649Y-26972093D01*
X63562809Y-27087187D01*
X63562812Y-27087190D01*
X63677906Y-27173350D01*
X63677913Y-27173354D01*
X63812620Y-27223596D01*
X63812627Y-27223598D01*
X63872155Y-27229999D01*
X63872172Y-27230000D01*
X64420000Y-27230000D01*
X64420000Y-25230000D01*
X63420000Y-25230000D01*
X63420000Y-26777844D01*
X56508500Y-26777844D01*
X56508500Y-23134500D01*
X56528185Y-23067461D01*
X56580989Y-23021706D01*
X56632500Y-23010500D01*
X63300411Y-23010500D01*
X63367450Y-23030185D01*
G37*
%TD.AperFunction*%
%TD*%
%TA.AperFunction,Conductor*%
%TO.N,/GND*%
G36*
X75473039Y-23030185D02*
G01*
X75518794Y-23082989D01*
X75530000Y-23134500D01*
X75530000Y-24645000D01*
X76656000Y-24645000D01*
X76723039Y-24664685D01*
X76768794Y-24717489D01*
X76780000Y-24769000D01*
X76780000Y-24895000D01*
X76906000Y-24895000D01*
X76973039Y-24914685D01*
X77018794Y-24967489D01*
X77030000Y-25019000D01*
X77030000Y-27145000D01*
X77577828Y-27145000D01*
X77577844Y-27144999D01*
X77637372Y-27138598D01*
X77637383Y-27138595D01*
X77712005Y-27110763D01*
X77781696Y-27105778D01*
X77843020Y-27139262D01*
X77862740Y-27164967D01*
X78587731Y-28421317D01*
X78601416Y-28456571D01*
X78827592Y-29481427D01*
X78830506Y-29508150D01*
X78830506Y-29884072D01*
X78842125Y-29997087D01*
X78845181Y-30005685D01*
X78852340Y-30047096D01*
X78856137Y-34265350D01*
X78836513Y-34332408D01*
X78783750Y-34378210D01*
X78731974Y-34389462D01*
X68079694Y-34375433D01*
X68012680Y-34355660D01*
X67966995Y-34302796D01*
X67955857Y-34251548D01*
X67952166Y-30150153D01*
X67961615Y-30107004D01*
X67960845Y-30106770D01*
X67963312Y-30098661D01*
X67963315Y-30098655D01*
X67987239Y-29949277D01*
X67995711Y-29567969D01*
X67998772Y-29543211D01*
X68232153Y-28517750D01*
X68247324Y-28480500D01*
X69000462Y-27251453D01*
X69052271Y-27204579D01*
X69121201Y-27193156D01*
X69149522Y-27200062D01*
X69212623Y-27223597D01*
X69212627Y-27223598D01*
X69272155Y-27229999D01*
X69272172Y-27230000D01*
X69820000Y-27230000D01*
X70320000Y-27230000D01*
X70867828Y-27230000D01*
X70867844Y-27229999D01*
X70927372Y-27223598D01*
X70927379Y-27223596D01*
X71062086Y-27173354D01*
X71062093Y-27173350D01*
X71177187Y-27087190D01*
X71177190Y-27087187D01*
X71263350Y-26972093D01*
X71263354Y-26972086D01*
X71313596Y-26837379D01*
X71313598Y-26837372D01*
X71319999Y-26777844D01*
X71320000Y-26777827D01*
X71320000Y-26692844D01*
X75530000Y-26692844D01*
X75536401Y-26752372D01*
X75536403Y-26752379D01*
X75586645Y-26887086D01*
X75586649Y-26887093D01*
X75672809Y-27002187D01*
X75672812Y-27002190D01*
X75787906Y-27088350D01*
X75787913Y-27088354D01*
X75922620Y-27138596D01*
X75922627Y-27138598D01*
X75982155Y-27144999D01*
X75982172Y-27145000D01*
X76530000Y-27145000D01*
X76530000Y-25145000D01*
X75530000Y-25145000D01*
X75530000Y-26692844D01*
X71320000Y-26692844D01*
X71320000Y-25230000D01*
X70320000Y-25230000D01*
X70320000Y-27230000D01*
X69820000Y-27230000D01*
X69820000Y-25104000D01*
X69839685Y-25036961D01*
X69892489Y-24991206D01*
X69944000Y-24980000D01*
X70070000Y-24980000D01*
X70070000Y-24854000D01*
X70089685Y-24786961D01*
X70142489Y-24741206D01*
X70194000Y-24730000D01*
X71320000Y-24730000D01*
X71320000Y-23182172D01*
X71319999Y-23182160D01*
X71316300Y-23147758D01*
X71328704Y-23078998D01*
X71376313Y-23027860D01*
X71439589Y-23010500D01*
X75406000Y-23010500D01*
X75473039Y-23030185D01*
G37*
%TD.AperFunction*%
%TD*%
%TA.AperFunction,Conductor*%
%TO.N,/GND*%
G36*
X90892539Y-23030185D02*
G01*
X90938294Y-23082989D01*
X90949500Y-23134500D01*
X90949500Y-42556372D01*
X90929815Y-42623411D01*
X90877011Y-42669166D01*
X90825500Y-42680372D01*
X83192393Y-42680372D01*
X83125354Y-42660687D01*
X83079599Y-42607883D01*
X83068393Y-42556308D01*
X83069034Y-41308300D01*
X83072000Y-35540000D01*
X83071786Y-35539999D01*
X82673247Y-35539846D01*
X82606215Y-35520136D01*
X82560481Y-35467314D01*
X82549301Y-35416973D01*
X82540000Y-34390000D01*
X82540000Y-34389999D01*
X80264818Y-34398520D01*
X80197706Y-34379087D01*
X80151753Y-34326455D01*
X80140354Y-34274411D01*
X80144654Y-29496455D01*
X80147745Y-29469061D01*
X80301402Y-28793901D01*
X80312559Y-28763710D01*
X81141926Y-27186754D01*
X81190550Y-27136588D01*
X81258583Y-27120671D01*
X81295005Y-27128297D01*
X81322621Y-27138597D01*
X81382155Y-27144999D01*
X81382172Y-27145000D01*
X81930000Y-27145000D01*
X82430000Y-27145000D01*
X82977828Y-27145000D01*
X82977844Y-27144999D01*
X83037372Y-27138598D01*
X83037379Y-27138596D01*
X83172086Y-27088354D01*
X83172093Y-27088350D01*
X83287187Y-27002190D01*
X83287190Y-27002187D01*
X83373350Y-26887093D01*
X83373354Y-26887086D01*
X83423596Y-26752379D01*
X83423598Y-26752372D01*
X83429999Y-26692844D01*
X83430000Y-26692827D01*
X83430000Y-25145000D01*
X82430000Y-25145000D01*
X82430000Y-27145000D01*
X81930000Y-27145000D01*
X81930000Y-25019000D01*
X81949685Y-24951961D01*
X82002489Y-24906206D01*
X82054000Y-24895000D01*
X82180000Y-24895000D01*
X82180000Y-24769000D01*
X82199685Y-24701961D01*
X82252489Y-24656206D01*
X82304000Y-24645000D01*
X83430000Y-24645000D01*
X83430000Y-23134500D01*
X83449685Y-23067461D01*
X83502489Y-23021706D01*
X83554000Y-23010500D01*
X90825500Y-23010500D01*
X90892539Y-23030185D01*
G37*
%TD.AperFunction*%
%TD*%
M02*
