%TF.GenerationSoftware,KiCad,Pcbnew,9.0.7*%
%TF.CreationDate,2026-01-22T12:13:44-05:00*%
%TF.ProjectId,pcb_sma_solarcell,7063625f-736d-4615-9f73-6f6c61726365,rev?*%
%TF.SameCoordinates,Original*%
%TF.FileFunction,Copper,L2,Bot*%
%TF.FilePolarity,Positive*%
%FSLAX46Y46*%
G04 Gerber Fmt 4.6, Leading zero omitted, Abs format (unit mm)*
G04 Created by KiCad (PCBNEW 9.0.7) date 2026-01-22 12:13:44*
%MOMM*%
%LPD*%
G01*
G04 APERTURE LIST*
%TA.AperFunction,SMDPad,CuDef*%
%ADD10R,1.500000X3.500000*%
%TD*%
%TA.AperFunction,ViaPad*%
%ADD11C,0.600000*%
%TD*%
G04 APERTURE END LIST*
D10*
%TO.P,J1,G3*%
%TO.N,/GND*%
X70030000Y-29812500D03*
%TO.P,J1,G4*%
X64630000Y-29812500D03*
%TD*%
%TO.P,J3,G3*%
%TO.N,/GND*%
X64610000Y-146290000D03*
%TO.P,J3,G4*%
X70010000Y-146290000D03*
%TD*%
%TO.P,J4,G3*%
%TO.N,/GND*%
X77250000Y-146285000D03*
%TO.P,J4,G4*%
X82650000Y-146285000D03*
%TD*%
%TO.P,J2,G3*%
%TO.N,/GND*%
X82680000Y-29845000D03*
%TO.P,J2,G4*%
X77280000Y-29845000D03*
%TD*%
D11*
%TO.N,/GND*%
X89630000Y-136740000D03*
X62362287Y-135230000D03*
X62359238Y-138280000D03*
X72440000Y-144900000D03*
X88135427Y-37790000D03*
X88160762Y-31780000D03*
X89600854Y-147230000D03*
X59359238Y-42300000D03*
X85080762Y-145730000D03*
X60850006Y-144220000D03*
X85110762Y-133720000D03*
X86639994Y-42280000D03*
X60859152Y-147230000D03*
X60866866Y-40810000D03*
X85129238Y-30290000D03*
X88094664Y-141230000D03*
X86639232Y-28790000D03*
X59350000Y-130730000D03*
X88137713Y-33290000D03*
X62366098Y-142730000D03*
X85110762Y-136740000D03*
X60865341Y-37810000D03*
X85085427Y-139730000D03*
X59366098Y-40810000D03*
X59359238Y-36360000D03*
X85130000Y-28790000D03*
X57855335Y-37810000D03*
X88091616Y-147230000D03*
X89643140Y-40790000D03*
X89644665Y-37790000D03*
X85087713Y-135230000D03*
X85081616Y-147230000D03*
X88140762Y-36340000D03*
X59365336Y-39310000D03*
X89630000Y-133720000D03*
X72430000Y-147580000D03*
X85125427Y-37790000D03*
X72390000Y-28630000D03*
X70290000Y-32930000D03*
X57841524Y-132230000D03*
X57840000Y-144220000D03*
X86594659Y-139730000D03*
X86598470Y-132230000D03*
X85130762Y-42280000D03*
X86599994Y-138280000D03*
X62370762Y-30310000D03*
X85150762Y-31780000D03*
X60856104Y-141230000D03*
X64300000Y-143010000D03*
X86633134Y-40790000D03*
X60860768Y-28810000D03*
X74980000Y-144900000D03*
X59360000Y-28810000D03*
X89649238Y-28790000D03*
X60853055Y-135230000D03*
X74980000Y-146240000D03*
X57851524Y-30310000D03*
X60860006Y-145730000D03*
X60830006Y-136740000D03*
X59349238Y-144220000D03*
X89606951Y-135230000D03*
X62379238Y-43810000D03*
X86596945Y-135230000D03*
X59360762Y-30310000D03*
X62365336Y-141230000D03*
X60851530Y-132230000D03*
X57840000Y-138280000D03*
X86599232Y-130730000D03*
X88139238Y-30290000D03*
X89670000Y-31780000D03*
X62339238Y-133720000D03*
X76930000Y-32910000D03*
X89646951Y-33290000D03*
X59349238Y-138280000D03*
X85124664Y-39290000D03*
X86638470Y-30290000D03*
X57850762Y-28810000D03*
X60856866Y-142730000D03*
X88134664Y-39290000D03*
X60855341Y-139730000D03*
X62339238Y-136740000D03*
X62349238Y-34820000D03*
X59352287Y-135230000D03*
X86619994Y-136740000D03*
X72390000Y-31310000D03*
X86659994Y-31780000D03*
X86599994Y-144220000D03*
X88090762Y-145730000D03*
X57860000Y-43810000D03*
X88130762Y-43790000D03*
X59329238Y-133720000D03*
X85130762Y-36340000D03*
X72430000Y-143560000D03*
X88100762Y-138280000D03*
X89603902Y-141230000D03*
X60869152Y-45310000D03*
X88133902Y-40790000D03*
X89603140Y-142730000D03*
X62369238Y-42300000D03*
X86636945Y-33290000D03*
X60860006Y-36360000D03*
X89650000Y-36340000D03*
X88097713Y-135230000D03*
X89640854Y-45290000D03*
X88131616Y-45290000D03*
X60840006Y-31800000D03*
X57850000Y-36360000D03*
X85083902Y-142730000D03*
X82850000Y-33030000D03*
X57820000Y-136740000D03*
X85121616Y-45290000D03*
X62376098Y-40810000D03*
X70660000Y-143010000D03*
X62374573Y-37810000D03*
X76850000Y-142970000D03*
X85150762Y-34800000D03*
X59358384Y-147230000D03*
X59354573Y-139730000D03*
X57856098Y-39310000D03*
X85120762Y-43790000D03*
X72410000Y-32650000D03*
X86593896Y-141230000D03*
X74930000Y-31310000D03*
X57843049Y-135230000D03*
X85090000Y-130730000D03*
X89643902Y-39290000D03*
X62368384Y-147230000D03*
X62360000Y-130730000D03*
X57850000Y-145730000D03*
X59355336Y-141230000D03*
X59362287Y-33310000D03*
X57859146Y-45310000D03*
X86630848Y-45290000D03*
X88100000Y-130730000D03*
X62372287Y-33310000D03*
X86634659Y-37790000D03*
X60840006Y-34820000D03*
X74940000Y-28630000D03*
X86619994Y-133720000D03*
X86633896Y-39290000D03*
X89600000Y-145730000D03*
X59368384Y-45310000D03*
X62359238Y-144220000D03*
X88140762Y-42280000D03*
X89610000Y-144220000D03*
X59339238Y-34820000D03*
X86589994Y-145730000D03*
X62360762Y-132230000D03*
X83090000Y-142920000D03*
X60866104Y-39310000D03*
X62349238Y-31800000D03*
X60870006Y-43810000D03*
X60863055Y-33310000D03*
X57830000Y-31800000D03*
X62375336Y-39310000D03*
X64180000Y-32970000D03*
X88160762Y-34800000D03*
X59356098Y-142730000D03*
X88100762Y-144220000D03*
X57853049Y-33310000D03*
X59339238Y-31800000D03*
X85084664Y-141230000D03*
X59359238Y-145730000D03*
X59329238Y-136740000D03*
X85127713Y-33290000D03*
X57845335Y-139730000D03*
X62364573Y-139730000D03*
X85123902Y-40790000D03*
X88099238Y-132230000D03*
X86590848Y-147230000D03*
X59350762Y-132230000D03*
X59364573Y-37810000D03*
X60850768Y-130730000D03*
X60860006Y-42300000D03*
X57850000Y-42300000D03*
X89640000Y-43790000D03*
X86593134Y-142730000D03*
X57820000Y-133720000D03*
X89604665Y-139730000D03*
X74940000Y-32650000D03*
X89670000Y-34800000D03*
X57840762Y-130730000D03*
X57846860Y-142730000D03*
X85089238Y-132230000D03*
X89609238Y-130730000D03*
X60850006Y-138280000D03*
X72430000Y-146240000D03*
X89610000Y-138280000D03*
X88140000Y-28790000D03*
X59369238Y-43810000D03*
X62369238Y-36360000D03*
X74960000Y-143560000D03*
X86659994Y-34800000D03*
X57849146Y-147230000D03*
X57856860Y-40810000D03*
X74980000Y-147580000D03*
X60861530Y-30310000D03*
X85090762Y-144220000D03*
X72390000Y-29970000D03*
X86629994Y-43790000D03*
X86639994Y-36340000D03*
X62378384Y-45310000D03*
X62369238Y-145730000D03*
X88120762Y-133720000D03*
X62370000Y-28810000D03*
X88120762Y-136740000D03*
X88093902Y-142730000D03*
X89648476Y-30290000D03*
X57830000Y-34820000D03*
X89608476Y-132230000D03*
X74940000Y-29970000D03*
X57846098Y-141230000D03*
X60830006Y-133720000D03*
X85090762Y-138280000D03*
X88095427Y-139730000D03*
X89650000Y-42280000D03*
%TD*%
%TA.AperFunction,Conductor*%
%TO.N,/GND*%
G36*
X63505299Y-27510185D02*
G01*
X63551054Y-27562989D01*
X63560998Y-27632147D01*
X63531973Y-27695703D01*
X63525941Y-27702181D01*
X63522809Y-27705312D01*
X63436649Y-27820406D01*
X63436645Y-27820413D01*
X63386403Y-27955120D01*
X63386401Y-27955127D01*
X63380000Y-28014655D01*
X63380000Y-29562500D01*
X65880000Y-29562500D01*
X65880000Y-28014672D01*
X65879999Y-28014655D01*
X65873598Y-27955127D01*
X65873596Y-27955120D01*
X65823354Y-27820413D01*
X65823350Y-27820406D01*
X65737190Y-27705312D01*
X65734059Y-27702181D01*
X65731936Y-27698294D01*
X65731875Y-27698212D01*
X65731886Y-27698203D01*
X65700574Y-27640858D01*
X65705558Y-27571166D01*
X65747430Y-27515233D01*
X65812894Y-27490816D01*
X65821740Y-27490500D01*
X68838260Y-27490500D01*
X68905299Y-27510185D01*
X68951054Y-27562989D01*
X68960998Y-27632147D01*
X68931973Y-27695703D01*
X68925941Y-27702181D01*
X68922809Y-27705312D01*
X68836649Y-27820406D01*
X68836645Y-27820413D01*
X68786403Y-27955120D01*
X68786401Y-27955127D01*
X68780000Y-28014655D01*
X68780000Y-29562500D01*
X71280000Y-29562500D01*
X71280000Y-28014672D01*
X71279999Y-28014655D01*
X71273598Y-27955127D01*
X71273596Y-27955120D01*
X71223354Y-27820413D01*
X71223350Y-27820406D01*
X71137190Y-27705312D01*
X71134059Y-27702181D01*
X71131936Y-27698294D01*
X71131875Y-27698212D01*
X71131886Y-27698203D01*
X71100574Y-27640858D01*
X71105558Y-27571166D01*
X71147430Y-27515233D01*
X71212894Y-27490816D01*
X71221740Y-27490500D01*
X76130619Y-27490500D01*
X76197658Y-27510185D01*
X76243413Y-27562989D01*
X76253357Y-27632147D01*
X76224332Y-27695703D01*
X76204931Y-27713766D01*
X76172809Y-27737812D01*
X76086649Y-27852906D01*
X76086645Y-27852913D01*
X76036403Y-27987620D01*
X76036401Y-27987627D01*
X76030000Y-28047155D01*
X76030000Y-29595000D01*
X78530000Y-29595000D01*
X78530000Y-28047172D01*
X78529999Y-28047155D01*
X78523598Y-27987627D01*
X78523596Y-27987620D01*
X78473354Y-27852913D01*
X78473350Y-27852906D01*
X78387190Y-27737812D01*
X78355069Y-27713766D01*
X78313199Y-27657832D01*
X78308215Y-27588140D01*
X78341701Y-27526818D01*
X78403024Y-27493333D01*
X78429381Y-27490500D01*
X81530619Y-27490500D01*
X81597658Y-27510185D01*
X81643413Y-27562989D01*
X81653357Y-27632147D01*
X81624332Y-27695703D01*
X81604931Y-27713766D01*
X81572809Y-27737812D01*
X81486649Y-27852906D01*
X81486645Y-27852913D01*
X81436403Y-27987620D01*
X81436401Y-27987627D01*
X81430000Y-28047155D01*
X81430000Y-29595000D01*
X83930000Y-29595000D01*
X83930000Y-28047172D01*
X83929999Y-28047155D01*
X83923598Y-27987627D01*
X83923596Y-27987620D01*
X83873354Y-27852913D01*
X83873350Y-27852906D01*
X83787190Y-27737812D01*
X83755069Y-27713766D01*
X83713199Y-27657832D01*
X83708215Y-27588140D01*
X83741701Y-27526818D01*
X83803024Y-27493333D01*
X83829381Y-27490500D01*
X90825500Y-27490500D01*
X90892539Y-27510185D01*
X90938294Y-27562989D01*
X90949500Y-27614500D01*
X90949500Y-148615500D01*
X90929815Y-148682539D01*
X90877011Y-148728294D01*
X90825500Y-148739500D01*
X83629213Y-148739500D01*
X83562174Y-148719815D01*
X83516419Y-148667011D01*
X83506475Y-148597853D01*
X83535500Y-148534297D01*
X83585880Y-148499318D01*
X83642086Y-148478354D01*
X83642093Y-148478350D01*
X83757187Y-148392190D01*
X83757190Y-148392187D01*
X83843350Y-148277093D01*
X83843354Y-148277086D01*
X83893596Y-148142379D01*
X83893598Y-148142372D01*
X83899999Y-148082844D01*
X83900000Y-148082827D01*
X83900000Y-146535000D01*
X81400000Y-146535000D01*
X81400000Y-148082844D01*
X81406401Y-148142372D01*
X81406403Y-148142379D01*
X81456645Y-148277086D01*
X81456649Y-148277093D01*
X81542809Y-148392187D01*
X81542812Y-148392190D01*
X81657906Y-148478350D01*
X81657913Y-148478354D01*
X81714120Y-148499318D01*
X81770054Y-148541189D01*
X81794471Y-148606653D01*
X81779619Y-148674926D01*
X81730214Y-148724332D01*
X81670787Y-148739500D01*
X78229213Y-148739500D01*
X78162174Y-148719815D01*
X78116419Y-148667011D01*
X78106475Y-148597853D01*
X78135500Y-148534297D01*
X78185880Y-148499318D01*
X78242086Y-148478354D01*
X78242093Y-148478350D01*
X78357187Y-148392190D01*
X78357190Y-148392187D01*
X78443350Y-148277093D01*
X78443354Y-148277086D01*
X78493596Y-148142379D01*
X78493598Y-148142372D01*
X78499999Y-148082844D01*
X78500000Y-148082827D01*
X78500000Y-146535000D01*
X76000000Y-146535000D01*
X76000000Y-148082844D01*
X76006401Y-148142372D01*
X76006403Y-148142379D01*
X76056645Y-148277086D01*
X76056649Y-148277093D01*
X76142809Y-148392187D01*
X76142812Y-148392190D01*
X76257906Y-148478350D01*
X76257913Y-148478354D01*
X76314120Y-148499318D01*
X76370054Y-148541189D01*
X76394471Y-148606653D01*
X76379619Y-148674926D01*
X76330214Y-148724332D01*
X76270787Y-148739500D01*
X71002619Y-148739500D01*
X70935580Y-148719815D01*
X70889825Y-148667011D01*
X70879881Y-148597853D01*
X70908906Y-148534297D01*
X70959286Y-148499318D01*
X71002086Y-148483354D01*
X71002093Y-148483350D01*
X71117187Y-148397190D01*
X71117190Y-148397187D01*
X71203350Y-148282093D01*
X71203354Y-148282086D01*
X71253596Y-148147379D01*
X71253598Y-148147372D01*
X71259999Y-148087844D01*
X71260000Y-148087827D01*
X71260000Y-146540000D01*
X68760000Y-146540000D01*
X68760000Y-148087844D01*
X68766401Y-148147372D01*
X68766403Y-148147379D01*
X68816645Y-148282086D01*
X68816649Y-148282093D01*
X68902809Y-148397187D01*
X68902812Y-148397190D01*
X69017906Y-148483350D01*
X69017913Y-148483354D01*
X69060714Y-148499318D01*
X69116648Y-148541189D01*
X69141065Y-148606654D01*
X69126213Y-148674927D01*
X69076808Y-148724332D01*
X69017381Y-148739500D01*
X65602619Y-148739500D01*
X65535580Y-148719815D01*
X65489825Y-148667011D01*
X65479881Y-148597853D01*
X65508906Y-148534297D01*
X65559286Y-148499318D01*
X65602086Y-148483354D01*
X65602093Y-148483350D01*
X65717187Y-148397190D01*
X65717190Y-148397187D01*
X65803350Y-148282093D01*
X65803354Y-148282086D01*
X65853596Y-148147379D01*
X65853598Y-148147372D01*
X65859999Y-148087844D01*
X65860000Y-148087827D01*
X65860000Y-146540000D01*
X63360000Y-146540000D01*
X63360000Y-148087844D01*
X63366401Y-148147372D01*
X63366403Y-148147379D01*
X63416645Y-148282086D01*
X63416649Y-148282093D01*
X63502809Y-148397187D01*
X63502812Y-148397190D01*
X63617906Y-148483350D01*
X63617913Y-148483354D01*
X63660714Y-148499318D01*
X63716648Y-148541189D01*
X63741065Y-148606654D01*
X63726213Y-148674927D01*
X63676808Y-148724332D01*
X63617381Y-148739500D01*
X56632500Y-148739500D01*
X56565461Y-148719815D01*
X56519706Y-148667011D01*
X56508500Y-148615500D01*
X56508500Y-144492155D01*
X63360000Y-144492155D01*
X63360000Y-146040000D01*
X64360000Y-146040000D01*
X64860000Y-146040000D01*
X65860000Y-146040000D01*
X65860000Y-144492172D01*
X65859999Y-144492155D01*
X68760000Y-144492155D01*
X68760000Y-146040000D01*
X69760000Y-146040000D01*
X70260000Y-146040000D01*
X71260000Y-146040000D01*
X71260000Y-144492167D01*
X71259999Y-144492161D01*
X71259461Y-144487155D01*
X76000000Y-144487155D01*
X76000000Y-146035000D01*
X77000000Y-146035000D01*
X77500000Y-146035000D01*
X78500000Y-146035000D01*
X78500000Y-144487172D01*
X78499999Y-144487155D01*
X81400000Y-144487155D01*
X81400000Y-146035000D01*
X82400000Y-146035000D01*
X82900000Y-146035000D01*
X83900000Y-146035000D01*
X83900000Y-144487172D01*
X83899999Y-144487155D01*
X83893598Y-144427627D01*
X83893596Y-144427620D01*
X83843354Y-144292913D01*
X83843350Y-144292906D01*
X83757190Y-144177812D01*
X83757187Y-144177809D01*
X83642093Y-144091649D01*
X83642086Y-144091645D01*
X83507379Y-144041403D01*
X83507372Y-144041401D01*
X83447844Y-144035000D01*
X82900000Y-144035000D01*
X82900000Y-146035000D01*
X82400000Y-146035000D01*
X82400000Y-144035000D01*
X81852155Y-144035000D01*
X81792627Y-144041401D01*
X81792620Y-144041403D01*
X81657913Y-144091645D01*
X81657906Y-144091649D01*
X81542812Y-144177809D01*
X81542809Y-144177812D01*
X81456649Y-144292906D01*
X81456645Y-144292913D01*
X81406403Y-144427620D01*
X81406401Y-144427627D01*
X81400000Y-144487155D01*
X78499999Y-144487155D01*
X78493598Y-144427627D01*
X78493596Y-144427620D01*
X78443354Y-144292913D01*
X78443350Y-144292906D01*
X78357190Y-144177812D01*
X78357187Y-144177809D01*
X78242093Y-144091649D01*
X78242086Y-144091645D01*
X78107379Y-144041403D01*
X78107372Y-144041401D01*
X78047844Y-144035000D01*
X77500000Y-144035000D01*
X77500000Y-146035000D01*
X77000000Y-146035000D01*
X77000000Y-144035000D01*
X76452155Y-144035000D01*
X76392627Y-144041401D01*
X76392620Y-144041403D01*
X76257913Y-144091645D01*
X76257906Y-144091649D01*
X76142812Y-144177809D01*
X76142809Y-144177812D01*
X76056649Y-144292906D01*
X76056645Y-144292913D01*
X76006403Y-144427620D01*
X76006401Y-144427627D01*
X76000000Y-144487155D01*
X71259461Y-144487155D01*
X71253598Y-144432627D01*
X71253596Y-144432620D01*
X71203354Y-144297913D01*
X71203350Y-144297906D01*
X71117190Y-144182812D01*
X71117187Y-144182809D01*
X71002093Y-144096649D01*
X71002086Y-144096645D01*
X70867379Y-144046403D01*
X70867372Y-144046401D01*
X70807844Y-144040000D01*
X70260000Y-144040000D01*
X70260000Y-146040000D01*
X69760000Y-146040000D01*
X69760000Y-144040000D01*
X69212155Y-144040000D01*
X69152627Y-144046401D01*
X69152620Y-144046403D01*
X69017913Y-144096645D01*
X69017906Y-144096649D01*
X68902812Y-144182809D01*
X68902809Y-144182812D01*
X68816649Y-144297906D01*
X68816645Y-144297913D01*
X68766403Y-144432620D01*
X68766401Y-144432627D01*
X68760000Y-144492155D01*
X65859999Y-144492155D01*
X65853598Y-144432627D01*
X65853596Y-144432620D01*
X65803354Y-144297913D01*
X65803350Y-144297906D01*
X65717190Y-144182812D01*
X65717187Y-144182809D01*
X65602093Y-144096649D01*
X65602086Y-144096645D01*
X65467379Y-144046403D01*
X65467372Y-144046401D01*
X65407844Y-144040000D01*
X64860000Y-144040000D01*
X64860000Y-146040000D01*
X64360000Y-146040000D01*
X64360000Y-144040000D01*
X63812155Y-144040000D01*
X63752627Y-144046401D01*
X63752620Y-144046403D01*
X63617913Y-144096645D01*
X63617906Y-144096649D01*
X63502812Y-144182809D01*
X63502809Y-144182812D01*
X63416649Y-144297906D01*
X63416645Y-144297913D01*
X63366403Y-144432620D01*
X63366401Y-144432627D01*
X63360000Y-144492155D01*
X56508500Y-144492155D01*
X56508500Y-46930116D01*
X64129500Y-46930116D01*
X64129500Y-46930118D01*
X64129500Y-129479882D01*
X64160024Y-129553574D01*
X64216426Y-129609976D01*
X64290118Y-129640500D01*
X64290120Y-129640500D01*
X83029880Y-129640500D01*
X83029882Y-129640500D01*
X83103574Y-129609976D01*
X83159976Y-129553574D01*
X83190500Y-129479882D01*
X83190500Y-46930118D01*
X83159976Y-46856426D01*
X83103574Y-46800024D01*
X83029883Y-46769500D01*
X83029882Y-46769500D01*
X64369882Y-46769500D01*
X64290118Y-46769500D01*
X64290116Y-46769500D01*
X64216425Y-46800024D01*
X64160024Y-46856425D01*
X64129500Y-46930116D01*
X56508500Y-46930116D01*
X56508500Y-31610344D01*
X63380000Y-31610344D01*
X63386401Y-31669872D01*
X63386403Y-31669879D01*
X63436645Y-31804586D01*
X63436649Y-31804593D01*
X63522809Y-31919687D01*
X63522812Y-31919690D01*
X63637906Y-32005850D01*
X63637913Y-32005854D01*
X63772620Y-32056096D01*
X63772627Y-32056098D01*
X63832155Y-32062499D01*
X63832172Y-32062500D01*
X64380000Y-32062500D01*
X64880000Y-32062500D01*
X65427828Y-32062500D01*
X65427844Y-32062499D01*
X65487372Y-32056098D01*
X65487379Y-32056096D01*
X65622086Y-32005854D01*
X65622093Y-32005850D01*
X65737187Y-31919690D01*
X65737190Y-31919687D01*
X65823350Y-31804593D01*
X65823354Y-31804586D01*
X65873596Y-31669879D01*
X65873598Y-31669872D01*
X65879999Y-31610344D01*
X68780000Y-31610344D01*
X68786401Y-31669872D01*
X68786403Y-31669879D01*
X68836645Y-31804586D01*
X68836649Y-31804593D01*
X68922809Y-31919687D01*
X68922812Y-31919690D01*
X69037906Y-32005850D01*
X69037913Y-32005854D01*
X69172620Y-32056096D01*
X69172627Y-32056098D01*
X69232155Y-32062499D01*
X69232172Y-32062500D01*
X69780000Y-32062500D01*
X70280000Y-32062500D01*
X70827828Y-32062500D01*
X70827844Y-32062499D01*
X70887372Y-32056098D01*
X70887379Y-32056096D01*
X71022086Y-32005854D01*
X71022093Y-32005850D01*
X71137187Y-31919690D01*
X71137190Y-31919687D01*
X71223350Y-31804593D01*
X71223354Y-31804586D01*
X71273596Y-31669879D01*
X71273598Y-31669872D01*
X71276504Y-31642844D01*
X76030000Y-31642844D01*
X76036401Y-31702372D01*
X76036403Y-31702379D01*
X76086645Y-31837086D01*
X76086649Y-31837093D01*
X76172809Y-31952187D01*
X76172812Y-31952190D01*
X76287906Y-32038350D01*
X76287913Y-32038354D01*
X76422620Y-32088596D01*
X76422627Y-32088598D01*
X76482155Y-32094999D01*
X76482172Y-32095000D01*
X77030000Y-32095000D01*
X77530000Y-32095000D01*
X78077828Y-32095000D01*
X78077844Y-32094999D01*
X78137372Y-32088598D01*
X78137379Y-32088596D01*
X78272086Y-32038354D01*
X78272093Y-32038350D01*
X78387187Y-31952190D01*
X78387190Y-31952187D01*
X78473350Y-31837093D01*
X78473354Y-31837086D01*
X78523596Y-31702379D01*
X78523598Y-31702372D01*
X78529999Y-31642844D01*
X81430000Y-31642844D01*
X81436401Y-31702372D01*
X81436403Y-31702379D01*
X81486645Y-31837086D01*
X81486649Y-31837093D01*
X81572809Y-31952187D01*
X81572812Y-31952190D01*
X81687906Y-32038350D01*
X81687913Y-32038354D01*
X81822620Y-32088596D01*
X81822627Y-32088598D01*
X81882155Y-32094999D01*
X81882172Y-32095000D01*
X82430000Y-32095000D01*
X82930000Y-32095000D01*
X83477828Y-32095000D01*
X83477844Y-32094999D01*
X83537372Y-32088598D01*
X83537379Y-32088596D01*
X83672086Y-32038354D01*
X83672093Y-32038350D01*
X83787187Y-31952190D01*
X83787190Y-31952187D01*
X83873350Y-31837093D01*
X83873354Y-31837086D01*
X83923596Y-31702379D01*
X83923598Y-31702372D01*
X83929999Y-31642844D01*
X83930000Y-31642827D01*
X83930000Y-30095000D01*
X82930000Y-30095000D01*
X82930000Y-32095000D01*
X82430000Y-32095000D01*
X82430000Y-30095000D01*
X81430000Y-30095000D01*
X81430000Y-31642844D01*
X78529999Y-31642844D01*
X78530000Y-31642827D01*
X78530000Y-30095000D01*
X77530000Y-30095000D01*
X77530000Y-32095000D01*
X77030000Y-32095000D01*
X77030000Y-30095000D01*
X76030000Y-30095000D01*
X76030000Y-31642844D01*
X71276504Y-31642844D01*
X71279999Y-31610344D01*
X71280000Y-31610327D01*
X71280000Y-30062500D01*
X70280000Y-30062500D01*
X70280000Y-32062500D01*
X69780000Y-32062500D01*
X69780000Y-30062500D01*
X68780000Y-30062500D01*
X68780000Y-31610344D01*
X65879999Y-31610344D01*
X65880000Y-31610327D01*
X65880000Y-30062500D01*
X64880000Y-30062500D01*
X64880000Y-32062500D01*
X64380000Y-32062500D01*
X64380000Y-30062500D01*
X63380000Y-30062500D01*
X63380000Y-31610344D01*
X56508500Y-31610344D01*
X56508500Y-27614500D01*
X56528185Y-27547461D01*
X56580989Y-27501706D01*
X56632500Y-27490500D01*
X63438260Y-27490500D01*
X63505299Y-27510185D01*
G37*
%TD.AperFunction*%
%TD*%
M02*
