M48
; DRILL file {KiCad 9.0.7} date 2026-01-22T12:13:52-0500
; FORMAT={-:-/ absolute / metric / decimal}
; #@! TF.CreationDate,2026-01-22T12:13:52-05:00
; #@! TF.GenerationSoftware,Kicad,Pcbnew,9.0.7
; #@! TF.FileFunction,Plated,1,2,PTH
FMAT,2
METRIC
; #@! TA.AperFunction,Plated,PTH,ViaDrill
T1C0.300
%
G90
G05
T1
X57.82Y-133.72
X57.82Y-136.74
X57.83Y-31.8
X57.83Y-34.82
X57.84Y-138.28
X57.84Y-144.22
X57.841Y-130.73
X57.842Y-132.23
X57.843Y-135.23
X57.845Y-139.73
X57.846Y-141.23
X57.847Y-142.73
X57.849Y-147.23
X57.85Y-36.36
X57.85Y-42.3
X57.85Y-145.73
X57.851Y-28.81
X57.852Y-30.31
X57.853Y-33.31
X57.855Y-37.81
X57.856Y-39.31
X57.857Y-40.81
X57.859Y-45.31
X57.86Y-43.81
X59.329Y-133.72
X59.329Y-136.74
X59.339Y-31.8
X59.339Y-34.82
X59.349Y-138.28
X59.349Y-144.22
X59.35Y-130.73
X59.351Y-132.23
X59.352Y-135.23
X59.355Y-139.73
X59.355Y-141.23
X59.356Y-142.73
X59.358Y-147.23
X59.359Y-36.36
X59.359Y-42.3
X59.359Y-145.73
X59.36Y-28.81
X59.361Y-30.31
X59.362Y-33.31
X59.365Y-37.81
X59.365Y-39.31
X59.366Y-40.81
X59.368Y-45.31
X59.369Y-43.81
X60.83Y-133.72
X60.83Y-136.74
X60.84Y-31.8
X60.84Y-34.82
X60.85Y-138.28
X60.85Y-144.22
X60.851Y-130.73
X60.852Y-132.23
X60.853Y-135.23
X60.855Y-139.73
X60.856Y-141.23
X60.857Y-142.73
X60.859Y-147.23
X60.86Y-36.36
X60.86Y-42.3
X60.86Y-145.73
X60.861Y-28.81
X60.862Y-30.31
X60.863Y-33.31
X60.865Y-37.81
X60.866Y-39.31
X60.867Y-40.81
X60.869Y-45.31
X60.87Y-43.81
X62.339Y-133.72
X62.339Y-136.74
X62.349Y-31.8
X62.349Y-34.82
X62.359Y-138.28
X62.359Y-144.22
X62.36Y-130.73
X62.361Y-132.23
X62.362Y-135.23
X62.365Y-139.73
X62.365Y-141.23
X62.366Y-142.73
X62.368Y-147.23
X62.369Y-36.36
X62.369Y-42.3
X62.369Y-145.73
X62.37Y-28.81
X62.371Y-30.31
X62.372Y-33.31
X62.375Y-37.81
X62.375Y-39.31
X62.376Y-40.81
X62.378Y-45.31
X62.379Y-43.81
X64.18Y-32.97
X64.3Y-143.01
X70.29Y-32.93
X70.66Y-143.01
X72.39Y-28.63
X72.39Y-29.97
X72.39Y-31.31
X72.41Y-32.65
X72.43Y-143.56
X72.43Y-146.24
X72.43Y-147.58
X72.44Y-144.9
X74.93Y-31.31
X74.94Y-28.63
X74.94Y-29.97
X74.94Y-32.65
X74.96Y-143.56
X74.98Y-144.9
X74.98Y-146.24
X74.98Y-147.58
X76.85Y-142.97
X76.93Y-32.91
X82.85Y-33.03
X83.09Y-142.92
X85.081Y-145.73
X85.082Y-147.23
X85.084Y-142.73
X85.085Y-141.23
X85.085Y-139.73
X85.088Y-135.23
X85.089Y-132.23
X85.09Y-130.73
X85.091Y-138.28
X85.091Y-144.22
X85.111Y-133.72
X85.111Y-136.74
X85.121Y-43.79
X85.122Y-45.29
X85.124Y-40.79
X85.125Y-39.29
X85.125Y-37.79
X85.128Y-33.29
X85.129Y-30.29
X85.13Y-28.79
X85.131Y-36.34
X85.131Y-42.28
X85.151Y-31.78
X85.151Y-34.8
X86.59Y-145.73
X86.591Y-147.23
X86.593Y-142.73
X86.594Y-141.23
X86.595Y-139.73
X86.597Y-135.23
X86.598Y-132.23
X86.599Y-130.73
X86.6Y-138.28
X86.6Y-144.22
X86.62Y-133.72
X86.62Y-136.74
X86.63Y-43.79
X86.631Y-45.29
X86.633Y-40.79
X86.634Y-39.29
X86.635Y-37.79
X86.637Y-33.29
X86.638Y-30.29
X86.639Y-28.79
X86.64Y-36.34
X86.64Y-42.28
X86.66Y-31.78
X86.66Y-34.8
X88.091Y-145.73
X88.092Y-147.23
X88.094Y-142.73
X88.095Y-141.23
X88.095Y-139.73
X88.098Y-135.23
X88.099Y-132.23
X88.1Y-130.73
X88.101Y-138.28
X88.101Y-144.22
X88.121Y-133.72
X88.121Y-136.74
X88.131Y-43.79
X88.132Y-45.29
X88.134Y-40.79
X88.135Y-39.29
X88.135Y-37.79
X88.138Y-33.29
X88.139Y-30.29
X88.14Y-28.79
X88.141Y-36.34
X88.141Y-42.28
X88.161Y-31.78
X88.161Y-34.8
X89.6Y-145.73
X89.601Y-147.23
X89.603Y-142.73
X89.604Y-141.23
X89.605Y-139.73
X89.607Y-135.23
X89.608Y-132.23
X89.609Y-130.73
X89.61Y-138.28
X89.61Y-144.22
X89.63Y-133.72
X89.63Y-136.74
X89.64Y-43.79
X89.641Y-45.29
X89.643Y-40.79
X89.644Y-39.29
X89.645Y-37.79
X89.647Y-33.29
X89.648Y-30.29
X89.649Y-28.79
X89.65Y-36.34
X89.65Y-42.28
X89.67Y-31.78
X89.67Y-34.8
M30
